G04 #@! TF.FileFunction,Copper,L2,Bot,Signal*
%FSLAX46Y46*%
G04 Gerber Fmt 4.6, Leading zero omitted, Abs format (unit mm)*
G04 Created by KiCad (PCBNEW 4.0.7+dfsg1-1~bpo9+1) date Sat May 26 15:28:48 2018*
%MOMM*%
%LPD*%
G01*
G04 APERTURE LIST*
%ADD10C,0.100000*%
%ADD11R,2.000000X2.000000*%
%ADD12C,0.200000*%
G04 APERTURE END LIST*
D10*
D11*
X166370000Y-76835000D03*
D12*
G36*
X180040788Y-29034335D02*
X180325457Y-29224545D01*
X180515665Y-29509212D01*
X180590000Y-29882917D01*
X180590000Y-122517083D01*
X180515665Y-122890788D01*
X180325457Y-123175455D01*
X180040788Y-123365665D01*
X179641090Y-123445170D01*
X142848575Y-128520000D01*
X85783370Y-128520000D01*
X49009114Y-117107300D01*
X48988890Y-117105177D01*
X48970109Y-117097398D01*
X48559212Y-117015665D01*
X48274545Y-116825457D01*
X48084335Y-116540788D01*
X48010000Y-116167082D01*
X48010000Y-110134236D01*
X102729755Y-110134236D01*
X102943963Y-110652658D01*
X103340256Y-111049643D01*
X103858303Y-111264755D01*
X104419236Y-111265245D01*
X104937658Y-111051037D01*
X105334643Y-110654744D01*
X105549755Y-110136697D01*
X105550245Y-109575764D01*
X105336037Y-109057342D01*
X104939744Y-108660357D01*
X104421697Y-108445245D01*
X103860764Y-108444755D01*
X103342342Y-108658963D01*
X102945357Y-109055256D01*
X102730245Y-109573303D01*
X102729755Y-110134236D01*
X48010000Y-110134236D01*
X48010000Y-105054236D01*
X160514755Y-105054236D01*
X160728963Y-105572658D01*
X161125256Y-105969643D01*
X161643303Y-106184755D01*
X162204236Y-106185245D01*
X162722658Y-105971037D01*
X163119643Y-105574744D01*
X163334755Y-105056697D01*
X163335245Y-104495764D01*
X163121037Y-103977342D01*
X162724744Y-103580357D01*
X162206697Y-103365245D01*
X161645764Y-103364755D01*
X161127342Y-103578963D01*
X160730357Y-103975256D01*
X160515245Y-104493303D01*
X160514755Y-105054236D01*
X48010000Y-105054236D01*
X48010000Y-98704236D01*
X65264755Y-98704236D01*
X65478963Y-99222658D01*
X65875256Y-99619643D01*
X66393303Y-99834755D01*
X66954236Y-99835245D01*
X67472658Y-99621037D01*
X67869643Y-99224744D01*
X68084755Y-98706697D01*
X68085245Y-98145764D01*
X67871037Y-97627342D01*
X67474744Y-97230357D01*
X66956697Y-97015245D01*
X66395764Y-97014755D01*
X65877342Y-97228963D01*
X65480357Y-97625256D01*
X65265245Y-98143303D01*
X65264755Y-98704236D01*
X48010000Y-98704236D01*
X48010000Y-86004236D01*
X142099755Y-86004236D01*
X142313963Y-86522658D01*
X142710256Y-86919643D01*
X143228303Y-87134755D01*
X143789236Y-87135245D01*
X144307658Y-86921037D01*
X144704643Y-86524744D01*
X144919755Y-86006697D01*
X144920245Y-85445764D01*
X144706037Y-84927342D01*
X144309744Y-84530357D01*
X143791697Y-84315245D01*
X143230764Y-84314755D01*
X142712342Y-84528963D01*
X142315357Y-84925256D01*
X142100245Y-85443303D01*
X142099755Y-86004236D01*
X48010000Y-86004236D01*
X48010000Y-72034236D01*
X102729755Y-72034236D01*
X102943963Y-72552658D01*
X103340256Y-72949643D01*
X103858303Y-73164755D01*
X104419236Y-73165245D01*
X104937658Y-72951037D01*
X105334643Y-72554744D01*
X105549755Y-72036697D01*
X105550245Y-71475764D01*
X105336037Y-70957342D01*
X104939744Y-70560357D01*
X104421697Y-70345245D01*
X103860764Y-70344755D01*
X103342342Y-70558963D01*
X102945357Y-70955256D01*
X102730245Y-71473303D01*
X102729755Y-72034236D01*
X48010000Y-72034236D01*
X48010000Y-60604236D01*
X65264755Y-60604236D01*
X65478963Y-61122658D01*
X65875256Y-61519643D01*
X66393303Y-61734755D01*
X66954236Y-61735245D01*
X67472658Y-61521037D01*
X67869643Y-61124744D01*
X68084755Y-60606697D01*
X68085245Y-60045764D01*
X67871037Y-59527342D01*
X67474744Y-59130357D01*
X66956697Y-58915245D01*
X66395764Y-58914755D01*
X65877342Y-59128963D01*
X65480357Y-59525256D01*
X65265245Y-60043303D01*
X65264755Y-60604236D01*
X48010000Y-60604236D01*
X48010000Y-47904236D01*
X121779755Y-47904236D01*
X121993963Y-48422658D01*
X122390256Y-48819643D01*
X122908303Y-49034755D01*
X123469236Y-49035245D01*
X123987658Y-48821037D01*
X124384643Y-48424744D01*
X124599755Y-47906697D01*
X124599757Y-47904236D01*
X160514755Y-47904236D01*
X160728963Y-48422658D01*
X161125256Y-48819643D01*
X161643303Y-49034755D01*
X162204236Y-49035245D01*
X162722658Y-48821037D01*
X163119643Y-48424744D01*
X163334755Y-47906697D01*
X163335245Y-47345764D01*
X163121037Y-46827342D01*
X162724744Y-46430357D01*
X162206697Y-46215245D01*
X161645764Y-46214755D01*
X161127342Y-46428963D01*
X160730357Y-46825256D01*
X160515245Y-47343303D01*
X160514755Y-47904236D01*
X124599757Y-47904236D01*
X124600245Y-47345764D01*
X124386037Y-46827342D01*
X123989744Y-46430357D01*
X123471697Y-46215245D01*
X122910764Y-46214755D01*
X122392342Y-46428963D01*
X121995357Y-46825256D01*
X121780245Y-47343303D01*
X121779755Y-47904236D01*
X48010000Y-47904236D01*
X48010000Y-42582918D01*
X48084335Y-42209212D01*
X48274545Y-41924543D01*
X48559212Y-41734335D01*
X48970109Y-41652602D01*
X48975015Y-41650570D01*
X48980324Y-41650426D01*
X104818198Y-28960000D01*
X179667082Y-28960000D01*
X180040788Y-29034335D01*
X180040788Y-29034335D01*
G37*
X180040788Y-29034335D02*
X180325457Y-29224545D01*
X180515665Y-29509212D01*
X180590000Y-29882917D01*
X180590000Y-122517083D01*
X180515665Y-122890788D01*
X180325457Y-123175455D01*
X180040788Y-123365665D01*
X179641090Y-123445170D01*
X142848575Y-128520000D01*
X85783370Y-128520000D01*
X49009114Y-117107300D01*
X48988890Y-117105177D01*
X48970109Y-117097398D01*
X48559212Y-117015665D01*
X48274545Y-116825457D01*
X48084335Y-116540788D01*
X48010000Y-116167082D01*
X48010000Y-110134236D01*
X102729755Y-110134236D01*
X102943963Y-110652658D01*
X103340256Y-111049643D01*
X103858303Y-111264755D01*
X104419236Y-111265245D01*
X104937658Y-111051037D01*
X105334643Y-110654744D01*
X105549755Y-110136697D01*
X105550245Y-109575764D01*
X105336037Y-109057342D01*
X104939744Y-108660357D01*
X104421697Y-108445245D01*
X103860764Y-108444755D01*
X103342342Y-108658963D01*
X102945357Y-109055256D01*
X102730245Y-109573303D01*
X102729755Y-110134236D01*
X48010000Y-110134236D01*
X48010000Y-105054236D01*
X160514755Y-105054236D01*
X160728963Y-105572658D01*
X161125256Y-105969643D01*
X161643303Y-106184755D01*
X162204236Y-106185245D01*
X162722658Y-105971037D01*
X163119643Y-105574744D01*
X163334755Y-105056697D01*
X163335245Y-104495764D01*
X163121037Y-103977342D01*
X162724744Y-103580357D01*
X162206697Y-103365245D01*
X161645764Y-103364755D01*
X161127342Y-103578963D01*
X160730357Y-103975256D01*
X160515245Y-104493303D01*
X160514755Y-105054236D01*
X48010000Y-105054236D01*
X48010000Y-98704236D01*
X65264755Y-98704236D01*
X65478963Y-99222658D01*
X65875256Y-99619643D01*
X66393303Y-99834755D01*
X66954236Y-99835245D01*
X67472658Y-99621037D01*
X67869643Y-99224744D01*
X68084755Y-98706697D01*
X68085245Y-98145764D01*
X67871037Y-97627342D01*
X67474744Y-97230357D01*
X66956697Y-97015245D01*
X66395764Y-97014755D01*
X65877342Y-97228963D01*
X65480357Y-97625256D01*
X65265245Y-98143303D01*
X65264755Y-98704236D01*
X48010000Y-98704236D01*
X48010000Y-86004236D01*
X142099755Y-86004236D01*
X142313963Y-86522658D01*
X142710256Y-86919643D01*
X143228303Y-87134755D01*
X143789236Y-87135245D01*
X144307658Y-86921037D01*
X144704643Y-86524744D01*
X144919755Y-86006697D01*
X144920245Y-85445764D01*
X144706037Y-84927342D01*
X144309744Y-84530357D01*
X143791697Y-84315245D01*
X143230764Y-84314755D01*
X142712342Y-84528963D01*
X142315357Y-84925256D01*
X142100245Y-85443303D01*
X142099755Y-86004236D01*
X48010000Y-86004236D01*
X48010000Y-72034236D01*
X102729755Y-72034236D01*
X102943963Y-72552658D01*
X103340256Y-72949643D01*
X103858303Y-73164755D01*
X104419236Y-73165245D01*
X104937658Y-72951037D01*
X105334643Y-72554744D01*
X105549755Y-72036697D01*
X105550245Y-71475764D01*
X105336037Y-70957342D01*
X104939744Y-70560357D01*
X104421697Y-70345245D01*
X103860764Y-70344755D01*
X103342342Y-70558963D01*
X102945357Y-70955256D01*
X102730245Y-71473303D01*
X102729755Y-72034236D01*
X48010000Y-72034236D01*
X48010000Y-60604236D01*
X65264755Y-60604236D01*
X65478963Y-61122658D01*
X65875256Y-61519643D01*
X66393303Y-61734755D01*
X66954236Y-61735245D01*
X67472658Y-61521037D01*
X67869643Y-61124744D01*
X68084755Y-60606697D01*
X68085245Y-60045764D01*
X67871037Y-59527342D01*
X67474744Y-59130357D01*
X66956697Y-58915245D01*
X66395764Y-58914755D01*
X65877342Y-59128963D01*
X65480357Y-59525256D01*
X65265245Y-60043303D01*
X65264755Y-60604236D01*
X48010000Y-60604236D01*
X48010000Y-47904236D01*
X121779755Y-47904236D01*
X121993963Y-48422658D01*
X122390256Y-48819643D01*
X122908303Y-49034755D01*
X123469236Y-49035245D01*
X123987658Y-48821037D01*
X124384643Y-48424744D01*
X124599755Y-47906697D01*
X124599757Y-47904236D01*
X160514755Y-47904236D01*
X160728963Y-48422658D01*
X161125256Y-48819643D01*
X161643303Y-49034755D01*
X162204236Y-49035245D01*
X162722658Y-48821037D01*
X163119643Y-48424744D01*
X163334755Y-47906697D01*
X163335245Y-47345764D01*
X163121037Y-46827342D01*
X162724744Y-46430357D01*
X162206697Y-46215245D01*
X161645764Y-46214755D01*
X161127342Y-46428963D01*
X160730357Y-46825256D01*
X160515245Y-47343303D01*
X160514755Y-47904236D01*
X124599757Y-47904236D01*
X124600245Y-47345764D01*
X124386037Y-46827342D01*
X123989744Y-46430357D01*
X123471697Y-46215245D01*
X122910764Y-46214755D01*
X122392342Y-46428963D01*
X121995357Y-46825256D01*
X121780245Y-47343303D01*
X121779755Y-47904236D01*
X48010000Y-47904236D01*
X48010000Y-42582918D01*
X48084335Y-42209212D01*
X48274545Y-41924543D01*
X48559212Y-41734335D01*
X48970109Y-41652602D01*
X48975015Y-41650570D01*
X48980324Y-41650426D01*
X104818198Y-28960000D01*
X179667082Y-28960000D01*
X180040788Y-29034335D01*
M02*
