M48
;DRILL file {KiCad 4.0.7+dfsg1-1~bpo9+1} date Sat May 26 14:22:08 2018
;FORMAT={-:-/ absolute / inch / decimal}
FMAT,2
INCH,TZ
T1C0.030
T2C0.031
T3C0.067
T4C0.087
T5C0.157
%
G90
G05
M72
T1
X7.075Y-4.05
T2
X3.108Y-1.5396
X3.3Y-1.496
X6.9485Y-1.8701
X6.9485Y-2.0669
T3
X2.05Y-2.
X2.05Y-2.75
X2.05Y-3.5
X2.05Y-4.25
X2.45Y-2.
X2.45Y-2.75
X2.45Y-3.5
X2.45Y-4.25
X2.8Y-2.
X2.8Y-2.75
X2.8Y-3.5
X2.8Y-4.25
X3.2Y-2.
X3.2Y-2.75
X3.2Y-3.5
X3.2Y-4.25
X3.55Y-1.7
X3.55Y-2.45
X3.55Y-3.2
X3.55Y-3.95
X3.55Y-4.7
X3.95Y-1.7
X3.95Y-2.45
X3.95Y-3.2
X3.95Y-3.95
X3.95Y-4.7
X4.3Y-1.5
X4.3Y-2.25
X4.3Y-3.
X4.3Y-3.75
X4.3Y-4.5
X4.7Y-1.5
X4.7Y-2.25
X4.7Y-3.
X4.7Y-3.75
X4.7Y-4.5
X5.05Y-1.7
X5.05Y-2.45
X5.05Y-3.2
X5.05Y-3.95
X5.05Y-4.7
X5.45Y-1.7
X5.45Y-2.45
X5.45Y-3.2
X5.45Y-3.95
X5.45Y-4.7
X5.8Y-1.5
X5.8Y-2.25
X5.8Y-3.
X5.8Y-3.75
X5.8Y-4.5
X6.2Y-1.5
X6.2Y-2.25
X6.2Y-3.
X6.2Y-3.75
X6.2Y-4.5
X6.55Y-1.5
X6.55Y-4.5
X6.75Y-2.2375
X6.75Y-2.6375
X6.75Y-3.3625
X6.75Y-3.7625
X6.95Y-1.5
X6.95Y-4.5
T4
X2.625Y-2.375
X2.625Y-3.875
X4.1Y-2.825
X4.1Y-4.325
X4.85Y-1.875
X5.65Y-3.375
X6.375Y-1.875
X6.375Y-4.125
T5
X2.25Y-2.
X2.25Y-2.75
X2.25Y-3.5
X2.25Y-4.25
X3.Y-2.
X3.Y-2.75
X3.Y-3.5
X3.Y-4.25
X3.75Y-1.7
X3.75Y-2.45
X3.75Y-3.2
X3.75Y-3.95
X3.75Y-4.7
X4.5Y-1.5
X4.5Y-2.25
X4.5Y-3.
X4.5Y-3.75
X4.5Y-4.5
X5.25Y-1.7
X5.25Y-2.45
X5.25Y-3.2
X5.25Y-3.95
X5.25Y-4.7
X6.Y-1.5
X6.Y-2.25
X6.Y-3.
X6.Y-3.75
X6.Y-4.5
X6.75Y-1.5
X6.75Y-2.4375
X6.75Y-3.5625
X6.75Y-4.5
T0
M30
