G04 #@! TF.FileFunction,Paste,Bot*
%FSLAX46Y46*%
G04 Gerber Fmt 4.6, Leading zero omitted, Abs format (unit mm)*
G04 Created by KiCad (PCBNEW 4.0.7+dfsg1-1~bpo9+1) date Sat May 26 14:22:04 2018*
%MOMM*%
%LPD*%
G01*
G04 APERTURE LIST*
%ADD10C,0.100000*%
%ADD11R,1.000000X0.845000*%
%ADD12R,0.845000X1.000000*%
%ADD13R,1.300000X0.450000*%
%ADD14R,1.360000X1.440000*%
%ADD15R,1.200000X0.900000*%
G04 APERTURE END LIST*
D10*
G36*
X80433538Y-39228318D02*
X80721551Y-40496012D01*
X80282734Y-40595708D01*
X79994721Y-39328014D01*
X80433538Y-39228318D01*
X80433538Y-39228318D01*
G37*
G36*
X81067385Y-39084311D02*
X81355398Y-40352005D01*
X80916581Y-40451701D01*
X80628568Y-39184007D01*
X81067385Y-39084311D01*
X81067385Y-39084311D01*
G37*
G36*
X81701232Y-38940305D02*
X81989245Y-40207999D01*
X81550428Y-40307695D01*
X81262415Y-39040001D01*
X81701232Y-38940305D01*
X81701232Y-38940305D01*
G37*
G36*
X82335079Y-38796298D02*
X82623092Y-40063992D01*
X82184275Y-40163688D01*
X81896262Y-38895994D01*
X82335079Y-38796298D01*
X82335079Y-38796298D01*
G37*
G36*
X82968926Y-38652292D02*
X83256939Y-39919986D01*
X82818122Y-40019682D01*
X82530109Y-38751988D01*
X82968926Y-38652292D01*
X82968926Y-38652292D01*
G37*
D11*
X164465000Y-72062500D03*
X164465000Y-73987500D03*
D12*
X170487500Y-70485000D03*
X172412500Y-70485000D03*
D11*
X164465000Y-77142500D03*
X164465000Y-79067500D03*
X167640000Y-79067500D03*
X167640000Y-77142500D03*
D13*
X175392000Y-48700000D03*
X175392000Y-49350000D03*
X175392000Y-50000000D03*
X175392000Y-50650000D03*
X175392000Y-51300000D03*
D11*
X173355000Y-79702500D03*
X173355000Y-77777500D03*
D12*
X168602500Y-46990000D03*
X166677500Y-46990000D03*
D14*
X179705000Y-100670000D03*
X179705000Y-105070000D03*
D15*
X66675000Y-52450000D03*
X66675000Y-49150000D03*
X85725000Y-52450000D03*
X85725000Y-49150000D03*
X104775000Y-44830000D03*
X104775000Y-41530000D03*
X123825000Y-39750000D03*
X123825000Y-36450000D03*
X142875000Y-44830000D03*
X142875000Y-41530000D03*
X160655000Y-39750000D03*
X160655000Y-36450000D03*
X163195000Y-39750000D03*
X163195000Y-36450000D03*
X66675000Y-71500000D03*
X66675000Y-68200000D03*
X85725000Y-71500000D03*
X85725000Y-68200000D03*
X104775000Y-63880000D03*
X104775000Y-60580000D03*
X123825000Y-58800000D03*
X123825000Y-55500000D03*
X142875000Y-63880000D03*
X142875000Y-60580000D03*
X160655000Y-58800000D03*
X160655000Y-55500000D03*
X163195000Y-58800000D03*
X163195000Y-55500000D03*
X66675000Y-90550000D03*
X66675000Y-87250000D03*
X85725000Y-90550000D03*
X85725000Y-87250000D03*
X104775000Y-82930000D03*
X104775000Y-79630000D03*
X123825000Y-77850000D03*
X123825000Y-74550000D03*
X141605000Y-80390000D03*
X141605000Y-77090000D03*
X144145000Y-80390000D03*
X144145000Y-77090000D03*
X66675000Y-109600000D03*
X66675000Y-106300000D03*
X85725000Y-109600000D03*
X85725000Y-106300000D03*
X104775000Y-101980000D03*
X104775000Y-98680000D03*
X123825000Y-96900000D03*
X123825000Y-93600000D03*
X142875000Y-101980000D03*
X142875000Y-98680000D03*
X161925000Y-96900000D03*
X161925000Y-93600000D03*
X161925000Y-89280000D03*
X161925000Y-85980000D03*
X104775000Y-121030000D03*
X104775000Y-117730000D03*
X123825000Y-115950000D03*
X123825000Y-112650000D03*
X142875000Y-121030000D03*
X142875000Y-117730000D03*
X160655000Y-115950000D03*
X160655000Y-112650000D03*
X163195000Y-115950000D03*
X163195000Y-112650000D03*
M02*
