M48
;DRILL file {KiCad 4.0.7+dfsg1-1~bpo9+1} date Sat May 26 14:22:08 2018
;FORMAT={-:-/ absolute / inch / decimal}
FMAT,2
INCH,TZ
T1C0.016
T2C0.022
T3C0.033
T4C0.039
T5C0.059
%
G90
G05
M72
T1
X2.6156Y-1.9
X2.6156Y-2.65
X2.6156Y-3.4
X2.6156Y-4.15
X2.6659Y-4.35
X2.67Y-2.8285
X2.67Y-3.5785
X2.675Y-2.0835
X2.85Y-3.925
X3.2Y-1.49
X3.25Y-1.61
X3.315Y-1.6
X3.3656Y-1.9
X3.3656Y-2.65
X3.3656Y-3.4
X3.3656Y-4.15
X3.41Y-1.655
X3.42Y-2.815
X3.42Y-3.565
X3.42Y-4.315
X3.425Y-2.065
X3.6Y-3.625
X4.05Y-1.295
X4.1156Y-1.6
X4.1156Y-2.35
X4.1156Y-3.1
X4.1156Y-3.85
X4.1156Y-4.6
X4.125Y-3.63
X4.165Y-3.265
X4.17Y-1.765
X4.17Y-2.515
X4.17Y-4.015
X4.17Y-4.765
X4.35Y-3.415
X4.8656Y-1.4
X4.8656Y-2.15
X4.8656Y-2.9
X4.8656Y-3.65
X4.8656Y-4.4
X4.875Y-1.63
X4.875Y-2.36
X4.875Y-3.14
X4.875Y-3.9
X4.875Y-4.645
X5.1Y-2.565
X5.53Y-3.035
X5.54Y-1.355
X5.6156Y-1.6
X5.6156Y-2.35
X5.6156Y-3.85
X5.6156Y-4.6
X5.625Y-3.165
X5.67Y-1.765
X5.67Y-4.015
X5.67Y-4.765
X5.6715Y-2.5
X5.695Y-2.9938
X5.7Y-2.525
X6.125Y-3.265
X6.1461Y-1.7344
X6.1899Y-3.2999
X6.205Y-3.335
X6.2149Y-2.4101
X6.215Y-2.87
X6.23Y-2.925
X6.23Y-3.355
X6.235Y-1.98
X6.25Y-3.54
X6.255Y-3.375
X6.27Y-2.65
X6.28Y-2.475
X6.28Y-3.965
X6.305Y-3.995
X6.3156Y-1.4
X6.3156Y-4.4
X6.325Y-2.235
X6.325Y-2.575
X6.325Y-3.195
X6.33Y-3.54
X6.33Y-3.815
X6.3656Y-3.65
X6.375Y-1.565
X6.375Y-2.315
X6.375Y-2.41
X6.375Y-4.4894
X6.4Y-2.65
X6.4009Y-3.0193
X6.402Y-3.0756
X6.4021Y-2.9709
X6.42Y-3.385
X6.425Y-2.235
X6.4257Y-3.0388
X6.4259Y-2.9916
X6.4275Y-3.1287
X6.43Y-2.875
X6.43Y-3.09
X6.4344Y-1.4
X6.4344Y-4.4
X6.435Y-2.825
X6.4563Y-3.1413
X6.465Y-2.115
X6.49Y-2.15
X6.5098Y-2.95
X6.52Y-2.53
X6.5253Y-3.1559
X6.54Y-2.4
X6.555Y-2.37
X6.5617Y-2.0517
X6.565Y-1.89
X6.57Y-3.175
X6.605Y-2.89
X6.63Y-2.915
X6.655Y-2.935
X6.675Y-1.85
X6.68Y-2.97
X6.6989Y-2.8117
X6.71Y-3.0371
X6.74Y-3.
X6.77Y-2.775
X6.81Y-1.92
X6.82Y-1.975
X6.8511Y-1.9698
X6.865Y-3.14
X6.875Y-2.975
X6.875Y-3.065
X6.955Y-1.965
X7.01Y-4.135
X7.075Y-3.895
T4
X4.25Y-4.975
X4.35Y-4.975
X4.45Y-4.975
X4.55Y-4.975
X4.65Y-4.975
X4.75Y-4.975
X5.625Y-1.875
X5.625Y-1.975
X5.625Y-2.075
X5.625Y-2.175
X5.625Y-2.275
T5
X2.1Y-1.9
X2.1Y-2.65
X2.1Y-3.4
X2.1Y-4.15
X2.15Y-1.8
X2.15Y-2.55
X2.15Y-3.3
X2.15Y-4.05
X2.35Y-1.8
X2.35Y-2.55
X2.35Y-3.3
X2.35Y-4.05
X2.4Y-1.9
X2.4Y-2.65
X2.4Y-3.4
X2.4Y-4.15
X2.85Y-1.9
X2.85Y-2.65
X2.85Y-3.4
X2.85Y-4.15
X2.9Y-1.8
X2.9Y-2.55
X2.9Y-3.3
X2.9Y-4.05
X3.1Y-1.8
X3.1Y-2.55
X3.1Y-3.3
X3.1Y-4.05
X3.15Y-1.9
X3.15Y-2.65
X3.15Y-3.4
X3.15Y-4.15
X3.6Y-1.6
X3.6Y-2.35
X3.6Y-3.1
X3.6Y-3.85
X3.6Y-4.6
X3.65Y-1.5
X3.65Y-2.25
X3.65Y-3.
X3.65Y-3.75
X3.65Y-4.5
X3.85Y-1.5
X3.85Y-2.25
X3.85Y-3.
X3.85Y-3.75
X3.85Y-4.5
X3.9Y-1.6
X3.9Y-2.35
X3.9Y-3.1
X3.9Y-3.85
X3.9Y-4.6
X4.35Y-1.4
X4.35Y-2.15
X4.35Y-2.9
X4.35Y-3.65
X4.35Y-4.4
X4.4Y-1.3
X4.4Y-2.05
X4.4Y-2.8
X4.4Y-3.55
X4.4Y-4.3
X4.6Y-1.3
X4.6Y-2.05
X4.6Y-2.8
X4.6Y-3.55
X4.6Y-4.3
X4.65Y-1.4
X4.65Y-2.15
X4.65Y-2.9
X4.65Y-3.65
X4.65Y-4.4
X5.1Y-1.6
X5.1Y-2.35
X5.1Y-3.1
X5.1Y-3.85
X5.1Y-4.6
X5.15Y-1.5
X5.15Y-2.25
X5.15Y-3.
X5.15Y-3.75
X5.15Y-4.5
X5.35Y-1.5
X5.35Y-2.25
X5.35Y-3.
X5.35Y-3.75
X5.35Y-4.5
X5.4Y-1.6
X5.4Y-2.35
X5.4Y-3.1
X5.4Y-3.85
X5.4Y-4.6
X5.85Y-1.4
X5.85Y-2.15
X5.85Y-2.9
X5.85Y-3.65
X5.85Y-4.4
X5.9Y-1.3
X5.9Y-2.05
X5.9Y-2.8
X5.9Y-3.55
X5.9Y-4.3
X6.1Y-1.3
X6.1Y-2.05
X6.1Y-2.8
X6.1Y-3.55
X6.1Y-4.3
X6.15Y-1.4
X6.15Y-2.15
X6.15Y-2.9
X6.15Y-3.65
X6.15Y-4.4
X6.6Y-1.4
X6.6Y-4.4
X6.65Y-1.3
X6.65Y-4.3
X6.85Y-1.3
X6.85Y-2.2875
X6.85Y-2.5875
X6.85Y-3.4125
X6.85Y-3.7125
X6.85Y-4.3
X6.9Y-1.4
X6.9Y-4.4
X6.95Y-2.3375
X6.95Y-2.5375
X6.95Y-3.4625
X6.95Y-3.6625
T2
X3.0341Y-1.4585G85X3.0284Y-1.4335
G05
X3.3316Y-1.3909G85X3.326Y-1.3659
G05
X7.044Y-1.8159G85X7.0696Y-1.8159
G05
X7.044Y-2.1211G85X7.0696Y-2.1211
G05
T3
X3.0726Y-1.6011G85X3.0678Y-1.58
G05
X3.3586Y-1.5361G85X3.3538Y-1.515
G05
X6.8963Y-1.8219G85X6.918Y-1.8219
G05
X6.8963Y-2.1152G85X6.918Y-2.1152
G05
T0
M30
