G04 #@! TF.FileFunction,Paste,Top*
%FSLAX46Y46*%
G04 Gerber Fmt 4.6, Leading zero omitted, Abs format (unit mm)*
G04 Created by KiCad (PCBNEW 4.0.7+dfsg1-1~bpo9+1) date Sat May 26 14:22:04 2018*
%MOMM*%
%LPD*%
G01*
G04 APERTURE LIST*
%ADD10C,0.100000*%
%ADD11R,0.550000X1.500000*%
%ADD12R,1.500000X0.550000*%
%ADD13R,1.560000X0.650000*%
%ADD14R,0.845000X1.000000*%
%ADD15R,2.400000X3.325000*%
%ADD16R,1.000000X0.845000*%
%ADD17R,1.300000X0.450000*%
%ADD18R,1.360000X1.440000*%
%ADD19R,1.200000X0.900000*%
G04 APERTURE END LIST*
D10*
G36*
X82968926Y-38652292D02*
X83256939Y-39919986D01*
X82818122Y-40019682D01*
X82530109Y-38751988D01*
X82968926Y-38652292D01*
X82968926Y-38652292D01*
G37*
G36*
X82335079Y-38796298D02*
X82623092Y-40063992D01*
X82184275Y-40163688D01*
X81896262Y-38895994D01*
X82335079Y-38796298D01*
X82335079Y-38796298D01*
G37*
G36*
X81701232Y-38940305D02*
X81989245Y-40207999D01*
X81550428Y-40307695D01*
X81262415Y-39040001D01*
X81701232Y-38940305D01*
X81701232Y-38940305D01*
G37*
G36*
X81067385Y-39084311D02*
X81355398Y-40352005D01*
X80916581Y-40451701D01*
X80628568Y-39184007D01*
X81067385Y-39084311D01*
X81067385Y-39084311D01*
G37*
G36*
X80433538Y-39228318D02*
X80721551Y-40496012D01*
X80282734Y-40595708D01*
X79994721Y-39328014D01*
X80433538Y-39228318D01*
X80433538Y-39228318D01*
G37*
D11*
X163005000Y-81900000D03*
X163805000Y-81900000D03*
X164605000Y-81900000D03*
X165405000Y-81900000D03*
X166205000Y-81900000D03*
X167005000Y-81900000D03*
X167805000Y-81900000D03*
X168605000Y-81900000D03*
X169405000Y-81900000D03*
X170205000Y-81900000D03*
X171005000Y-81900000D03*
D12*
X172705000Y-80200000D03*
X172705000Y-79400000D03*
X172705000Y-78600000D03*
X172705000Y-77800000D03*
X172705000Y-77000000D03*
X172705000Y-76200000D03*
X172705000Y-75400000D03*
X172705000Y-74600000D03*
X172705000Y-73800000D03*
X172705000Y-73000000D03*
X172705000Y-72200000D03*
D11*
X171005000Y-70500000D03*
X170205000Y-70500000D03*
X169405000Y-70500000D03*
X168605000Y-70500000D03*
X167805000Y-70500000D03*
X167005000Y-70500000D03*
X166205000Y-70500000D03*
X165405000Y-70500000D03*
X164605000Y-70500000D03*
X163805000Y-70500000D03*
X163005000Y-70500000D03*
D12*
X161305000Y-72200000D03*
X161305000Y-73000000D03*
X161305000Y-73800000D03*
X161305000Y-74600000D03*
X161305000Y-75400000D03*
X161305000Y-76200000D03*
X161305000Y-77000000D03*
X161305000Y-77800000D03*
X161305000Y-78600000D03*
X161305000Y-79400000D03*
X161305000Y-80200000D03*
D13*
X171530000Y-51115000D03*
X171530000Y-50165000D03*
X171530000Y-49215000D03*
X168830000Y-49215000D03*
X168830000Y-51115000D03*
X168830000Y-50165000D03*
D14*
X168602500Y-53340000D03*
X166677500Y-53340000D03*
X84762500Y-43180000D03*
X86687500Y-43180000D03*
D13*
X101520000Y-32705000D03*
X101520000Y-33655000D03*
X101520000Y-34605000D03*
X104220000Y-34605000D03*
X104220000Y-32705000D03*
X104220000Y-33655000D03*
D15*
X177165000Y-73437500D03*
X177165000Y-78962500D03*
D16*
X160655000Y-51742500D03*
X160655000Y-53667500D03*
X163195000Y-51742500D03*
X163195000Y-53667500D03*
X160655000Y-68272500D03*
X160655000Y-66347500D03*
D14*
X134292500Y-31750000D03*
X136217500Y-31750000D03*
X134292500Y-34290000D03*
X136217500Y-34290000D03*
X177165000Y-82550000D03*
X175240000Y-82550000D03*
X177165000Y-69850000D03*
X175240000Y-69850000D03*
D17*
X175392000Y-51300000D03*
X175392000Y-50650000D03*
X175392000Y-50000000D03*
X175392000Y-49350000D03*
X175392000Y-48700000D03*
D14*
X168602500Y-46990000D03*
X166677500Y-46990000D03*
D18*
X179705000Y-100670000D03*
X179705000Y-105070000D03*
D19*
X66675000Y-52450000D03*
X66675000Y-49150000D03*
X85725000Y-52450000D03*
X85725000Y-49150000D03*
X104775000Y-44830000D03*
X104775000Y-41530000D03*
X123825000Y-39750000D03*
X123825000Y-36450000D03*
X142875000Y-44830000D03*
X142875000Y-41530000D03*
X160655000Y-39750000D03*
X160655000Y-36450000D03*
X163195000Y-39750000D03*
X163195000Y-36450000D03*
X66675000Y-71500000D03*
X66675000Y-68200000D03*
X85725000Y-71500000D03*
X85725000Y-68200000D03*
X104775000Y-63880000D03*
X104775000Y-60580000D03*
X123825000Y-58800000D03*
X123825000Y-55500000D03*
X142875000Y-63880000D03*
X142875000Y-60580000D03*
X160655000Y-58800000D03*
X160655000Y-55500000D03*
X163195000Y-58800000D03*
X163195000Y-55500000D03*
X66675000Y-90550000D03*
X66675000Y-87250000D03*
X85725000Y-90550000D03*
X85725000Y-87250000D03*
X104775000Y-82930000D03*
X104775000Y-79630000D03*
X123825000Y-77850000D03*
X123825000Y-74550000D03*
X141605000Y-80390000D03*
X141605000Y-77090000D03*
X144145000Y-80390000D03*
X144145000Y-77090000D03*
X66675000Y-109600000D03*
X66675000Y-106300000D03*
X85725000Y-109600000D03*
X85725000Y-106300000D03*
X104775000Y-101980000D03*
X104775000Y-98680000D03*
X123825000Y-96900000D03*
X123825000Y-93600000D03*
X142875000Y-101980000D03*
X142875000Y-98680000D03*
X161925000Y-96900000D03*
X161925000Y-93600000D03*
X161925000Y-89280000D03*
X161925000Y-85980000D03*
X104775000Y-121030000D03*
X104775000Y-117730000D03*
X123825000Y-115950000D03*
X123825000Y-112650000D03*
X142875000Y-121030000D03*
X142875000Y-117730000D03*
X160655000Y-115950000D03*
X160655000Y-112650000D03*
X163195000Y-115950000D03*
X163195000Y-112650000D03*
M02*
