G04 #@! TF.FileFunction,Legend,Top*
%FSLAX46Y46*%
G04 Gerber Fmt 4.6, Leading zero omitted, Abs format (unit mm)*
G04 Created by KiCad (PCBNEW 4.0.7+dfsg1-1~bpo9+1) date Sat May 26 14:22:04 2018*
%MOMM*%
%LPD*%
G01*
G04 APERTURE LIST*
%ADD10C,0.100000*%
%ADD11C,0.150000*%
%ADD12C,0.300000*%
%ADD13C,0.120000*%
%ADD14C,2.600000*%
%ADD15C,4.400000*%
%ADD16C,2.100000*%
%ADD17R,2.100000X2.100000*%
%ADD18O,2.100000X2.100000*%
%ADD19C,1.850000*%
%ADD20C,1.550000*%
%ADD21C,1.200000*%
%ADD22R,0.950000X1.900000*%
%ADD23R,1.900000X0.950000*%
%ADD24R,1.960000X1.050000*%
%ADD25R,1.245000X1.400000*%
%ADD26R,2.800000X3.725000*%
%ADD27R,1.400000X1.245000*%
%ADD28R,1.700000X0.850000*%
%ADD29O,2.400000X1.850000*%
%ADD30O,2.200000X1.550000*%
%ADD31O,1.200000X1.200000*%
%ADD32R,2.100000X2.200000*%
%ADD33R,1.600000X1.300000*%
G04 APERTURE END LIST*
D10*
D11*
X144859286Y-57237381D02*
X144383095Y-57237381D01*
X144335476Y-57713571D01*
X144383095Y-57665952D01*
X144478333Y-57618333D01*
X144716429Y-57618333D01*
X144811667Y-57665952D01*
X144859286Y-57713571D01*
X144906905Y-57808810D01*
X144906905Y-58046905D01*
X144859286Y-58142143D01*
X144811667Y-58189762D01*
X144716429Y-58237381D01*
X144478333Y-58237381D01*
X144383095Y-58189762D01*
X144335476Y-58142143D01*
X145192619Y-57237381D02*
X145525952Y-58237381D01*
X145859286Y-57237381D01*
X144240238Y-54697381D02*
X144811667Y-54697381D01*
X144525952Y-55697381D02*
X144525952Y-54697381D01*
X145049762Y-54697381D02*
X145716429Y-55697381D01*
X145716429Y-54697381D02*
X145049762Y-55697381D01*
X144954524Y-53157381D02*
X144621190Y-52681190D01*
X144383095Y-53157381D02*
X144383095Y-52157381D01*
X144764048Y-52157381D01*
X144859286Y-52205000D01*
X144906905Y-52252619D01*
X144954524Y-52347857D01*
X144954524Y-52490714D01*
X144906905Y-52585952D01*
X144859286Y-52633571D01*
X144764048Y-52681190D01*
X144383095Y-52681190D01*
X145287857Y-52157381D02*
X145954524Y-53157381D01*
X145954524Y-52157381D02*
X145287857Y-53157381D01*
X144954524Y-50617381D02*
X144621190Y-50141190D01*
X144383095Y-50617381D02*
X144383095Y-49617381D01*
X144764048Y-49617381D01*
X144859286Y-49665000D01*
X144906905Y-49712619D01*
X144954524Y-49807857D01*
X144954524Y-49950714D01*
X144906905Y-50045952D01*
X144859286Y-50093571D01*
X144764048Y-50141190D01*
X144383095Y-50141190D01*
X145335476Y-50569762D02*
X145478333Y-50617381D01*
X145716429Y-50617381D01*
X145811667Y-50569762D01*
X145859286Y-50522143D01*
X145906905Y-50426905D01*
X145906905Y-50331667D01*
X145859286Y-50236429D01*
X145811667Y-50188810D01*
X145716429Y-50141190D01*
X145525952Y-50093571D01*
X145430714Y-50045952D01*
X145383095Y-49998333D01*
X145335476Y-49903095D01*
X145335476Y-49807857D01*
X145383095Y-49712619D01*
X145430714Y-49665000D01*
X145525952Y-49617381D01*
X145764048Y-49617381D01*
X145906905Y-49665000D01*
X146192619Y-49617381D02*
X146764048Y-49617381D01*
X146478333Y-50617381D02*
X146478333Y-49617381D01*
X144906905Y-47125000D02*
X144811667Y-47077381D01*
X144668810Y-47077381D01*
X144525952Y-47125000D01*
X144430714Y-47220238D01*
X144383095Y-47315476D01*
X144335476Y-47505952D01*
X144335476Y-47648810D01*
X144383095Y-47839286D01*
X144430714Y-47934524D01*
X144525952Y-48029762D01*
X144668810Y-48077381D01*
X144764048Y-48077381D01*
X144906905Y-48029762D01*
X144954524Y-47982143D01*
X144954524Y-47648810D01*
X144764048Y-47648810D01*
X145383095Y-48077381D02*
X145383095Y-47077381D01*
X145954524Y-48077381D01*
X145954524Y-47077381D01*
X146430714Y-48077381D02*
X146430714Y-47077381D01*
X146668809Y-47077381D01*
X146811667Y-47125000D01*
X146906905Y-47220238D01*
X146954524Y-47315476D01*
X147002143Y-47505952D01*
X147002143Y-47648810D01*
X146954524Y-47839286D01*
X146906905Y-47934524D01*
X146811667Y-48029762D01*
X146668809Y-48077381D01*
X146430714Y-48077381D01*
X121102381Y-124856905D02*
X120102381Y-124856905D01*
X120816667Y-124523571D01*
X120102381Y-124190238D01*
X121102381Y-124190238D01*
X121102381Y-123714048D02*
X120102381Y-123714048D01*
X121054762Y-123285477D02*
X121102381Y-123142620D01*
X121102381Y-122904524D01*
X121054762Y-122809286D01*
X121007143Y-122761667D01*
X120911905Y-122714048D01*
X120816667Y-122714048D01*
X120721429Y-122761667D01*
X120673810Y-122809286D01*
X120626190Y-122904524D01*
X120578571Y-123095001D01*
X120530952Y-123190239D01*
X120483333Y-123237858D01*
X120388095Y-123285477D01*
X120292857Y-123285477D01*
X120197619Y-123237858D01*
X120150000Y-123190239D01*
X120102381Y-123095001D01*
X120102381Y-122856905D01*
X120150000Y-122714048D01*
X120102381Y-122095001D02*
X120102381Y-121904524D01*
X120150000Y-121809286D01*
X120245238Y-121714048D01*
X120435714Y-121666429D01*
X120769048Y-121666429D01*
X120959524Y-121714048D01*
X121054762Y-121809286D01*
X121102381Y-121904524D01*
X121102381Y-122095001D01*
X121054762Y-122190239D01*
X120959524Y-122285477D01*
X120769048Y-122333096D01*
X120435714Y-122333096D01*
X120245238Y-122285477D01*
X120150000Y-122190239D01*
X120102381Y-122095001D01*
X117562381Y-124380714D02*
X117562381Y-124856905D01*
X118038571Y-124904524D01*
X117990952Y-124856905D01*
X117943333Y-124761667D01*
X117943333Y-124523571D01*
X117990952Y-124428333D01*
X118038571Y-124380714D01*
X118133810Y-124333095D01*
X118371905Y-124333095D01*
X118467143Y-124380714D01*
X118514762Y-124428333D01*
X118562381Y-124523571D01*
X118562381Y-124761667D01*
X118514762Y-124856905D01*
X118467143Y-124904524D01*
X117562381Y-124047381D02*
X118562381Y-123714048D01*
X117562381Y-123380714D01*
X115974762Y-124904524D02*
X116022381Y-124761667D01*
X116022381Y-124523571D01*
X115974762Y-124428333D01*
X115927143Y-124380714D01*
X115831905Y-124333095D01*
X115736667Y-124333095D01*
X115641429Y-124380714D01*
X115593810Y-124428333D01*
X115546190Y-124523571D01*
X115498571Y-124714048D01*
X115450952Y-124809286D01*
X115403333Y-124856905D01*
X115308095Y-124904524D01*
X115212857Y-124904524D01*
X115117619Y-124856905D01*
X115070000Y-124809286D01*
X115022381Y-124714048D01*
X115022381Y-124475952D01*
X115070000Y-124333095D01*
X115927143Y-123333095D02*
X115974762Y-123380714D01*
X116022381Y-123523571D01*
X116022381Y-123618809D01*
X115974762Y-123761667D01*
X115879524Y-123856905D01*
X115784286Y-123904524D01*
X115593810Y-123952143D01*
X115450952Y-123952143D01*
X115260476Y-123904524D01*
X115165238Y-123856905D01*
X115070000Y-123761667D01*
X115022381Y-123618809D01*
X115022381Y-123523571D01*
X115070000Y-123380714D01*
X115117619Y-123333095D01*
X116022381Y-122904524D02*
X115022381Y-122904524D01*
X116022381Y-122333095D02*
X115450952Y-122761667D01*
X115022381Y-122333095D02*
X115593810Y-122904524D01*
X113482381Y-124856905D02*
X112482381Y-124856905D01*
X113196667Y-124523571D01*
X112482381Y-124190238D01*
X113482381Y-124190238D01*
X112482381Y-123523572D02*
X112482381Y-123333095D01*
X112530000Y-123237857D01*
X112625238Y-123142619D01*
X112815714Y-123095000D01*
X113149048Y-123095000D01*
X113339524Y-123142619D01*
X113434762Y-123237857D01*
X113482381Y-123333095D01*
X113482381Y-123523572D01*
X113434762Y-123618810D01*
X113339524Y-123714048D01*
X113149048Y-123761667D01*
X112815714Y-123761667D01*
X112625238Y-123714048D01*
X112530000Y-123618810D01*
X112482381Y-123523572D01*
X113434762Y-122714048D02*
X113482381Y-122571191D01*
X113482381Y-122333095D01*
X113434762Y-122237857D01*
X113387143Y-122190238D01*
X113291905Y-122142619D01*
X113196667Y-122142619D01*
X113101429Y-122190238D01*
X113053810Y-122237857D01*
X113006190Y-122333095D01*
X112958571Y-122523572D01*
X112910952Y-122618810D01*
X112863333Y-122666429D01*
X112768095Y-122714048D01*
X112672857Y-122714048D01*
X112577619Y-122666429D01*
X112530000Y-122618810D01*
X112482381Y-122523572D01*
X112482381Y-122285476D01*
X112530000Y-122142619D01*
X113482381Y-121714048D02*
X112482381Y-121714048D01*
X110942381Y-124285476D02*
X110466190Y-124618810D01*
X110942381Y-124856905D02*
X109942381Y-124856905D01*
X109942381Y-124475952D01*
X109990000Y-124380714D01*
X110037619Y-124333095D01*
X110132857Y-124285476D01*
X110275714Y-124285476D01*
X110370952Y-124333095D01*
X110418571Y-124380714D01*
X110466190Y-124475952D01*
X110466190Y-124856905D01*
X110894762Y-123904524D02*
X110942381Y-123761667D01*
X110942381Y-123523571D01*
X110894762Y-123428333D01*
X110847143Y-123380714D01*
X110751905Y-123333095D01*
X110656667Y-123333095D01*
X110561429Y-123380714D01*
X110513810Y-123428333D01*
X110466190Y-123523571D01*
X110418571Y-123714048D01*
X110370952Y-123809286D01*
X110323333Y-123856905D01*
X110228095Y-123904524D01*
X110132857Y-123904524D01*
X110037619Y-123856905D01*
X109990000Y-123809286D01*
X109942381Y-123714048D01*
X109942381Y-123475952D01*
X109990000Y-123333095D01*
X109942381Y-123047381D02*
X109942381Y-122475952D01*
X110942381Y-122761667D02*
X109942381Y-122761667D01*
X107450000Y-124333095D02*
X107402381Y-124428333D01*
X107402381Y-124571190D01*
X107450000Y-124714048D01*
X107545238Y-124809286D01*
X107640476Y-124856905D01*
X107830952Y-124904524D01*
X107973810Y-124904524D01*
X108164286Y-124856905D01*
X108259524Y-124809286D01*
X108354762Y-124714048D01*
X108402381Y-124571190D01*
X108402381Y-124475952D01*
X108354762Y-124333095D01*
X108307143Y-124285476D01*
X107973810Y-124285476D01*
X107973810Y-124475952D01*
X108402381Y-123856905D02*
X107402381Y-123856905D01*
X108402381Y-123285476D01*
X107402381Y-123285476D01*
X108402381Y-122809286D02*
X107402381Y-122809286D01*
X107402381Y-122571191D01*
X107450000Y-122428333D01*
X107545238Y-122333095D01*
X107640476Y-122285476D01*
X107830952Y-122237857D01*
X107973810Y-122237857D01*
X108164286Y-122285476D01*
X108259524Y-122333095D01*
X108354762Y-122428333D01*
X108402381Y-122571191D01*
X108402381Y-122809286D01*
D12*
X70830526Y-123100026D02*
X71274088Y-121667109D01*
X71649336Y-123353490D01*
X72092898Y-121920573D01*
X72331678Y-123564710D02*
X72627386Y-122609432D01*
X72775240Y-122131793D02*
X72685883Y-122178905D01*
X72732996Y-122268262D01*
X72822352Y-122221149D01*
X72775240Y-122131793D01*
X72732996Y-122268262D01*
X74438850Y-122796312D02*
X74528206Y-122749200D01*
X74685797Y-122723209D01*
X75026968Y-122828819D01*
X75142314Y-122939298D01*
X75189426Y-123028654D01*
X75215416Y-123186244D01*
X75173172Y-123322713D01*
X75041572Y-123506293D01*
X73969298Y-124071639D01*
X74856342Y-124346224D01*
X76186948Y-123187893D02*
X76323416Y-123230137D01*
X76438762Y-123340615D01*
X76485875Y-123429972D01*
X76511865Y-123587562D01*
X76495611Y-123881621D01*
X76390001Y-124222792D01*
X76237279Y-124474606D01*
X76126801Y-124589952D01*
X76037444Y-124637065D01*
X75879854Y-124663054D01*
X75743386Y-124620810D01*
X75628039Y-124510333D01*
X75580927Y-124420976D01*
X75554937Y-124263386D01*
X75571191Y-123969328D01*
X75676801Y-123628157D01*
X75829523Y-123376342D01*
X75940001Y-123260996D01*
X76029358Y-123213883D01*
X76186948Y-123187893D01*
X77585708Y-125191104D02*
X76766898Y-124937640D01*
X77176303Y-125064372D02*
X77619865Y-123631455D01*
X77420031Y-123793914D01*
X77241318Y-123888138D01*
X77083728Y-123914128D01*
X78657982Y-124625759D02*
X78542635Y-124515280D01*
X78495523Y-124425924D01*
X78469533Y-124268334D01*
X78490655Y-124200100D01*
X78601133Y-124084754D01*
X78690489Y-124037641D01*
X78848080Y-124011651D01*
X79121017Y-124096139D01*
X79236363Y-124206617D01*
X79283475Y-124295974D01*
X79309465Y-124453564D01*
X79288343Y-124521798D01*
X79177865Y-124637144D01*
X79088509Y-124684257D01*
X78930918Y-124710247D01*
X78657982Y-124625759D01*
X78500391Y-124651749D01*
X78411035Y-124698861D01*
X78300557Y-124814207D01*
X78216069Y-125087144D01*
X78242059Y-125244734D01*
X78289171Y-125334091D01*
X78404518Y-125444568D01*
X78677455Y-125529056D01*
X78835045Y-125503067D01*
X78924401Y-125455954D01*
X79034879Y-125340608D01*
X79119367Y-125067672D01*
X79093377Y-124910081D01*
X79046265Y-124820725D01*
X78930918Y-124710247D01*
X73111042Y-120544061D02*
X73226388Y-120654539D01*
X73499326Y-120739027D01*
X73656916Y-120713037D01*
X73767393Y-120597691D01*
X73788515Y-120529456D01*
X73762526Y-120371866D01*
X73647180Y-120261388D01*
X73442477Y-120198022D01*
X73327130Y-120087544D01*
X73301140Y-119929954D01*
X73322262Y-119861719D01*
X73432741Y-119746373D01*
X73590331Y-119720383D01*
X73795034Y-119783749D01*
X73910380Y-119894227D01*
X74613844Y-120037213D02*
X74170282Y-121470130D01*
X74592722Y-120105447D02*
X74750312Y-120079457D01*
X75023248Y-120163945D01*
X75138594Y-120274423D01*
X75185707Y-120363780D01*
X75211698Y-120521370D01*
X75084966Y-120930775D01*
X74974487Y-121046121D01*
X74885130Y-121093233D01*
X74727540Y-121119223D01*
X74454604Y-121034735D01*
X74339258Y-120924258D01*
X75819288Y-121457175D02*
X75703941Y-121346697D01*
X75677951Y-121189107D01*
X76058147Y-119960892D01*
X76365161Y-121626151D02*
X76660869Y-120670873D01*
X76808723Y-120193234D02*
X76719366Y-120240346D01*
X76766478Y-120329703D01*
X76855834Y-120282590D01*
X76808723Y-120193234D01*
X76766478Y-120329703D01*
X77138508Y-120818727D02*
X77684382Y-120987703D01*
X77491065Y-120404454D02*
X77110868Y-121632670D01*
X77136858Y-121790260D01*
X77252205Y-121900737D01*
X77388674Y-121942981D01*
X77957318Y-121072191D02*
X78503192Y-121241167D01*
X78309875Y-120657918D02*
X77929679Y-121886134D01*
X77955668Y-122043724D01*
X78071016Y-122154202D01*
X78207484Y-122196445D01*
X78844363Y-121346777D02*
X78889826Y-122407666D01*
X79526704Y-121557997D02*
X78889826Y-122407666D01*
X78647747Y-122706592D01*
X78558391Y-122753705D01*
X78400801Y-122779695D01*
D13*
X145400000Y-50150000D02*
X145400000Y-53150000D01*
X148400000Y-50150000D02*
X145400000Y-50150000D01*
X145400000Y-64150000D02*
X145400000Y-61150000D01*
X148400000Y-64150000D02*
X145400000Y-64150000D01*
X159400000Y-64150000D02*
X156400000Y-64150000D01*
X159400000Y-61150000D02*
X159400000Y-64150000D01*
X159400000Y-50150000D02*
X159400000Y-53150000D01*
X156400000Y-50150000D02*
X159400000Y-50150000D01*
X145400000Y-69200000D02*
X145400000Y-72200000D01*
X148400000Y-69200000D02*
X145400000Y-69200000D01*
X145400000Y-83200000D02*
X145400000Y-80200000D01*
X148400000Y-83200000D02*
X145400000Y-83200000D01*
X159400000Y-83200000D02*
X156400000Y-83200000D01*
X159400000Y-80200000D02*
X159400000Y-83200000D01*
X159400000Y-69200000D02*
X159400000Y-72200000D01*
X156400000Y-69200000D02*
X159400000Y-69200000D01*
X88250000Y-36180000D02*
X88250000Y-39180000D01*
X91250000Y-36180000D02*
X88250000Y-36180000D01*
X88250000Y-50180000D02*
X88250000Y-47180000D01*
X91250000Y-50180000D02*
X88250000Y-50180000D01*
X102250000Y-50180000D02*
X99250000Y-50180000D01*
X102250000Y-47180000D02*
X102250000Y-50180000D01*
X102250000Y-36180000D02*
X102250000Y-39180000D01*
X99250000Y-36180000D02*
X102250000Y-36180000D01*
X85395764Y-37485637D02*
X85085596Y-36120428D01*
X84553880Y-33780069D02*
X84520648Y-33633797D01*
X84520648Y-33633797D02*
X84228103Y-33700261D01*
X84228103Y-33700261D02*
X84128406Y-33261444D01*
X76619756Y-34967368D02*
X76719453Y-35406185D01*
X76719453Y-35406185D02*
X76426908Y-35472649D01*
X76426908Y-35472649D02*
X76460140Y-35618922D01*
X76991857Y-37959280D02*
X77302025Y-39324489D01*
X82879048Y-40287848D02*
X83586031Y-40127226D01*
X83586031Y-40127226D02*
X83491873Y-39712787D01*
X83491873Y-39712787D02*
X84467023Y-39491239D01*
X79981336Y-40510362D02*
X79006186Y-40731910D01*
D11*
X161830000Y-81375000D02*
X162405000Y-81375000D01*
X161830000Y-71025000D02*
X162505000Y-71025000D01*
X172180000Y-71025000D02*
X171505000Y-71025000D01*
X172180000Y-81375000D02*
X171505000Y-81375000D01*
X161830000Y-81375000D02*
X161830000Y-80700000D01*
X172180000Y-81375000D02*
X172180000Y-80700000D01*
X172180000Y-71025000D02*
X172180000Y-71700000D01*
X161830000Y-71025000D02*
X161830000Y-71700000D01*
X162405000Y-81375000D02*
X162405000Y-82650000D01*
D13*
X171080000Y-48555000D02*
X169280000Y-48555000D01*
X169280000Y-51775000D02*
X172230000Y-51775000D01*
X167860000Y-53850000D02*
X167420000Y-53850000D01*
X167860000Y-52830000D02*
X167420000Y-52830000D01*
X85505000Y-42670000D02*
X85945000Y-42670000D01*
X85505000Y-43690000D02*
X85945000Y-43690000D01*
X101970000Y-35265000D02*
X103770000Y-35265000D01*
X103770000Y-32045000D02*
X100820000Y-32045000D01*
X69200000Y-43800000D02*
X69200000Y-46800000D01*
X72200000Y-43800000D02*
X69200000Y-43800000D01*
X69200000Y-57800000D02*
X69200000Y-54800000D01*
X72200000Y-57800000D02*
X69200000Y-57800000D01*
X83200000Y-57800000D02*
X80200000Y-57800000D01*
X83200000Y-54800000D02*
X83200000Y-57800000D01*
X83200000Y-43800000D02*
X83200000Y-46800000D01*
X80200000Y-43800000D02*
X83200000Y-43800000D01*
X126350000Y-36180000D02*
X126350000Y-39180000D01*
X129350000Y-36180000D02*
X126350000Y-36180000D01*
X126350000Y-50180000D02*
X126350000Y-47180000D01*
X129350000Y-50180000D02*
X126350000Y-50180000D01*
X140350000Y-50180000D02*
X137350000Y-50180000D01*
X140350000Y-47180000D02*
X140350000Y-50180000D01*
X140350000Y-36180000D02*
X140350000Y-39180000D01*
X137350000Y-36180000D02*
X140350000Y-36180000D01*
X145400000Y-31100000D02*
X145400000Y-34100000D01*
X148400000Y-31100000D02*
X145400000Y-31100000D01*
X145400000Y-45100000D02*
X145400000Y-42100000D01*
X148400000Y-45100000D02*
X145400000Y-45100000D01*
X159400000Y-45100000D02*
X156400000Y-45100000D01*
X159400000Y-42100000D02*
X159400000Y-45100000D01*
X159400000Y-31100000D02*
X159400000Y-34100000D01*
X156400000Y-31100000D02*
X159400000Y-31100000D01*
X164450000Y-31100000D02*
X164450000Y-34100000D01*
X167450000Y-31100000D02*
X164450000Y-31100000D01*
X164450000Y-45100000D02*
X164450000Y-42100000D01*
X167450000Y-45100000D02*
X164450000Y-45100000D01*
X178450000Y-45100000D02*
X175450000Y-45100000D01*
X178450000Y-42100000D02*
X178450000Y-45100000D01*
X178450000Y-31100000D02*
X178450000Y-34100000D01*
X175450000Y-31100000D02*
X178450000Y-31100000D01*
X69200000Y-62850000D02*
X69200000Y-65850000D01*
X72200000Y-62850000D02*
X69200000Y-62850000D01*
X69200000Y-76850000D02*
X69200000Y-73850000D01*
X72200000Y-76850000D02*
X69200000Y-76850000D01*
X83200000Y-76850000D02*
X80200000Y-76850000D01*
X83200000Y-73850000D02*
X83200000Y-76850000D01*
X83200000Y-62850000D02*
X83200000Y-65850000D01*
X80200000Y-62850000D02*
X83200000Y-62850000D01*
X88250000Y-55230000D02*
X88250000Y-58230000D01*
X91250000Y-55230000D02*
X88250000Y-55230000D01*
X88250000Y-69230000D02*
X88250000Y-66230000D01*
X91250000Y-69230000D02*
X88250000Y-69230000D01*
X102250000Y-69230000D02*
X99250000Y-69230000D01*
X102250000Y-66230000D02*
X102250000Y-69230000D01*
X102250000Y-55230000D02*
X102250000Y-58230000D01*
X99250000Y-55230000D02*
X102250000Y-55230000D01*
X107300000Y-50150000D02*
X107300000Y-53150000D01*
X110300000Y-50150000D02*
X107300000Y-50150000D01*
X107300000Y-64150000D02*
X107300000Y-61150000D01*
X110300000Y-64150000D02*
X107300000Y-64150000D01*
X121300000Y-64150000D02*
X118300000Y-64150000D01*
X121300000Y-61150000D02*
X121300000Y-64150000D01*
X121300000Y-50150000D02*
X121300000Y-53150000D01*
X118300000Y-50150000D02*
X121300000Y-50150000D01*
X126350000Y-55230000D02*
X126350000Y-58230000D01*
X129350000Y-55230000D02*
X126350000Y-55230000D01*
X126350000Y-69230000D02*
X126350000Y-66230000D01*
X129350000Y-69230000D02*
X126350000Y-69230000D01*
X140350000Y-69230000D02*
X137350000Y-69230000D01*
X140350000Y-66230000D02*
X140350000Y-69230000D01*
X140350000Y-55230000D02*
X140350000Y-58230000D01*
X137350000Y-55230000D02*
X140350000Y-55230000D01*
X69200000Y-81900000D02*
X69200000Y-84900000D01*
X72200000Y-81900000D02*
X69200000Y-81900000D01*
X69200000Y-95900000D02*
X69200000Y-92900000D01*
X72200000Y-95900000D02*
X69200000Y-95900000D01*
X83200000Y-95900000D02*
X80200000Y-95900000D01*
X83200000Y-92900000D02*
X83200000Y-95900000D01*
X83200000Y-81900000D02*
X83200000Y-84900000D01*
X80200000Y-81900000D02*
X83200000Y-81900000D01*
X88250000Y-74280000D02*
X88250000Y-77280000D01*
X91250000Y-74280000D02*
X88250000Y-74280000D01*
X88250000Y-88280000D02*
X88250000Y-85280000D01*
X91250000Y-88280000D02*
X88250000Y-88280000D01*
X102250000Y-88280000D02*
X99250000Y-88280000D01*
X102250000Y-85280000D02*
X102250000Y-88280000D01*
X102250000Y-74280000D02*
X102250000Y-77280000D01*
X99250000Y-74280000D02*
X102250000Y-74280000D01*
X107300000Y-69200000D02*
X107300000Y-72200000D01*
X110300000Y-69200000D02*
X107300000Y-69200000D01*
X107300000Y-83200000D02*
X107300000Y-80200000D01*
X110300000Y-83200000D02*
X107300000Y-83200000D01*
X121300000Y-83200000D02*
X118300000Y-83200000D01*
X121300000Y-80200000D02*
X121300000Y-83200000D01*
X121300000Y-69200000D02*
X121300000Y-72200000D01*
X118300000Y-69200000D02*
X121300000Y-69200000D01*
X126350000Y-74280000D02*
X126350000Y-77280000D01*
X129350000Y-74280000D02*
X126350000Y-74280000D01*
X126350000Y-88280000D02*
X126350000Y-85280000D01*
X129350000Y-88280000D02*
X126350000Y-88280000D01*
X140350000Y-88280000D02*
X137350000Y-88280000D01*
X140350000Y-85280000D02*
X140350000Y-88280000D01*
X140350000Y-74280000D02*
X140350000Y-77280000D01*
X137350000Y-74280000D02*
X140350000Y-74280000D01*
X69200000Y-100950000D02*
X69200000Y-103950000D01*
X72200000Y-100950000D02*
X69200000Y-100950000D01*
X69200000Y-114950000D02*
X69200000Y-111950000D01*
X72200000Y-114950000D02*
X69200000Y-114950000D01*
X83200000Y-114950000D02*
X80200000Y-114950000D01*
X83200000Y-111950000D02*
X83200000Y-114950000D01*
X83200000Y-100950000D02*
X83200000Y-103950000D01*
X80200000Y-100950000D02*
X83200000Y-100950000D01*
X88250000Y-93330000D02*
X88250000Y-96330000D01*
X91250000Y-93330000D02*
X88250000Y-93330000D01*
X88250000Y-107330000D02*
X88250000Y-104330000D01*
X91250000Y-107330000D02*
X88250000Y-107330000D01*
X102250000Y-107330000D02*
X99250000Y-107330000D01*
X102250000Y-104330000D02*
X102250000Y-107330000D01*
X102250000Y-93330000D02*
X102250000Y-96330000D01*
X99250000Y-93330000D02*
X102250000Y-93330000D01*
X107300000Y-88250000D02*
X107300000Y-91250000D01*
X110300000Y-88250000D02*
X107300000Y-88250000D01*
X107300000Y-102250000D02*
X107300000Y-99250000D01*
X110300000Y-102250000D02*
X107300000Y-102250000D01*
X121300000Y-102250000D02*
X118300000Y-102250000D01*
X121300000Y-99250000D02*
X121300000Y-102250000D01*
X121300000Y-88250000D02*
X121300000Y-91250000D01*
X118300000Y-88250000D02*
X121300000Y-88250000D01*
X126350000Y-93330000D02*
X126350000Y-96330000D01*
X129350000Y-93330000D02*
X126350000Y-93330000D01*
X126350000Y-107330000D02*
X126350000Y-104330000D01*
X129350000Y-107330000D02*
X126350000Y-107330000D01*
X140350000Y-107330000D02*
X137350000Y-107330000D01*
X140350000Y-104330000D02*
X140350000Y-107330000D01*
X140350000Y-93330000D02*
X140350000Y-96330000D01*
X137350000Y-93330000D02*
X140350000Y-93330000D01*
X145400000Y-88250000D02*
X145400000Y-91250000D01*
X148400000Y-88250000D02*
X145400000Y-88250000D01*
X145400000Y-102250000D02*
X145400000Y-99250000D01*
X148400000Y-102250000D02*
X145400000Y-102250000D01*
X159400000Y-102250000D02*
X156400000Y-102250000D01*
X159400000Y-99250000D02*
X159400000Y-102250000D01*
X159400000Y-88250000D02*
X159400000Y-91250000D01*
X156400000Y-88250000D02*
X159400000Y-88250000D01*
X88250000Y-112380000D02*
X88250000Y-115380000D01*
X91250000Y-112380000D02*
X88250000Y-112380000D01*
X88250000Y-126380000D02*
X88250000Y-123380000D01*
X91250000Y-126380000D02*
X88250000Y-126380000D01*
X102250000Y-126380000D02*
X99250000Y-126380000D01*
X102250000Y-123380000D02*
X102250000Y-126380000D01*
X102250000Y-112380000D02*
X102250000Y-115380000D01*
X99250000Y-112380000D02*
X102250000Y-112380000D01*
X107300000Y-107300000D02*
X107300000Y-110300000D01*
X110300000Y-107300000D02*
X107300000Y-107300000D01*
X107300000Y-121300000D02*
X107300000Y-118300000D01*
X110300000Y-121300000D02*
X107300000Y-121300000D01*
X121300000Y-121300000D02*
X118300000Y-121300000D01*
X121300000Y-118300000D02*
X121300000Y-121300000D01*
X121300000Y-107300000D02*
X121300000Y-110300000D01*
X118300000Y-107300000D02*
X121300000Y-107300000D01*
X126350000Y-112380000D02*
X126350000Y-115380000D01*
X129350000Y-112380000D02*
X126350000Y-112380000D01*
X126350000Y-126380000D02*
X126350000Y-123380000D01*
X129350000Y-126380000D02*
X126350000Y-126380000D01*
X140350000Y-126380000D02*
X137350000Y-126380000D01*
X140350000Y-123380000D02*
X140350000Y-126380000D01*
X140350000Y-112380000D02*
X140350000Y-115380000D01*
X137350000Y-112380000D02*
X140350000Y-112380000D01*
X145400000Y-107300000D02*
X145400000Y-110300000D01*
X148400000Y-107300000D02*
X145400000Y-107300000D01*
X145400000Y-121300000D02*
X145400000Y-118300000D01*
X148400000Y-121300000D02*
X145400000Y-121300000D01*
X159400000Y-121300000D02*
X156400000Y-121300000D01*
X159400000Y-118300000D02*
X159400000Y-121300000D01*
X159400000Y-107300000D02*
X159400000Y-110300000D01*
X156400000Y-107300000D02*
X159400000Y-107300000D01*
X164450000Y-107300000D02*
X164450000Y-110300000D01*
X167450000Y-107300000D02*
X164450000Y-107300000D01*
X164450000Y-121300000D02*
X164450000Y-118300000D01*
X167450000Y-121300000D02*
X164450000Y-121300000D01*
X178450000Y-121300000D02*
X175450000Y-121300000D01*
X178450000Y-118300000D02*
X178450000Y-121300000D01*
X178450000Y-107300000D02*
X178450000Y-110300000D01*
X175450000Y-107300000D02*
X178450000Y-107300000D01*
X50150000Y-43800000D02*
X50150000Y-46800000D01*
X53150000Y-43800000D02*
X50150000Y-43800000D01*
X50150000Y-57800000D02*
X50150000Y-54800000D01*
X53150000Y-57800000D02*
X50150000Y-57800000D01*
X64150000Y-57800000D02*
X61150000Y-57800000D01*
X64150000Y-54800000D02*
X64150000Y-57800000D01*
X64150000Y-43800000D02*
X64150000Y-46800000D01*
X61150000Y-43800000D02*
X64150000Y-43800000D01*
X50150000Y-62850000D02*
X50150000Y-65850000D01*
X53150000Y-62850000D02*
X50150000Y-62850000D01*
X50150000Y-76850000D02*
X50150000Y-73850000D01*
X53150000Y-76850000D02*
X50150000Y-76850000D01*
X64150000Y-76850000D02*
X61150000Y-76850000D01*
X64150000Y-73850000D02*
X64150000Y-76850000D01*
X64150000Y-62850000D02*
X64150000Y-65850000D01*
X61150000Y-62850000D02*
X64150000Y-62850000D01*
X50150000Y-81900000D02*
X50150000Y-84900000D01*
X53150000Y-81900000D02*
X50150000Y-81900000D01*
X50150000Y-95900000D02*
X50150000Y-92900000D01*
X53150000Y-95900000D02*
X50150000Y-95900000D01*
X64150000Y-95900000D02*
X61150000Y-95900000D01*
X64150000Y-92900000D02*
X64150000Y-95900000D01*
X64150000Y-81900000D02*
X64150000Y-84900000D01*
X61150000Y-81900000D02*
X64150000Y-81900000D01*
X50150000Y-100950000D02*
X50150000Y-103950000D01*
X53150000Y-100950000D02*
X50150000Y-100950000D01*
X50150000Y-114950000D02*
X50150000Y-111950000D01*
X53150000Y-114950000D02*
X50150000Y-114950000D01*
X64150000Y-114950000D02*
X61150000Y-114950000D01*
X64150000Y-111950000D02*
X64150000Y-114950000D01*
X64150000Y-100950000D02*
X64150000Y-103950000D01*
X61150000Y-100950000D02*
X64150000Y-100950000D01*
X107300000Y-31100000D02*
X107300000Y-34100000D01*
X110300000Y-31100000D02*
X107300000Y-31100000D01*
X107300000Y-45100000D02*
X107300000Y-42100000D01*
X110300000Y-45100000D02*
X107300000Y-45100000D01*
X121300000Y-45100000D02*
X118300000Y-45100000D01*
X121300000Y-42100000D02*
X121300000Y-45100000D01*
X121300000Y-31100000D02*
X121300000Y-34100000D01*
X118300000Y-31100000D02*
X121300000Y-31100000D01*
X178965000Y-78900000D02*
X178965000Y-71575000D01*
X178965000Y-71575000D02*
X175365000Y-71575000D01*
X175365000Y-71575000D02*
X175365000Y-78900000D01*
X161165000Y-52485000D02*
X161165000Y-52925000D01*
X160145000Y-52485000D02*
X160145000Y-52925000D01*
X163705000Y-52485000D02*
X163705000Y-52925000D01*
X162685000Y-52485000D02*
X162685000Y-52925000D01*
X160145000Y-67530000D02*
X160145000Y-67090000D01*
X161165000Y-67530000D02*
X161165000Y-67090000D01*
X135035000Y-31240000D02*
X135475000Y-31240000D01*
X135035000Y-32260000D02*
X135475000Y-32260000D01*
X135035000Y-33780000D02*
X135475000Y-33780000D01*
X135035000Y-34800000D02*
X135475000Y-34800000D01*
X176422500Y-83060000D02*
X175982500Y-83060000D01*
X176422500Y-82040000D02*
X175982500Y-82040000D01*
X176422500Y-70360000D02*
X175982500Y-70360000D01*
X176422500Y-69340000D02*
X175982500Y-69340000D01*
X176642000Y-54150000D02*
X178042000Y-54150000D01*
X180442000Y-54150000D02*
X180592000Y-54150000D01*
X180592000Y-54150000D02*
X180592000Y-53850000D01*
X180592000Y-53850000D02*
X181042000Y-53850000D01*
X181042000Y-46150000D02*
X180592000Y-46150000D01*
X180592000Y-46150000D02*
X180592000Y-45850000D01*
X180592000Y-45850000D02*
X180442000Y-45850000D01*
X178042000Y-45850000D02*
X176642000Y-45850000D01*
X174467000Y-51075000D02*
X174467000Y-51800000D01*
X174467000Y-51800000D02*
X174892000Y-51800000D01*
X174892000Y-51800000D02*
X174892000Y-52800000D01*
X174892000Y-48200000D02*
X174892000Y-47200000D01*
X167860000Y-47500000D02*
X167420000Y-47500000D01*
X167860000Y-46480000D02*
X167420000Y-46480000D01*
D11*
X181255000Y-102020000D02*
X181255000Y-103720000D01*
X180955000Y-103720000D02*
X180955000Y-102020000D01*
X181255000Y-102020000D02*
X180955000Y-102020000D01*
X181655000Y-102420000D02*
X181255000Y-102020000D01*
X181655000Y-103320000D02*
X181655000Y-102420000D01*
X181255000Y-103720000D02*
X181655000Y-103320000D01*
X180955000Y-103720000D02*
X181255000Y-103720000D01*
X180955000Y-104370000D02*
X180955000Y-103720000D01*
X178455000Y-104520000D02*
X178755000Y-104520000D01*
X178455000Y-101270000D02*
X178755000Y-101270000D01*
X180955000Y-104370000D02*
X180655000Y-104370000D01*
X180955000Y-101370000D02*
X180655000Y-101370000D01*
X178455000Y-101270000D02*
X178455000Y-104520000D01*
X180955000Y-101370000D02*
X180955000Y-102020000D01*
D13*
X178450000Y-54912500D02*
X175450000Y-54912500D01*
X178450000Y-57912500D02*
X178450000Y-54912500D01*
X178450000Y-68912500D02*
X175450000Y-68912500D01*
X178450000Y-65912500D02*
X178450000Y-68912500D01*
X164450000Y-54912500D02*
X167450000Y-54912500D01*
X164450000Y-57912500D02*
X164450000Y-54912500D01*
X164450000Y-68912500D02*
X167450000Y-68912500D01*
X164450000Y-65912500D02*
X164450000Y-68912500D01*
X178450000Y-83487500D02*
X175450000Y-83487500D01*
X178450000Y-86487500D02*
X178450000Y-83487500D01*
X178450000Y-97487500D02*
X175450000Y-97487500D01*
X178450000Y-94487500D02*
X178450000Y-97487500D01*
X164450000Y-83487500D02*
X167450000Y-83487500D01*
X164450000Y-86487500D02*
X164450000Y-83487500D01*
X164450000Y-97487500D02*
X167450000Y-97487500D01*
X164450000Y-94487500D02*
X164450000Y-97487500D01*
X65675000Y-53050000D02*
X67675000Y-53050000D01*
X67675000Y-53050000D02*
X67675000Y-49150000D01*
X65675000Y-53050000D02*
X65675000Y-49150000D01*
X84725000Y-53050000D02*
X86725000Y-53050000D01*
X86725000Y-53050000D02*
X86725000Y-49150000D01*
X84725000Y-53050000D02*
X84725000Y-49150000D01*
X103775000Y-45430000D02*
X105775000Y-45430000D01*
X105775000Y-45430000D02*
X105775000Y-41530000D01*
X103775000Y-45430000D02*
X103775000Y-41530000D01*
X122825000Y-40350000D02*
X124825000Y-40350000D01*
X124825000Y-40350000D02*
X124825000Y-36450000D01*
X122825000Y-40350000D02*
X122825000Y-36450000D01*
X141875000Y-45430000D02*
X143875000Y-45430000D01*
X143875000Y-45430000D02*
X143875000Y-41530000D01*
X141875000Y-45430000D02*
X141875000Y-41530000D01*
X159655000Y-40350000D02*
X161655000Y-40350000D01*
X161655000Y-40350000D02*
X161655000Y-36450000D01*
X159655000Y-40350000D02*
X159655000Y-36450000D01*
X162195000Y-40350000D02*
X164195000Y-40350000D01*
X164195000Y-40350000D02*
X164195000Y-36450000D01*
X162195000Y-40350000D02*
X162195000Y-36450000D01*
X65675000Y-72100000D02*
X67675000Y-72100000D01*
X67675000Y-72100000D02*
X67675000Y-68200000D01*
X65675000Y-72100000D02*
X65675000Y-68200000D01*
X84725000Y-72100000D02*
X86725000Y-72100000D01*
X86725000Y-72100000D02*
X86725000Y-68200000D01*
X84725000Y-72100000D02*
X84725000Y-68200000D01*
X103775000Y-64480000D02*
X105775000Y-64480000D01*
X105775000Y-64480000D02*
X105775000Y-60580000D01*
X103775000Y-64480000D02*
X103775000Y-60580000D01*
X122825000Y-59400000D02*
X124825000Y-59400000D01*
X124825000Y-59400000D02*
X124825000Y-55500000D01*
X122825000Y-59400000D02*
X122825000Y-55500000D01*
X141875000Y-64480000D02*
X143875000Y-64480000D01*
X143875000Y-64480000D02*
X143875000Y-60580000D01*
X141875000Y-64480000D02*
X141875000Y-60580000D01*
X159655000Y-59400000D02*
X161655000Y-59400000D01*
X161655000Y-59400000D02*
X161655000Y-55500000D01*
X159655000Y-59400000D02*
X159655000Y-55500000D01*
X162195000Y-59400000D02*
X164195000Y-59400000D01*
X164195000Y-59400000D02*
X164195000Y-55500000D01*
X162195000Y-59400000D02*
X162195000Y-55500000D01*
X65675000Y-91150000D02*
X67675000Y-91150000D01*
X67675000Y-91150000D02*
X67675000Y-87250000D01*
X65675000Y-91150000D02*
X65675000Y-87250000D01*
X84725000Y-91150000D02*
X86725000Y-91150000D01*
X86725000Y-91150000D02*
X86725000Y-87250000D01*
X84725000Y-91150000D02*
X84725000Y-87250000D01*
X103775000Y-83530000D02*
X105775000Y-83530000D01*
X105775000Y-83530000D02*
X105775000Y-79630000D01*
X103775000Y-83530000D02*
X103775000Y-79630000D01*
X122825000Y-78450000D02*
X124825000Y-78450000D01*
X124825000Y-78450000D02*
X124825000Y-74550000D01*
X122825000Y-78450000D02*
X122825000Y-74550000D01*
X140605000Y-80990000D02*
X142605000Y-80990000D01*
X142605000Y-80990000D02*
X142605000Y-77090000D01*
X140605000Y-80990000D02*
X140605000Y-77090000D01*
X143145000Y-80990000D02*
X145145000Y-80990000D01*
X145145000Y-80990000D02*
X145145000Y-77090000D01*
X143145000Y-80990000D02*
X143145000Y-77090000D01*
X65675000Y-110200000D02*
X67675000Y-110200000D01*
X67675000Y-110200000D02*
X67675000Y-106300000D01*
X65675000Y-110200000D02*
X65675000Y-106300000D01*
X84725000Y-110200000D02*
X86725000Y-110200000D01*
X86725000Y-110200000D02*
X86725000Y-106300000D01*
X84725000Y-110200000D02*
X84725000Y-106300000D01*
X103775000Y-102580000D02*
X105775000Y-102580000D01*
X105775000Y-102580000D02*
X105775000Y-98680000D01*
X103775000Y-102580000D02*
X103775000Y-98680000D01*
X122825000Y-97500000D02*
X124825000Y-97500000D01*
X124825000Y-97500000D02*
X124825000Y-93600000D01*
X122825000Y-97500000D02*
X122825000Y-93600000D01*
X141875000Y-102580000D02*
X143875000Y-102580000D01*
X143875000Y-102580000D02*
X143875000Y-98680000D01*
X141875000Y-102580000D02*
X141875000Y-98680000D01*
X160925000Y-97500000D02*
X162925000Y-97500000D01*
X162925000Y-97500000D02*
X162925000Y-93600000D01*
X160925000Y-97500000D02*
X160925000Y-93600000D01*
X160925000Y-89880000D02*
X162925000Y-89880000D01*
X162925000Y-89880000D02*
X162925000Y-85980000D01*
X160925000Y-89880000D02*
X160925000Y-85980000D01*
X103775000Y-121630000D02*
X105775000Y-121630000D01*
X105775000Y-121630000D02*
X105775000Y-117730000D01*
X103775000Y-121630000D02*
X103775000Y-117730000D01*
X122825000Y-116550000D02*
X124825000Y-116550000D01*
X124825000Y-116550000D02*
X124825000Y-112650000D01*
X122825000Y-116550000D02*
X122825000Y-112650000D01*
X141875000Y-121630000D02*
X143875000Y-121630000D01*
X143875000Y-121630000D02*
X143875000Y-117730000D01*
X141875000Y-121630000D02*
X141875000Y-117730000D01*
X159655000Y-116550000D02*
X161655000Y-116550000D01*
X161655000Y-116550000D02*
X161655000Y-112650000D01*
X159655000Y-116550000D02*
X159655000Y-112650000D01*
X162195000Y-116550000D02*
X164195000Y-116550000D01*
X164195000Y-116550000D02*
X164195000Y-112650000D01*
X162195000Y-116550000D02*
X162195000Y-112650000D01*
D11*
X150590476Y-49680762D02*
X150733333Y-49728381D01*
X150971429Y-49728381D01*
X151066667Y-49680762D01*
X151114286Y-49633143D01*
X151161905Y-49537905D01*
X151161905Y-49442667D01*
X151114286Y-49347429D01*
X151066667Y-49299810D01*
X150971429Y-49252190D01*
X150780952Y-49204571D01*
X150685714Y-49156952D01*
X150638095Y-49109333D01*
X150590476Y-49014095D01*
X150590476Y-48918857D01*
X150638095Y-48823619D01*
X150685714Y-48776000D01*
X150780952Y-48728381D01*
X151019048Y-48728381D01*
X151161905Y-48776000D01*
X151495238Y-48728381D02*
X151733333Y-49728381D01*
X151923810Y-49014095D01*
X152114286Y-49728381D01*
X152352381Y-48728381D01*
X153257143Y-49728381D02*
X152685714Y-49728381D01*
X152971428Y-49728381D02*
X152971428Y-48728381D01*
X152876190Y-48871238D01*
X152780952Y-48966476D01*
X152685714Y-49014095D01*
X153590476Y-48728381D02*
X154209524Y-48728381D01*
X153876190Y-49109333D01*
X154019048Y-49109333D01*
X154114286Y-49156952D01*
X154161905Y-49204571D01*
X154209524Y-49299810D01*
X154209524Y-49537905D01*
X154161905Y-49633143D01*
X154114286Y-49680762D01*
X154019048Y-49728381D01*
X153733333Y-49728381D01*
X153638095Y-49680762D01*
X153590476Y-49633143D01*
X142541667Y-59567381D02*
X142541667Y-60281667D01*
X142494047Y-60424524D01*
X142398809Y-60519762D01*
X142255952Y-60567381D01*
X142160714Y-60567381D01*
X143446429Y-59900714D02*
X143446429Y-60567381D01*
X143208333Y-59519762D02*
X142970238Y-60234048D01*
X143589286Y-60234048D01*
X122432381Y-126698333D02*
X123146667Y-126698333D01*
X123289524Y-126745953D01*
X123384762Y-126841191D01*
X123432381Y-126984048D01*
X123432381Y-127079286D01*
X122432381Y-126317381D02*
X122432381Y-125698333D01*
X122813333Y-126031667D01*
X122813333Y-125888809D01*
X122860952Y-125793571D01*
X122908571Y-125745952D01*
X123003810Y-125698333D01*
X123241905Y-125698333D01*
X123337143Y-125745952D01*
X123384762Y-125793571D01*
X123432381Y-125888809D01*
X123432381Y-126174524D01*
X123384762Y-126269762D01*
X123337143Y-126317381D01*
X150590476Y-68730762D02*
X150733333Y-68778381D01*
X150971429Y-68778381D01*
X151066667Y-68730762D01*
X151114286Y-68683143D01*
X151161905Y-68587905D01*
X151161905Y-68492667D01*
X151114286Y-68397429D01*
X151066667Y-68349810D01*
X150971429Y-68302190D01*
X150780952Y-68254571D01*
X150685714Y-68206952D01*
X150638095Y-68159333D01*
X150590476Y-68064095D01*
X150590476Y-67968857D01*
X150638095Y-67873619D01*
X150685714Y-67826000D01*
X150780952Y-67778381D01*
X151019048Y-67778381D01*
X151161905Y-67826000D01*
X151495238Y-67778381D02*
X151733333Y-68778381D01*
X151923810Y-68064095D01*
X152114286Y-68778381D01*
X152352381Y-67778381D01*
X152685714Y-67873619D02*
X152733333Y-67826000D01*
X152828571Y-67778381D01*
X153066667Y-67778381D01*
X153161905Y-67826000D01*
X153209524Y-67873619D01*
X153257143Y-67968857D01*
X153257143Y-68064095D01*
X153209524Y-68206952D01*
X152638095Y-68778381D01*
X153257143Y-68778381D01*
X154209524Y-68778381D02*
X153638095Y-68778381D01*
X153923809Y-68778381D02*
X153923809Y-67778381D01*
X153828571Y-67921238D01*
X153733333Y-68016476D01*
X153638095Y-68064095D01*
X93916667Y-35710762D02*
X94059524Y-35758381D01*
X94297620Y-35758381D01*
X94392858Y-35710762D01*
X94440477Y-35663143D01*
X94488096Y-35567905D01*
X94488096Y-35472667D01*
X94440477Y-35377429D01*
X94392858Y-35329810D01*
X94297620Y-35282190D01*
X94107143Y-35234571D01*
X94011905Y-35186952D01*
X93964286Y-35139333D01*
X93916667Y-35044095D01*
X93916667Y-34948857D01*
X93964286Y-34853619D01*
X94011905Y-34806000D01*
X94107143Y-34758381D01*
X94345239Y-34758381D01*
X94488096Y-34806000D01*
X94821429Y-34758381D02*
X95059524Y-35758381D01*
X95250001Y-35044095D01*
X95440477Y-35758381D01*
X95678572Y-34758381D01*
X96011905Y-34853619D02*
X96059524Y-34806000D01*
X96154762Y-34758381D01*
X96392858Y-34758381D01*
X96488096Y-34806000D01*
X96535715Y-34853619D01*
X96583334Y-34948857D01*
X96583334Y-35044095D01*
X96535715Y-35186952D01*
X95964286Y-35758381D01*
X96583334Y-35758381D01*
X81533934Y-40724078D02*
X81692183Y-41420614D01*
X81677397Y-41570471D01*
X81605625Y-41684442D01*
X81476868Y-41762527D01*
X81383997Y-41783627D01*
X82730632Y-41477679D02*
X82173404Y-41604278D01*
X82452017Y-41540979D02*
X82230469Y-40565829D01*
X82169247Y-40726236D01*
X82097476Y-40840207D01*
X82015155Y-40907743D01*
X159091381Y-77977905D02*
X159900905Y-77977905D01*
X159996143Y-77930286D01*
X160043762Y-77882667D01*
X160091381Y-77787429D01*
X160091381Y-77596952D01*
X160043762Y-77501714D01*
X159996143Y-77454095D01*
X159900905Y-77406476D01*
X159091381Y-77406476D01*
X160091381Y-76406476D02*
X160091381Y-76977905D01*
X160091381Y-76692191D02*
X159091381Y-76692191D01*
X159234238Y-76787429D01*
X159329476Y-76882667D01*
X159377095Y-76977905D01*
X170688095Y-52157381D02*
X170688095Y-52966905D01*
X170735714Y-53062143D01*
X170783333Y-53109762D01*
X170878571Y-53157381D01*
X171069048Y-53157381D01*
X171164286Y-53109762D01*
X171211905Y-53062143D01*
X171259524Y-52966905D01*
X171259524Y-52157381D01*
X171640476Y-52157381D02*
X172259524Y-52157381D01*
X171926190Y-52538333D01*
X172069048Y-52538333D01*
X172164286Y-52585952D01*
X172211905Y-52633571D01*
X172259524Y-52728810D01*
X172259524Y-52966905D01*
X172211905Y-53062143D01*
X172164286Y-53109762D01*
X172069048Y-53157381D01*
X171783333Y-53157381D01*
X171688095Y-53109762D01*
X171640476Y-53062143D01*
X165711143Y-53601857D02*
X165758762Y-53649476D01*
X165806381Y-53792333D01*
X165806381Y-53887571D01*
X165758762Y-54030429D01*
X165663524Y-54125667D01*
X165568286Y-54173286D01*
X165377810Y-54220905D01*
X165234952Y-54220905D01*
X165044476Y-54173286D01*
X164949238Y-54125667D01*
X164854000Y-54030429D01*
X164806381Y-53887571D01*
X164806381Y-53792333D01*
X164854000Y-53649476D01*
X164901619Y-53601857D01*
X165806381Y-52649476D02*
X165806381Y-53220905D01*
X165806381Y-52935191D02*
X164806381Y-52935191D01*
X164949238Y-53030429D01*
X165044476Y-53125667D01*
X165092095Y-53220905D01*
X164806381Y-52030429D02*
X164806381Y-51935190D01*
X164854000Y-51839952D01*
X164901619Y-51792333D01*
X164996857Y-51744714D01*
X165187333Y-51697095D01*
X165425429Y-51697095D01*
X165615905Y-51744714D01*
X165711143Y-51792333D01*
X165758762Y-51839952D01*
X165806381Y-51935190D01*
X165806381Y-52030429D01*
X165758762Y-52125667D01*
X165711143Y-52173286D01*
X165615905Y-52220905D01*
X165425429Y-52268524D01*
X165187333Y-52268524D01*
X164996857Y-52220905D01*
X164901619Y-52173286D01*
X164854000Y-52125667D01*
X164806381Y-52030429D01*
X85558334Y-41887143D02*
X85510715Y-41934762D01*
X85367858Y-41982381D01*
X85272620Y-41982381D01*
X85129762Y-41934762D01*
X85034524Y-41839524D01*
X84986905Y-41744286D01*
X84939286Y-41553810D01*
X84939286Y-41410952D01*
X84986905Y-41220476D01*
X85034524Y-41125238D01*
X85129762Y-41030000D01*
X85272620Y-40982381D01*
X85367858Y-40982381D01*
X85510715Y-41030000D01*
X85558334Y-41077619D01*
X86034524Y-41982381D02*
X86225000Y-41982381D01*
X86320239Y-41934762D01*
X86367858Y-41887143D01*
X86463096Y-41744286D01*
X86510715Y-41553810D01*
X86510715Y-41172857D01*
X86463096Y-41077619D01*
X86415477Y-41030000D01*
X86320239Y-40982381D01*
X86129762Y-40982381D01*
X86034524Y-41030000D01*
X85986905Y-41077619D01*
X85939286Y-41172857D01*
X85939286Y-41410952D01*
X85986905Y-41506190D01*
X86034524Y-41553810D01*
X86129762Y-41601429D01*
X86320239Y-41601429D01*
X86415477Y-41553810D01*
X86463096Y-41506190D01*
X86510715Y-41410952D01*
X102108095Y-30207381D02*
X102108095Y-31016905D01*
X102155714Y-31112143D01*
X102203333Y-31159762D01*
X102298571Y-31207381D01*
X102489048Y-31207381D01*
X102584286Y-31159762D01*
X102631905Y-31112143D01*
X102679524Y-31016905D01*
X102679524Y-30207381D01*
X103108095Y-30302619D02*
X103155714Y-30255000D01*
X103250952Y-30207381D01*
X103489048Y-30207381D01*
X103584286Y-30255000D01*
X103631905Y-30302619D01*
X103679524Y-30397857D01*
X103679524Y-30493095D01*
X103631905Y-30635952D01*
X103060476Y-31207381D01*
X103679524Y-31207381D01*
X74866667Y-43330762D02*
X75009524Y-43378381D01*
X75247620Y-43378381D01*
X75342858Y-43330762D01*
X75390477Y-43283143D01*
X75438096Y-43187905D01*
X75438096Y-43092667D01*
X75390477Y-42997429D01*
X75342858Y-42949810D01*
X75247620Y-42902190D01*
X75057143Y-42854571D01*
X74961905Y-42806952D01*
X74914286Y-42759333D01*
X74866667Y-42664095D01*
X74866667Y-42568857D01*
X74914286Y-42473619D01*
X74961905Y-42426000D01*
X75057143Y-42378381D01*
X75295239Y-42378381D01*
X75438096Y-42426000D01*
X75771429Y-42378381D02*
X76009524Y-43378381D01*
X76200001Y-42664095D01*
X76390477Y-43378381D01*
X76628572Y-42378381D01*
X77533334Y-43378381D02*
X76961905Y-43378381D01*
X77247619Y-43378381D02*
X77247619Y-42378381D01*
X77152381Y-42521238D01*
X77057143Y-42616476D01*
X76961905Y-42664095D01*
X132016667Y-36599762D02*
X132159524Y-36647381D01*
X132397620Y-36647381D01*
X132492858Y-36599762D01*
X132540477Y-36552143D01*
X132588096Y-36456905D01*
X132588096Y-36361667D01*
X132540477Y-36266429D01*
X132492858Y-36218810D01*
X132397620Y-36171190D01*
X132207143Y-36123571D01*
X132111905Y-36075952D01*
X132064286Y-36028333D01*
X132016667Y-35933095D01*
X132016667Y-35837857D01*
X132064286Y-35742619D01*
X132111905Y-35695000D01*
X132207143Y-35647381D01*
X132445239Y-35647381D01*
X132588096Y-35695000D01*
X132921429Y-35647381D02*
X133159524Y-36647381D01*
X133350001Y-35933095D01*
X133540477Y-36647381D01*
X133778572Y-35647381D01*
X134588096Y-35980714D02*
X134588096Y-36647381D01*
X134350000Y-35599762D02*
X134111905Y-36314048D01*
X134730953Y-36314048D01*
X151066667Y-30630762D02*
X151209524Y-30678381D01*
X151447620Y-30678381D01*
X151542858Y-30630762D01*
X151590477Y-30583143D01*
X151638096Y-30487905D01*
X151638096Y-30392667D01*
X151590477Y-30297429D01*
X151542858Y-30249810D01*
X151447620Y-30202190D01*
X151257143Y-30154571D01*
X151161905Y-30106952D01*
X151114286Y-30059333D01*
X151066667Y-29964095D01*
X151066667Y-29868857D01*
X151114286Y-29773619D01*
X151161905Y-29726000D01*
X151257143Y-29678381D01*
X151495239Y-29678381D01*
X151638096Y-29726000D01*
X151971429Y-29678381D02*
X152209524Y-30678381D01*
X152400001Y-29964095D01*
X152590477Y-30678381D01*
X152828572Y-29678381D01*
X153685715Y-29678381D02*
X153209524Y-29678381D01*
X153161905Y-30154571D01*
X153209524Y-30106952D01*
X153304762Y-30059333D01*
X153542858Y-30059333D01*
X153638096Y-30106952D01*
X153685715Y-30154571D01*
X153733334Y-30249810D01*
X153733334Y-30487905D01*
X153685715Y-30583143D01*
X153638096Y-30630762D01*
X153542858Y-30678381D01*
X153304762Y-30678381D01*
X153209524Y-30630762D01*
X153161905Y-30583143D01*
X170116667Y-30630762D02*
X170259524Y-30678381D01*
X170497620Y-30678381D01*
X170592858Y-30630762D01*
X170640477Y-30583143D01*
X170688096Y-30487905D01*
X170688096Y-30392667D01*
X170640477Y-30297429D01*
X170592858Y-30249810D01*
X170497620Y-30202190D01*
X170307143Y-30154571D01*
X170211905Y-30106952D01*
X170164286Y-30059333D01*
X170116667Y-29964095D01*
X170116667Y-29868857D01*
X170164286Y-29773619D01*
X170211905Y-29726000D01*
X170307143Y-29678381D01*
X170545239Y-29678381D01*
X170688096Y-29726000D01*
X171021429Y-29678381D02*
X171259524Y-30678381D01*
X171450001Y-29964095D01*
X171640477Y-30678381D01*
X171878572Y-29678381D01*
X172688096Y-29678381D02*
X172497619Y-29678381D01*
X172402381Y-29726000D01*
X172354762Y-29773619D01*
X172259524Y-29916476D01*
X172211905Y-30106952D01*
X172211905Y-30487905D01*
X172259524Y-30583143D01*
X172307143Y-30630762D01*
X172402381Y-30678381D01*
X172592858Y-30678381D01*
X172688096Y-30630762D01*
X172735715Y-30583143D01*
X172783334Y-30487905D01*
X172783334Y-30249810D01*
X172735715Y-30154571D01*
X172688096Y-30106952D01*
X172592858Y-30059333D01*
X172402381Y-30059333D01*
X172307143Y-30106952D01*
X172259524Y-30154571D01*
X172211905Y-30249810D01*
X74866667Y-62380762D02*
X75009524Y-62428381D01*
X75247620Y-62428381D01*
X75342858Y-62380762D01*
X75390477Y-62333143D01*
X75438096Y-62237905D01*
X75438096Y-62142667D01*
X75390477Y-62047429D01*
X75342858Y-61999810D01*
X75247620Y-61952190D01*
X75057143Y-61904571D01*
X74961905Y-61856952D01*
X74914286Y-61809333D01*
X74866667Y-61714095D01*
X74866667Y-61618857D01*
X74914286Y-61523619D01*
X74961905Y-61476000D01*
X75057143Y-61428381D01*
X75295239Y-61428381D01*
X75438096Y-61476000D01*
X75771429Y-61428381D02*
X76009524Y-62428381D01*
X76200001Y-61714095D01*
X76390477Y-62428381D01*
X76628572Y-61428381D01*
X77057143Y-62428381D02*
X77247619Y-62428381D01*
X77342858Y-62380762D01*
X77390477Y-62333143D01*
X77485715Y-62190286D01*
X77533334Y-61999810D01*
X77533334Y-61618857D01*
X77485715Y-61523619D01*
X77438096Y-61476000D01*
X77342858Y-61428381D01*
X77152381Y-61428381D01*
X77057143Y-61476000D01*
X77009524Y-61523619D01*
X76961905Y-61618857D01*
X76961905Y-61856952D01*
X77009524Y-61952190D01*
X77057143Y-61999810D01*
X77152381Y-62047429D01*
X77342858Y-62047429D01*
X77438096Y-61999810D01*
X77485715Y-61952190D01*
X77533334Y-61856952D01*
X93440476Y-54760762D02*
X93583333Y-54808381D01*
X93821429Y-54808381D01*
X93916667Y-54760762D01*
X93964286Y-54713143D01*
X94011905Y-54617905D01*
X94011905Y-54522667D01*
X93964286Y-54427429D01*
X93916667Y-54379810D01*
X93821429Y-54332190D01*
X93630952Y-54284571D01*
X93535714Y-54236952D01*
X93488095Y-54189333D01*
X93440476Y-54094095D01*
X93440476Y-53998857D01*
X93488095Y-53903619D01*
X93535714Y-53856000D01*
X93630952Y-53808381D01*
X93869048Y-53808381D01*
X94011905Y-53856000D01*
X94345238Y-53808381D02*
X94583333Y-54808381D01*
X94773810Y-54094095D01*
X94964286Y-54808381D01*
X95202381Y-53808381D01*
X96107143Y-54808381D02*
X95535714Y-54808381D01*
X95821428Y-54808381D02*
X95821428Y-53808381D01*
X95726190Y-53951238D01*
X95630952Y-54046476D01*
X95535714Y-54094095D01*
X96726190Y-53808381D02*
X96821429Y-53808381D01*
X96916667Y-53856000D01*
X96964286Y-53903619D01*
X97011905Y-53998857D01*
X97059524Y-54189333D01*
X97059524Y-54427429D01*
X97011905Y-54617905D01*
X96964286Y-54713143D01*
X96916667Y-54760762D01*
X96821429Y-54808381D01*
X96726190Y-54808381D01*
X96630952Y-54760762D01*
X96583333Y-54713143D01*
X96535714Y-54617905D01*
X96488095Y-54427429D01*
X96488095Y-54189333D01*
X96535714Y-53998857D01*
X96583333Y-53903619D01*
X96630952Y-53856000D01*
X96726190Y-53808381D01*
X112490476Y-49680762D02*
X112633333Y-49728381D01*
X112871429Y-49728381D01*
X112966667Y-49680762D01*
X113014286Y-49633143D01*
X113061905Y-49537905D01*
X113061905Y-49442667D01*
X113014286Y-49347429D01*
X112966667Y-49299810D01*
X112871429Y-49252190D01*
X112680952Y-49204571D01*
X112585714Y-49156952D01*
X112538095Y-49109333D01*
X112490476Y-49014095D01*
X112490476Y-48918857D01*
X112538095Y-48823619D01*
X112585714Y-48776000D01*
X112680952Y-48728381D01*
X112919048Y-48728381D01*
X113061905Y-48776000D01*
X113395238Y-48728381D02*
X113633333Y-49728381D01*
X113823810Y-49014095D01*
X114014286Y-49728381D01*
X114252381Y-48728381D01*
X115157143Y-49728381D02*
X114585714Y-49728381D01*
X114871428Y-49728381D02*
X114871428Y-48728381D01*
X114776190Y-48871238D01*
X114680952Y-48966476D01*
X114585714Y-49014095D01*
X116109524Y-49728381D02*
X115538095Y-49728381D01*
X115823809Y-49728381D02*
X115823809Y-48728381D01*
X115728571Y-48871238D01*
X115633333Y-48966476D01*
X115538095Y-49014095D01*
X131540476Y-54760762D02*
X131683333Y-54808381D01*
X131921429Y-54808381D01*
X132016667Y-54760762D01*
X132064286Y-54713143D01*
X132111905Y-54617905D01*
X132111905Y-54522667D01*
X132064286Y-54427429D01*
X132016667Y-54379810D01*
X131921429Y-54332190D01*
X131730952Y-54284571D01*
X131635714Y-54236952D01*
X131588095Y-54189333D01*
X131540476Y-54094095D01*
X131540476Y-53998857D01*
X131588095Y-53903619D01*
X131635714Y-53856000D01*
X131730952Y-53808381D01*
X131969048Y-53808381D01*
X132111905Y-53856000D01*
X132445238Y-53808381D02*
X132683333Y-54808381D01*
X132873810Y-54094095D01*
X133064286Y-54808381D01*
X133302381Y-53808381D01*
X134207143Y-54808381D02*
X133635714Y-54808381D01*
X133921428Y-54808381D02*
X133921428Y-53808381D01*
X133826190Y-53951238D01*
X133730952Y-54046476D01*
X133635714Y-54094095D01*
X134588095Y-53903619D02*
X134635714Y-53856000D01*
X134730952Y-53808381D01*
X134969048Y-53808381D01*
X135064286Y-53856000D01*
X135111905Y-53903619D01*
X135159524Y-53998857D01*
X135159524Y-54094095D01*
X135111905Y-54236952D01*
X134540476Y-54808381D01*
X135159524Y-54808381D01*
X74390476Y-81430762D02*
X74533333Y-81478381D01*
X74771429Y-81478381D01*
X74866667Y-81430762D01*
X74914286Y-81383143D01*
X74961905Y-81287905D01*
X74961905Y-81192667D01*
X74914286Y-81097429D01*
X74866667Y-81049810D01*
X74771429Y-81002190D01*
X74580952Y-80954571D01*
X74485714Y-80906952D01*
X74438095Y-80859333D01*
X74390476Y-80764095D01*
X74390476Y-80668857D01*
X74438095Y-80573619D01*
X74485714Y-80526000D01*
X74580952Y-80478381D01*
X74819048Y-80478381D01*
X74961905Y-80526000D01*
X75295238Y-80478381D02*
X75533333Y-81478381D01*
X75723810Y-80764095D01*
X75914286Y-81478381D01*
X76152381Y-80478381D01*
X77057143Y-81478381D02*
X76485714Y-81478381D01*
X76771428Y-81478381D02*
X76771428Y-80478381D01*
X76676190Y-80621238D01*
X76580952Y-80716476D01*
X76485714Y-80764095D01*
X77390476Y-80478381D02*
X78057143Y-80478381D01*
X77628571Y-81478381D01*
X93440476Y-73810762D02*
X93583333Y-73858381D01*
X93821429Y-73858381D01*
X93916667Y-73810762D01*
X93964286Y-73763143D01*
X94011905Y-73667905D01*
X94011905Y-73572667D01*
X93964286Y-73477429D01*
X93916667Y-73429810D01*
X93821429Y-73382190D01*
X93630952Y-73334571D01*
X93535714Y-73286952D01*
X93488095Y-73239333D01*
X93440476Y-73144095D01*
X93440476Y-73048857D01*
X93488095Y-72953619D01*
X93535714Y-72906000D01*
X93630952Y-72858381D01*
X93869048Y-72858381D01*
X94011905Y-72906000D01*
X94345238Y-72858381D02*
X94583333Y-73858381D01*
X94773810Y-73144095D01*
X94964286Y-73858381D01*
X95202381Y-72858381D01*
X96107143Y-73858381D02*
X95535714Y-73858381D01*
X95821428Y-73858381D02*
X95821428Y-72858381D01*
X95726190Y-73001238D01*
X95630952Y-73096476D01*
X95535714Y-73144095D01*
X96678571Y-73286952D02*
X96583333Y-73239333D01*
X96535714Y-73191714D01*
X96488095Y-73096476D01*
X96488095Y-73048857D01*
X96535714Y-72953619D01*
X96583333Y-72906000D01*
X96678571Y-72858381D01*
X96869048Y-72858381D01*
X96964286Y-72906000D01*
X97011905Y-72953619D01*
X97059524Y-73048857D01*
X97059524Y-73096476D01*
X97011905Y-73191714D01*
X96964286Y-73239333D01*
X96869048Y-73286952D01*
X96678571Y-73286952D01*
X96583333Y-73334571D01*
X96535714Y-73382190D01*
X96488095Y-73477429D01*
X96488095Y-73667905D01*
X96535714Y-73763143D01*
X96583333Y-73810762D01*
X96678571Y-73858381D01*
X96869048Y-73858381D01*
X96964286Y-73810762D01*
X97011905Y-73763143D01*
X97059524Y-73667905D01*
X97059524Y-73477429D01*
X97011905Y-73382190D01*
X96964286Y-73334571D01*
X96869048Y-73286952D01*
X112490476Y-68730762D02*
X112633333Y-68778381D01*
X112871429Y-68778381D01*
X112966667Y-68730762D01*
X113014286Y-68683143D01*
X113061905Y-68587905D01*
X113061905Y-68492667D01*
X113014286Y-68397429D01*
X112966667Y-68349810D01*
X112871429Y-68302190D01*
X112680952Y-68254571D01*
X112585714Y-68206952D01*
X112538095Y-68159333D01*
X112490476Y-68064095D01*
X112490476Y-67968857D01*
X112538095Y-67873619D01*
X112585714Y-67826000D01*
X112680952Y-67778381D01*
X112919048Y-67778381D01*
X113061905Y-67826000D01*
X113395238Y-67778381D02*
X113633333Y-68778381D01*
X113823810Y-68064095D01*
X114014286Y-68778381D01*
X114252381Y-67778381D01*
X115157143Y-68778381D02*
X114585714Y-68778381D01*
X114871428Y-68778381D02*
X114871428Y-67778381D01*
X114776190Y-67921238D01*
X114680952Y-68016476D01*
X114585714Y-68064095D01*
X115633333Y-68778381D02*
X115823809Y-68778381D01*
X115919048Y-68730762D01*
X115966667Y-68683143D01*
X116061905Y-68540286D01*
X116109524Y-68349810D01*
X116109524Y-67968857D01*
X116061905Y-67873619D01*
X116014286Y-67826000D01*
X115919048Y-67778381D01*
X115728571Y-67778381D01*
X115633333Y-67826000D01*
X115585714Y-67873619D01*
X115538095Y-67968857D01*
X115538095Y-68206952D01*
X115585714Y-68302190D01*
X115633333Y-68349810D01*
X115728571Y-68397429D01*
X115919048Y-68397429D01*
X116014286Y-68349810D01*
X116061905Y-68302190D01*
X116109524Y-68206952D01*
X131540476Y-73810762D02*
X131683333Y-73858381D01*
X131921429Y-73858381D01*
X132016667Y-73810762D01*
X132064286Y-73763143D01*
X132111905Y-73667905D01*
X132111905Y-73572667D01*
X132064286Y-73477429D01*
X132016667Y-73429810D01*
X131921429Y-73382190D01*
X131730952Y-73334571D01*
X131635714Y-73286952D01*
X131588095Y-73239333D01*
X131540476Y-73144095D01*
X131540476Y-73048857D01*
X131588095Y-72953619D01*
X131635714Y-72906000D01*
X131730952Y-72858381D01*
X131969048Y-72858381D01*
X132111905Y-72906000D01*
X132445238Y-72858381D02*
X132683333Y-73858381D01*
X132873810Y-73144095D01*
X133064286Y-73858381D01*
X133302381Y-72858381D01*
X133635714Y-72953619D02*
X133683333Y-72906000D01*
X133778571Y-72858381D01*
X134016667Y-72858381D01*
X134111905Y-72906000D01*
X134159524Y-72953619D01*
X134207143Y-73048857D01*
X134207143Y-73144095D01*
X134159524Y-73286952D01*
X133588095Y-73858381D01*
X134207143Y-73858381D01*
X134826190Y-72858381D02*
X134921429Y-72858381D01*
X135016667Y-72906000D01*
X135064286Y-72953619D01*
X135111905Y-73048857D01*
X135159524Y-73239333D01*
X135159524Y-73477429D01*
X135111905Y-73667905D01*
X135064286Y-73763143D01*
X135016667Y-73810762D01*
X134921429Y-73858381D01*
X134826190Y-73858381D01*
X134730952Y-73810762D01*
X134683333Y-73763143D01*
X134635714Y-73667905D01*
X134588095Y-73477429D01*
X134588095Y-73239333D01*
X134635714Y-73048857D01*
X134683333Y-72953619D01*
X134730952Y-72906000D01*
X134826190Y-72858381D01*
X74390476Y-100480762D02*
X74533333Y-100528381D01*
X74771429Y-100528381D01*
X74866667Y-100480762D01*
X74914286Y-100433143D01*
X74961905Y-100337905D01*
X74961905Y-100242667D01*
X74914286Y-100147429D01*
X74866667Y-100099810D01*
X74771429Y-100052190D01*
X74580952Y-100004571D01*
X74485714Y-99956952D01*
X74438095Y-99909333D01*
X74390476Y-99814095D01*
X74390476Y-99718857D01*
X74438095Y-99623619D01*
X74485714Y-99576000D01*
X74580952Y-99528381D01*
X74819048Y-99528381D01*
X74961905Y-99576000D01*
X75295238Y-99528381D02*
X75533333Y-100528381D01*
X75723810Y-99814095D01*
X75914286Y-100528381D01*
X76152381Y-99528381D01*
X76485714Y-99623619D02*
X76533333Y-99576000D01*
X76628571Y-99528381D01*
X76866667Y-99528381D01*
X76961905Y-99576000D01*
X77009524Y-99623619D01*
X77057143Y-99718857D01*
X77057143Y-99814095D01*
X77009524Y-99956952D01*
X76438095Y-100528381D01*
X77057143Y-100528381D01*
X77961905Y-99528381D02*
X77485714Y-99528381D01*
X77438095Y-100004571D01*
X77485714Y-99956952D01*
X77580952Y-99909333D01*
X77819048Y-99909333D01*
X77914286Y-99956952D01*
X77961905Y-100004571D01*
X78009524Y-100099810D01*
X78009524Y-100337905D01*
X77961905Y-100433143D01*
X77914286Y-100480762D01*
X77819048Y-100528381D01*
X77580952Y-100528381D01*
X77485714Y-100480762D01*
X77438095Y-100433143D01*
X93440476Y-92860762D02*
X93583333Y-92908381D01*
X93821429Y-92908381D01*
X93916667Y-92860762D01*
X93964286Y-92813143D01*
X94011905Y-92717905D01*
X94011905Y-92622667D01*
X93964286Y-92527429D01*
X93916667Y-92479810D01*
X93821429Y-92432190D01*
X93630952Y-92384571D01*
X93535714Y-92336952D01*
X93488095Y-92289333D01*
X93440476Y-92194095D01*
X93440476Y-92098857D01*
X93488095Y-92003619D01*
X93535714Y-91956000D01*
X93630952Y-91908381D01*
X93869048Y-91908381D01*
X94011905Y-91956000D01*
X94345238Y-91908381D02*
X94583333Y-92908381D01*
X94773810Y-92194095D01*
X94964286Y-92908381D01*
X95202381Y-91908381D01*
X95535714Y-92003619D02*
X95583333Y-91956000D01*
X95678571Y-91908381D01*
X95916667Y-91908381D01*
X96011905Y-91956000D01*
X96059524Y-92003619D01*
X96107143Y-92098857D01*
X96107143Y-92194095D01*
X96059524Y-92336952D01*
X95488095Y-92908381D01*
X96107143Y-92908381D01*
X96964286Y-91908381D02*
X96773809Y-91908381D01*
X96678571Y-91956000D01*
X96630952Y-92003619D01*
X96535714Y-92146476D01*
X96488095Y-92336952D01*
X96488095Y-92717905D01*
X96535714Y-92813143D01*
X96583333Y-92860762D01*
X96678571Y-92908381D01*
X96869048Y-92908381D01*
X96964286Y-92860762D01*
X97011905Y-92813143D01*
X97059524Y-92717905D01*
X97059524Y-92479810D01*
X97011905Y-92384571D01*
X96964286Y-92336952D01*
X96869048Y-92289333D01*
X96678571Y-92289333D01*
X96583333Y-92336952D01*
X96535714Y-92384571D01*
X96488095Y-92479810D01*
X112490476Y-87780762D02*
X112633333Y-87828381D01*
X112871429Y-87828381D01*
X112966667Y-87780762D01*
X113014286Y-87733143D01*
X113061905Y-87637905D01*
X113061905Y-87542667D01*
X113014286Y-87447429D01*
X112966667Y-87399810D01*
X112871429Y-87352190D01*
X112680952Y-87304571D01*
X112585714Y-87256952D01*
X112538095Y-87209333D01*
X112490476Y-87114095D01*
X112490476Y-87018857D01*
X112538095Y-86923619D01*
X112585714Y-86876000D01*
X112680952Y-86828381D01*
X112919048Y-86828381D01*
X113061905Y-86876000D01*
X113395238Y-86828381D02*
X113633333Y-87828381D01*
X113823810Y-87114095D01*
X114014286Y-87828381D01*
X114252381Y-86828381D01*
X114585714Y-86923619D02*
X114633333Y-86876000D01*
X114728571Y-86828381D01*
X114966667Y-86828381D01*
X115061905Y-86876000D01*
X115109524Y-86923619D01*
X115157143Y-87018857D01*
X115157143Y-87114095D01*
X115109524Y-87256952D01*
X114538095Y-87828381D01*
X115157143Y-87828381D01*
X115490476Y-86828381D02*
X116157143Y-86828381D01*
X115728571Y-87828381D01*
X131540476Y-92860762D02*
X131683333Y-92908381D01*
X131921429Y-92908381D01*
X132016667Y-92860762D01*
X132064286Y-92813143D01*
X132111905Y-92717905D01*
X132111905Y-92622667D01*
X132064286Y-92527429D01*
X132016667Y-92479810D01*
X131921429Y-92432190D01*
X131730952Y-92384571D01*
X131635714Y-92336952D01*
X131588095Y-92289333D01*
X131540476Y-92194095D01*
X131540476Y-92098857D01*
X131588095Y-92003619D01*
X131635714Y-91956000D01*
X131730952Y-91908381D01*
X131969048Y-91908381D01*
X132111905Y-91956000D01*
X132445238Y-91908381D02*
X132683333Y-92908381D01*
X132873810Y-92194095D01*
X133064286Y-92908381D01*
X133302381Y-91908381D01*
X133635714Y-92003619D02*
X133683333Y-91956000D01*
X133778571Y-91908381D01*
X134016667Y-91908381D01*
X134111905Y-91956000D01*
X134159524Y-92003619D01*
X134207143Y-92098857D01*
X134207143Y-92194095D01*
X134159524Y-92336952D01*
X133588095Y-92908381D01*
X134207143Y-92908381D01*
X134778571Y-92336952D02*
X134683333Y-92289333D01*
X134635714Y-92241714D01*
X134588095Y-92146476D01*
X134588095Y-92098857D01*
X134635714Y-92003619D01*
X134683333Y-91956000D01*
X134778571Y-91908381D01*
X134969048Y-91908381D01*
X135064286Y-91956000D01*
X135111905Y-92003619D01*
X135159524Y-92098857D01*
X135159524Y-92146476D01*
X135111905Y-92241714D01*
X135064286Y-92289333D01*
X134969048Y-92336952D01*
X134778571Y-92336952D01*
X134683333Y-92384571D01*
X134635714Y-92432190D01*
X134588095Y-92527429D01*
X134588095Y-92717905D01*
X134635714Y-92813143D01*
X134683333Y-92860762D01*
X134778571Y-92908381D01*
X134969048Y-92908381D01*
X135064286Y-92860762D01*
X135111905Y-92813143D01*
X135159524Y-92717905D01*
X135159524Y-92527429D01*
X135111905Y-92432190D01*
X135064286Y-92384571D01*
X134969048Y-92336952D01*
X150590476Y-87780762D02*
X150733333Y-87828381D01*
X150971429Y-87828381D01*
X151066667Y-87780762D01*
X151114286Y-87733143D01*
X151161905Y-87637905D01*
X151161905Y-87542667D01*
X151114286Y-87447429D01*
X151066667Y-87399810D01*
X150971429Y-87352190D01*
X150780952Y-87304571D01*
X150685714Y-87256952D01*
X150638095Y-87209333D01*
X150590476Y-87114095D01*
X150590476Y-87018857D01*
X150638095Y-86923619D01*
X150685714Y-86876000D01*
X150780952Y-86828381D01*
X151019048Y-86828381D01*
X151161905Y-86876000D01*
X151495238Y-86828381D02*
X151733333Y-87828381D01*
X151923810Y-87114095D01*
X152114286Y-87828381D01*
X152352381Y-86828381D01*
X152685714Y-86923619D02*
X152733333Y-86876000D01*
X152828571Y-86828381D01*
X153066667Y-86828381D01*
X153161905Y-86876000D01*
X153209524Y-86923619D01*
X153257143Y-87018857D01*
X153257143Y-87114095D01*
X153209524Y-87256952D01*
X152638095Y-87828381D01*
X153257143Y-87828381D01*
X153733333Y-87828381D02*
X153923809Y-87828381D01*
X154019048Y-87780762D01*
X154066667Y-87733143D01*
X154161905Y-87590286D01*
X154209524Y-87399810D01*
X154209524Y-87018857D01*
X154161905Y-86923619D01*
X154114286Y-86876000D01*
X154019048Y-86828381D01*
X153828571Y-86828381D01*
X153733333Y-86876000D01*
X153685714Y-86923619D01*
X153638095Y-87018857D01*
X153638095Y-87256952D01*
X153685714Y-87352190D01*
X153733333Y-87399810D01*
X153828571Y-87447429D01*
X154019048Y-87447429D01*
X154114286Y-87399810D01*
X154161905Y-87352190D01*
X154209524Y-87256952D01*
X93440476Y-111910762D02*
X93583333Y-111958381D01*
X93821429Y-111958381D01*
X93916667Y-111910762D01*
X93964286Y-111863143D01*
X94011905Y-111767905D01*
X94011905Y-111672667D01*
X93964286Y-111577429D01*
X93916667Y-111529810D01*
X93821429Y-111482190D01*
X93630952Y-111434571D01*
X93535714Y-111386952D01*
X93488095Y-111339333D01*
X93440476Y-111244095D01*
X93440476Y-111148857D01*
X93488095Y-111053619D01*
X93535714Y-111006000D01*
X93630952Y-110958381D01*
X93869048Y-110958381D01*
X94011905Y-111006000D01*
X94345238Y-110958381D02*
X94583333Y-111958381D01*
X94773810Y-111244095D01*
X94964286Y-111958381D01*
X95202381Y-110958381D01*
X95488095Y-110958381D02*
X96107143Y-110958381D01*
X95773809Y-111339333D01*
X95916667Y-111339333D01*
X96011905Y-111386952D01*
X96059524Y-111434571D01*
X96107143Y-111529810D01*
X96107143Y-111767905D01*
X96059524Y-111863143D01*
X96011905Y-111910762D01*
X95916667Y-111958381D01*
X95630952Y-111958381D01*
X95535714Y-111910762D01*
X95488095Y-111863143D01*
X96964286Y-111291714D02*
X96964286Y-111958381D01*
X96726190Y-110910762D02*
X96488095Y-111625048D01*
X97107143Y-111625048D01*
X112490476Y-106830762D02*
X112633333Y-106878381D01*
X112871429Y-106878381D01*
X112966667Y-106830762D01*
X113014286Y-106783143D01*
X113061905Y-106687905D01*
X113061905Y-106592667D01*
X113014286Y-106497429D01*
X112966667Y-106449810D01*
X112871429Y-106402190D01*
X112680952Y-106354571D01*
X112585714Y-106306952D01*
X112538095Y-106259333D01*
X112490476Y-106164095D01*
X112490476Y-106068857D01*
X112538095Y-105973619D01*
X112585714Y-105926000D01*
X112680952Y-105878381D01*
X112919048Y-105878381D01*
X113061905Y-105926000D01*
X113395238Y-105878381D02*
X113633333Y-106878381D01*
X113823810Y-106164095D01*
X114014286Y-106878381D01*
X114252381Y-105878381D01*
X114538095Y-105878381D02*
X115157143Y-105878381D01*
X114823809Y-106259333D01*
X114966667Y-106259333D01*
X115061905Y-106306952D01*
X115109524Y-106354571D01*
X115157143Y-106449810D01*
X115157143Y-106687905D01*
X115109524Y-106783143D01*
X115061905Y-106830762D01*
X114966667Y-106878381D01*
X114680952Y-106878381D01*
X114585714Y-106830762D01*
X114538095Y-106783143D01*
X116061905Y-105878381D02*
X115585714Y-105878381D01*
X115538095Y-106354571D01*
X115585714Y-106306952D01*
X115680952Y-106259333D01*
X115919048Y-106259333D01*
X116014286Y-106306952D01*
X116061905Y-106354571D01*
X116109524Y-106449810D01*
X116109524Y-106687905D01*
X116061905Y-106783143D01*
X116014286Y-106830762D01*
X115919048Y-106878381D01*
X115680952Y-106878381D01*
X115585714Y-106830762D01*
X115538095Y-106783143D01*
X131540476Y-111910762D02*
X131683333Y-111958381D01*
X131921429Y-111958381D01*
X132016667Y-111910762D01*
X132064286Y-111863143D01*
X132111905Y-111767905D01*
X132111905Y-111672667D01*
X132064286Y-111577429D01*
X132016667Y-111529810D01*
X131921429Y-111482190D01*
X131730952Y-111434571D01*
X131635714Y-111386952D01*
X131588095Y-111339333D01*
X131540476Y-111244095D01*
X131540476Y-111148857D01*
X131588095Y-111053619D01*
X131635714Y-111006000D01*
X131730952Y-110958381D01*
X131969048Y-110958381D01*
X132111905Y-111006000D01*
X132445238Y-110958381D02*
X132683333Y-111958381D01*
X132873810Y-111244095D01*
X133064286Y-111958381D01*
X133302381Y-110958381D01*
X133588095Y-110958381D02*
X134207143Y-110958381D01*
X133873809Y-111339333D01*
X134016667Y-111339333D01*
X134111905Y-111386952D01*
X134159524Y-111434571D01*
X134207143Y-111529810D01*
X134207143Y-111767905D01*
X134159524Y-111863143D01*
X134111905Y-111910762D01*
X134016667Y-111958381D01*
X133730952Y-111958381D01*
X133635714Y-111910762D01*
X133588095Y-111863143D01*
X135064286Y-110958381D02*
X134873809Y-110958381D01*
X134778571Y-111006000D01*
X134730952Y-111053619D01*
X134635714Y-111196476D01*
X134588095Y-111386952D01*
X134588095Y-111767905D01*
X134635714Y-111863143D01*
X134683333Y-111910762D01*
X134778571Y-111958381D01*
X134969048Y-111958381D01*
X135064286Y-111910762D01*
X135111905Y-111863143D01*
X135159524Y-111767905D01*
X135159524Y-111529810D01*
X135111905Y-111434571D01*
X135064286Y-111386952D01*
X134969048Y-111339333D01*
X134778571Y-111339333D01*
X134683333Y-111386952D01*
X134635714Y-111434571D01*
X134588095Y-111529810D01*
X150590476Y-106830762D02*
X150733333Y-106878381D01*
X150971429Y-106878381D01*
X151066667Y-106830762D01*
X151114286Y-106783143D01*
X151161905Y-106687905D01*
X151161905Y-106592667D01*
X151114286Y-106497429D01*
X151066667Y-106449810D01*
X150971429Y-106402190D01*
X150780952Y-106354571D01*
X150685714Y-106306952D01*
X150638095Y-106259333D01*
X150590476Y-106164095D01*
X150590476Y-106068857D01*
X150638095Y-105973619D01*
X150685714Y-105926000D01*
X150780952Y-105878381D01*
X151019048Y-105878381D01*
X151161905Y-105926000D01*
X151495238Y-105878381D02*
X151733333Y-106878381D01*
X151923810Y-106164095D01*
X152114286Y-106878381D01*
X152352381Y-105878381D01*
X152638095Y-105878381D02*
X153257143Y-105878381D01*
X152923809Y-106259333D01*
X153066667Y-106259333D01*
X153161905Y-106306952D01*
X153209524Y-106354571D01*
X153257143Y-106449810D01*
X153257143Y-106687905D01*
X153209524Y-106783143D01*
X153161905Y-106830762D01*
X153066667Y-106878381D01*
X152780952Y-106878381D01*
X152685714Y-106830762D01*
X152638095Y-106783143D01*
X153590476Y-105878381D02*
X154257143Y-105878381D01*
X153828571Y-106878381D01*
X169640476Y-106830762D02*
X169783333Y-106878381D01*
X170021429Y-106878381D01*
X170116667Y-106830762D01*
X170164286Y-106783143D01*
X170211905Y-106687905D01*
X170211905Y-106592667D01*
X170164286Y-106497429D01*
X170116667Y-106449810D01*
X170021429Y-106402190D01*
X169830952Y-106354571D01*
X169735714Y-106306952D01*
X169688095Y-106259333D01*
X169640476Y-106164095D01*
X169640476Y-106068857D01*
X169688095Y-105973619D01*
X169735714Y-105926000D01*
X169830952Y-105878381D01*
X170069048Y-105878381D01*
X170211905Y-105926000D01*
X170545238Y-105878381D02*
X170783333Y-106878381D01*
X170973810Y-106164095D01*
X171164286Y-106878381D01*
X171402381Y-105878381D01*
X171688095Y-105878381D02*
X172307143Y-105878381D01*
X171973809Y-106259333D01*
X172116667Y-106259333D01*
X172211905Y-106306952D01*
X172259524Y-106354571D01*
X172307143Y-106449810D01*
X172307143Y-106687905D01*
X172259524Y-106783143D01*
X172211905Y-106830762D01*
X172116667Y-106878381D01*
X171830952Y-106878381D01*
X171735714Y-106830762D01*
X171688095Y-106783143D01*
X172878571Y-106306952D02*
X172783333Y-106259333D01*
X172735714Y-106211714D01*
X172688095Y-106116476D01*
X172688095Y-106068857D01*
X172735714Y-105973619D01*
X172783333Y-105926000D01*
X172878571Y-105878381D01*
X173069048Y-105878381D01*
X173164286Y-105926000D01*
X173211905Y-105973619D01*
X173259524Y-106068857D01*
X173259524Y-106116476D01*
X173211905Y-106211714D01*
X173164286Y-106259333D01*
X173069048Y-106306952D01*
X172878571Y-106306952D01*
X172783333Y-106354571D01*
X172735714Y-106402190D01*
X172688095Y-106497429D01*
X172688095Y-106687905D01*
X172735714Y-106783143D01*
X172783333Y-106830762D01*
X172878571Y-106878381D01*
X173069048Y-106878381D01*
X173164286Y-106830762D01*
X173211905Y-106783143D01*
X173259524Y-106687905D01*
X173259524Y-106497429D01*
X173211905Y-106402190D01*
X173164286Y-106354571D01*
X173069048Y-106306952D01*
X55816667Y-43330762D02*
X55959524Y-43378381D01*
X56197620Y-43378381D01*
X56292858Y-43330762D01*
X56340477Y-43283143D01*
X56388096Y-43187905D01*
X56388096Y-43092667D01*
X56340477Y-42997429D01*
X56292858Y-42949810D01*
X56197620Y-42902190D01*
X56007143Y-42854571D01*
X55911905Y-42806952D01*
X55864286Y-42759333D01*
X55816667Y-42664095D01*
X55816667Y-42568857D01*
X55864286Y-42473619D01*
X55911905Y-42426000D01*
X56007143Y-42378381D01*
X56245239Y-42378381D01*
X56388096Y-42426000D01*
X56721429Y-42378381D02*
X56959524Y-43378381D01*
X57150001Y-42664095D01*
X57340477Y-43378381D01*
X57578572Y-42378381D01*
X58150000Y-42378381D02*
X58245239Y-42378381D01*
X58340477Y-42426000D01*
X58388096Y-42473619D01*
X58435715Y-42568857D01*
X58483334Y-42759333D01*
X58483334Y-42997429D01*
X58435715Y-43187905D01*
X58388096Y-43283143D01*
X58340477Y-43330762D01*
X58245239Y-43378381D01*
X58150000Y-43378381D01*
X58054762Y-43330762D01*
X58007143Y-43283143D01*
X57959524Y-43187905D01*
X57911905Y-42997429D01*
X57911905Y-42759333D01*
X57959524Y-42568857D01*
X58007143Y-42473619D01*
X58054762Y-42426000D01*
X58150000Y-42378381D01*
X55816667Y-62380762D02*
X55959524Y-62428381D01*
X56197620Y-62428381D01*
X56292858Y-62380762D01*
X56340477Y-62333143D01*
X56388096Y-62237905D01*
X56388096Y-62142667D01*
X56340477Y-62047429D01*
X56292858Y-61999810D01*
X56197620Y-61952190D01*
X56007143Y-61904571D01*
X55911905Y-61856952D01*
X55864286Y-61809333D01*
X55816667Y-61714095D01*
X55816667Y-61618857D01*
X55864286Y-61523619D01*
X55911905Y-61476000D01*
X56007143Y-61428381D01*
X56245239Y-61428381D01*
X56388096Y-61476000D01*
X56721429Y-61428381D02*
X56959524Y-62428381D01*
X57150001Y-61714095D01*
X57340477Y-62428381D01*
X57578572Y-61428381D01*
X58102381Y-61856952D02*
X58007143Y-61809333D01*
X57959524Y-61761714D01*
X57911905Y-61666476D01*
X57911905Y-61618857D01*
X57959524Y-61523619D01*
X58007143Y-61476000D01*
X58102381Y-61428381D01*
X58292858Y-61428381D01*
X58388096Y-61476000D01*
X58435715Y-61523619D01*
X58483334Y-61618857D01*
X58483334Y-61666476D01*
X58435715Y-61761714D01*
X58388096Y-61809333D01*
X58292858Y-61856952D01*
X58102381Y-61856952D01*
X58007143Y-61904571D01*
X57959524Y-61952190D01*
X57911905Y-62047429D01*
X57911905Y-62237905D01*
X57959524Y-62333143D01*
X58007143Y-62380762D01*
X58102381Y-62428381D01*
X58292858Y-62428381D01*
X58388096Y-62380762D01*
X58435715Y-62333143D01*
X58483334Y-62237905D01*
X58483334Y-62047429D01*
X58435715Y-61952190D01*
X58388096Y-61904571D01*
X58292858Y-61856952D01*
X55340476Y-81430762D02*
X55483333Y-81478381D01*
X55721429Y-81478381D01*
X55816667Y-81430762D01*
X55864286Y-81383143D01*
X55911905Y-81287905D01*
X55911905Y-81192667D01*
X55864286Y-81097429D01*
X55816667Y-81049810D01*
X55721429Y-81002190D01*
X55530952Y-80954571D01*
X55435714Y-80906952D01*
X55388095Y-80859333D01*
X55340476Y-80764095D01*
X55340476Y-80668857D01*
X55388095Y-80573619D01*
X55435714Y-80526000D01*
X55530952Y-80478381D01*
X55769048Y-80478381D01*
X55911905Y-80526000D01*
X56245238Y-80478381D02*
X56483333Y-81478381D01*
X56673810Y-80764095D01*
X56864286Y-81478381D01*
X57102381Y-80478381D01*
X58007143Y-81478381D02*
X57435714Y-81478381D01*
X57721428Y-81478381D02*
X57721428Y-80478381D01*
X57626190Y-80621238D01*
X57530952Y-80716476D01*
X57435714Y-80764095D01*
X58864286Y-80478381D02*
X58673809Y-80478381D01*
X58578571Y-80526000D01*
X58530952Y-80573619D01*
X58435714Y-80716476D01*
X58388095Y-80906952D01*
X58388095Y-81287905D01*
X58435714Y-81383143D01*
X58483333Y-81430762D01*
X58578571Y-81478381D01*
X58769048Y-81478381D01*
X58864286Y-81430762D01*
X58911905Y-81383143D01*
X58959524Y-81287905D01*
X58959524Y-81049810D01*
X58911905Y-80954571D01*
X58864286Y-80906952D01*
X58769048Y-80859333D01*
X58578571Y-80859333D01*
X58483333Y-80906952D01*
X58435714Y-80954571D01*
X58388095Y-81049810D01*
X55340476Y-100480762D02*
X55483333Y-100528381D01*
X55721429Y-100528381D01*
X55816667Y-100480762D01*
X55864286Y-100433143D01*
X55911905Y-100337905D01*
X55911905Y-100242667D01*
X55864286Y-100147429D01*
X55816667Y-100099810D01*
X55721429Y-100052190D01*
X55530952Y-100004571D01*
X55435714Y-99956952D01*
X55388095Y-99909333D01*
X55340476Y-99814095D01*
X55340476Y-99718857D01*
X55388095Y-99623619D01*
X55435714Y-99576000D01*
X55530952Y-99528381D01*
X55769048Y-99528381D01*
X55911905Y-99576000D01*
X56245238Y-99528381D02*
X56483333Y-100528381D01*
X56673810Y-99814095D01*
X56864286Y-100528381D01*
X57102381Y-99528381D01*
X57435714Y-99623619D02*
X57483333Y-99576000D01*
X57578571Y-99528381D01*
X57816667Y-99528381D01*
X57911905Y-99576000D01*
X57959524Y-99623619D01*
X58007143Y-99718857D01*
X58007143Y-99814095D01*
X57959524Y-99956952D01*
X57388095Y-100528381D01*
X58007143Y-100528381D01*
X58864286Y-99861714D02*
X58864286Y-100528381D01*
X58626190Y-99480762D02*
X58388095Y-100195048D01*
X59007143Y-100195048D01*
X112966667Y-30630762D02*
X113109524Y-30678381D01*
X113347620Y-30678381D01*
X113442858Y-30630762D01*
X113490477Y-30583143D01*
X113538096Y-30487905D01*
X113538096Y-30392667D01*
X113490477Y-30297429D01*
X113442858Y-30249810D01*
X113347620Y-30202190D01*
X113157143Y-30154571D01*
X113061905Y-30106952D01*
X113014286Y-30059333D01*
X112966667Y-29964095D01*
X112966667Y-29868857D01*
X113014286Y-29773619D01*
X113061905Y-29726000D01*
X113157143Y-29678381D01*
X113395239Y-29678381D01*
X113538096Y-29726000D01*
X113871429Y-29678381D02*
X114109524Y-30678381D01*
X114300001Y-29964095D01*
X114490477Y-30678381D01*
X114728572Y-29678381D01*
X115014286Y-29678381D02*
X115633334Y-29678381D01*
X115300000Y-30059333D01*
X115442858Y-30059333D01*
X115538096Y-30106952D01*
X115585715Y-30154571D01*
X115633334Y-30249810D01*
X115633334Y-30487905D01*
X115585715Y-30583143D01*
X115538096Y-30630762D01*
X115442858Y-30678381D01*
X115157143Y-30678381D01*
X115061905Y-30630762D01*
X115014286Y-30583143D01*
X179941190Y-76676191D02*
X180417381Y-76676191D01*
X179417381Y-77009524D02*
X179941190Y-76676191D01*
X179417381Y-76342857D01*
X180417381Y-75485714D02*
X180417381Y-76057143D01*
X180417381Y-75771429D02*
X179417381Y-75771429D01*
X179560238Y-75866667D01*
X179655476Y-75961905D01*
X179703095Y-76057143D01*
X160488334Y-50744381D02*
X160155000Y-50268190D01*
X159916905Y-50744381D02*
X159916905Y-49744381D01*
X160297858Y-49744381D01*
X160393096Y-49792000D01*
X160440715Y-49839619D01*
X160488334Y-49934857D01*
X160488334Y-50077714D01*
X160440715Y-50172952D01*
X160393096Y-50220571D01*
X160297858Y-50268190D01*
X159916905Y-50268190D01*
X161393096Y-49744381D02*
X160916905Y-49744381D01*
X160869286Y-50220571D01*
X160916905Y-50172952D01*
X161012143Y-50125333D01*
X161250239Y-50125333D01*
X161345477Y-50172952D01*
X161393096Y-50220571D01*
X161440715Y-50315810D01*
X161440715Y-50553905D01*
X161393096Y-50649143D01*
X161345477Y-50696762D01*
X161250239Y-50744381D01*
X161012143Y-50744381D01*
X160916905Y-50696762D01*
X160869286Y-50649143D01*
X163028334Y-50744381D02*
X162695000Y-50268190D01*
X162456905Y-50744381D02*
X162456905Y-49744381D01*
X162837858Y-49744381D01*
X162933096Y-49792000D01*
X162980715Y-49839619D01*
X163028334Y-49934857D01*
X163028334Y-50077714D01*
X162980715Y-50172952D01*
X162933096Y-50220571D01*
X162837858Y-50268190D01*
X162456905Y-50268190D01*
X163885477Y-50077714D02*
X163885477Y-50744381D01*
X163647381Y-49696762D02*
X163409286Y-50411048D01*
X164028334Y-50411048D01*
X159457381Y-66206666D02*
X158981190Y-66540000D01*
X159457381Y-66778095D02*
X158457381Y-66778095D01*
X158457381Y-66397142D01*
X158505000Y-66301904D01*
X158552619Y-66254285D01*
X158647857Y-66206666D01*
X158790714Y-66206666D01*
X158885952Y-66254285D01*
X158933571Y-66301904D01*
X158981190Y-66397142D01*
X158981190Y-66778095D01*
X158457381Y-65873333D02*
X158457381Y-65254285D01*
X158838333Y-65587619D01*
X158838333Y-65444761D01*
X158885952Y-65349523D01*
X158933571Y-65301904D01*
X159028810Y-65254285D01*
X159266905Y-65254285D01*
X159362143Y-65301904D01*
X159409762Y-65349523D01*
X159457381Y-65444761D01*
X159457381Y-65730476D01*
X159409762Y-65825714D01*
X159362143Y-65873333D01*
X132294334Y-31440381D02*
X131961000Y-30964190D01*
X131722905Y-31440381D02*
X131722905Y-30440381D01*
X132103858Y-30440381D01*
X132199096Y-30488000D01*
X132246715Y-30535619D01*
X132294334Y-30630857D01*
X132294334Y-30773714D01*
X132246715Y-30868952D01*
X132199096Y-30916571D01*
X132103858Y-30964190D01*
X131722905Y-30964190D01*
X132675286Y-30535619D02*
X132722905Y-30488000D01*
X132818143Y-30440381D01*
X133056239Y-30440381D01*
X133151477Y-30488000D01*
X133199096Y-30535619D01*
X133246715Y-30630857D01*
X133246715Y-30726095D01*
X133199096Y-30868952D01*
X132627667Y-31440381D01*
X133246715Y-31440381D01*
X132421334Y-33853381D02*
X132088000Y-33377190D01*
X131849905Y-33853381D02*
X131849905Y-32853381D01*
X132230858Y-32853381D01*
X132326096Y-32901000D01*
X132373715Y-32948619D01*
X132421334Y-33043857D01*
X132421334Y-33186714D01*
X132373715Y-33281952D01*
X132326096Y-33329571D01*
X132230858Y-33377190D01*
X131849905Y-33377190D01*
X133373715Y-33853381D02*
X132802286Y-33853381D01*
X133088000Y-33853381D02*
X133088000Y-32853381D01*
X132992762Y-32996238D01*
X132897524Y-33091476D01*
X132802286Y-33139095D01*
X179173143Y-82462666D02*
X179220762Y-82510285D01*
X179268381Y-82653142D01*
X179268381Y-82748380D01*
X179220762Y-82891238D01*
X179125524Y-82986476D01*
X179030286Y-83034095D01*
X178839810Y-83081714D01*
X178696952Y-83081714D01*
X178506476Y-83034095D01*
X178411238Y-82986476D01*
X178316000Y-82891238D01*
X178268381Y-82748380D01*
X178268381Y-82653142D01*
X178316000Y-82510285D01*
X178363619Y-82462666D01*
X178601714Y-81605523D02*
X179268381Y-81605523D01*
X178220762Y-81843619D02*
X178935048Y-82081714D01*
X178935048Y-81462666D01*
X179173143Y-70270666D02*
X179220762Y-70318285D01*
X179268381Y-70461142D01*
X179268381Y-70556380D01*
X179220762Y-70699238D01*
X179125524Y-70794476D01*
X179030286Y-70842095D01*
X178839810Y-70889714D01*
X178696952Y-70889714D01*
X178506476Y-70842095D01*
X178411238Y-70794476D01*
X178316000Y-70699238D01*
X178268381Y-70556380D01*
X178268381Y-70461142D01*
X178316000Y-70318285D01*
X178363619Y-70270666D01*
X178268381Y-69937333D02*
X178268381Y-69318285D01*
X178649333Y-69651619D01*
X178649333Y-69508761D01*
X178696952Y-69413523D01*
X178744571Y-69365904D01*
X178839810Y-69318285D01*
X179077905Y-69318285D01*
X179173143Y-69365904D01*
X179220762Y-69413523D01*
X179268381Y-69508761D01*
X179268381Y-69794476D01*
X179220762Y-69889714D01*
X179173143Y-69937333D01*
X173188381Y-47958333D02*
X173902667Y-47958333D01*
X174045524Y-48005953D01*
X174140762Y-48101191D01*
X174188381Y-48244048D01*
X174188381Y-48339286D01*
X173283619Y-47529762D02*
X173236000Y-47482143D01*
X173188381Y-47386905D01*
X173188381Y-47148809D01*
X173236000Y-47053571D01*
X173283619Y-47005952D01*
X173378857Y-46958333D01*
X173474095Y-46958333D01*
X173616952Y-47005952D01*
X174188381Y-47577381D01*
X174188381Y-46958333D01*
X65365476Y-95677381D02*
X65365476Y-94677381D01*
X65698810Y-95391667D01*
X66032143Y-94677381D01*
X66032143Y-95677381D01*
X66508333Y-95677381D02*
X66508333Y-94677381D01*
X67079762Y-95677381D02*
X66651190Y-95105952D01*
X67079762Y-94677381D02*
X66508333Y-95248810D01*
X68032143Y-95677381D02*
X67460714Y-95677381D01*
X67746428Y-95677381D02*
X67746428Y-94677381D01*
X67651190Y-94820238D01*
X67555952Y-94915476D01*
X67460714Y-94963095D01*
X160615476Y-102027381D02*
X160615476Y-101027381D01*
X160948810Y-101741667D01*
X161282143Y-101027381D01*
X161282143Y-102027381D01*
X161758333Y-102027381D02*
X161758333Y-101027381D01*
X162329762Y-102027381D02*
X161901190Y-101455952D01*
X162329762Y-101027381D02*
X161758333Y-101598810D01*
X162710714Y-101122619D02*
X162758333Y-101075000D01*
X162853571Y-101027381D01*
X163091667Y-101027381D01*
X163186905Y-101075000D01*
X163234524Y-101122619D01*
X163282143Y-101217857D01*
X163282143Y-101313095D01*
X163234524Y-101455952D01*
X162663095Y-102027381D01*
X163282143Y-102027381D01*
X160615476Y-44877381D02*
X160615476Y-43877381D01*
X160948810Y-44591667D01*
X161282143Y-43877381D01*
X161282143Y-44877381D01*
X161758333Y-44877381D02*
X161758333Y-43877381D01*
X162329762Y-44877381D02*
X161901190Y-44305952D01*
X162329762Y-43877381D02*
X161758333Y-44448810D01*
X162663095Y-43877381D02*
X163282143Y-43877381D01*
X162948809Y-44258333D01*
X163091667Y-44258333D01*
X163186905Y-44305952D01*
X163234524Y-44353571D01*
X163282143Y-44448810D01*
X163282143Y-44686905D01*
X163234524Y-44782143D01*
X163186905Y-44829762D01*
X163091667Y-44877381D01*
X162805952Y-44877381D01*
X162710714Y-44829762D01*
X162663095Y-44782143D01*
X65365476Y-57577381D02*
X65365476Y-56577381D01*
X65698810Y-57291667D01*
X66032143Y-56577381D01*
X66032143Y-57577381D01*
X66508333Y-57577381D02*
X66508333Y-56577381D01*
X67079762Y-57577381D02*
X66651190Y-57005952D01*
X67079762Y-56577381D02*
X66508333Y-57148810D01*
X67936905Y-56910714D02*
X67936905Y-57577381D01*
X67698809Y-56529762D02*
X67460714Y-57244048D01*
X68079762Y-57244048D01*
X102830476Y-107107381D02*
X102830476Y-106107381D01*
X103163810Y-106821667D01*
X103497143Y-106107381D01*
X103497143Y-107107381D01*
X103973333Y-107107381D02*
X103973333Y-106107381D01*
X104544762Y-107107381D02*
X104116190Y-106535952D01*
X104544762Y-106107381D02*
X103973333Y-106678810D01*
X105449524Y-106107381D02*
X104973333Y-106107381D01*
X104925714Y-106583571D01*
X104973333Y-106535952D01*
X105068571Y-106488333D01*
X105306667Y-106488333D01*
X105401905Y-106535952D01*
X105449524Y-106583571D01*
X105497143Y-106678810D01*
X105497143Y-106916905D01*
X105449524Y-107012143D01*
X105401905Y-107059762D01*
X105306667Y-107107381D01*
X105068571Y-107107381D01*
X104973333Y-107059762D01*
X104925714Y-107012143D01*
X121880476Y-44877381D02*
X121880476Y-43877381D01*
X122213810Y-44591667D01*
X122547143Y-43877381D01*
X122547143Y-44877381D01*
X123023333Y-44877381D02*
X123023333Y-43877381D01*
X123594762Y-44877381D02*
X123166190Y-44305952D01*
X123594762Y-43877381D02*
X123023333Y-44448810D01*
X124451905Y-43877381D02*
X124261428Y-43877381D01*
X124166190Y-43925000D01*
X124118571Y-43972619D01*
X124023333Y-44115476D01*
X123975714Y-44305952D01*
X123975714Y-44686905D01*
X124023333Y-44782143D01*
X124070952Y-44829762D01*
X124166190Y-44877381D01*
X124356667Y-44877381D01*
X124451905Y-44829762D01*
X124499524Y-44782143D01*
X124547143Y-44686905D01*
X124547143Y-44448810D01*
X124499524Y-44353571D01*
X124451905Y-44305952D01*
X124356667Y-44258333D01*
X124166190Y-44258333D01*
X124070952Y-44305952D01*
X124023333Y-44353571D01*
X123975714Y-44448810D01*
X102830476Y-69007381D02*
X102830476Y-68007381D01*
X103163810Y-68721667D01*
X103497143Y-68007381D01*
X103497143Y-69007381D01*
X103973333Y-69007381D02*
X103973333Y-68007381D01*
X104544762Y-69007381D02*
X104116190Y-68435952D01*
X104544762Y-68007381D02*
X103973333Y-68578810D01*
X104878095Y-68007381D02*
X105544762Y-68007381D01*
X105116190Y-69007381D01*
X147264381Y-87034524D02*
X146264381Y-87034524D01*
X146978667Y-86701190D01*
X146264381Y-86367857D01*
X147264381Y-86367857D01*
X147264381Y-85891667D02*
X146264381Y-85891667D01*
X147264381Y-85320238D02*
X146692952Y-85748810D01*
X146264381Y-85320238D02*
X146835810Y-85891667D01*
X146692952Y-84748810D02*
X146645333Y-84844048D01*
X146597714Y-84891667D01*
X146502476Y-84939286D01*
X146454857Y-84939286D01*
X146359619Y-84891667D01*
X146312000Y-84844048D01*
X146264381Y-84748810D01*
X146264381Y-84558333D01*
X146312000Y-84463095D01*
X146359619Y-84415476D01*
X146454857Y-84367857D01*
X146502476Y-84367857D01*
X146597714Y-84415476D01*
X146645333Y-84463095D01*
X146692952Y-84558333D01*
X146692952Y-84748810D01*
X146740571Y-84844048D01*
X146788190Y-84891667D01*
X146883429Y-84939286D01*
X147073905Y-84939286D01*
X147169143Y-84891667D01*
X147216762Y-84844048D01*
X147264381Y-84748810D01*
X147264381Y-84558333D01*
X147216762Y-84463095D01*
X147169143Y-84415476D01*
X147073905Y-84367857D01*
X146883429Y-84367857D01*
X146788190Y-84415476D01*
X146740571Y-84463095D01*
X146692952Y-84558333D01*
X165584143Y-47632857D02*
X165631762Y-47680476D01*
X165679381Y-47823333D01*
X165679381Y-47918571D01*
X165631762Y-48061429D01*
X165536524Y-48156667D01*
X165441286Y-48204286D01*
X165250810Y-48251905D01*
X165107952Y-48251905D01*
X164917476Y-48204286D01*
X164822238Y-48156667D01*
X164727000Y-48061429D01*
X164679381Y-47918571D01*
X164679381Y-47823333D01*
X164727000Y-47680476D01*
X164774619Y-47632857D01*
X165679381Y-46680476D02*
X165679381Y-47251905D01*
X165679381Y-46966191D02*
X164679381Y-46966191D01*
X164822238Y-47061429D01*
X164917476Y-47156667D01*
X164965095Y-47251905D01*
X164774619Y-46299524D02*
X164727000Y-46251905D01*
X164679381Y-46156667D01*
X164679381Y-45918571D01*
X164727000Y-45823333D01*
X164774619Y-45775714D01*
X164869857Y-45728095D01*
X164965095Y-45728095D01*
X165107952Y-45775714D01*
X165679381Y-46347143D01*
X165679381Y-45728095D01*
X177859762Y-104679524D02*
X177907381Y-104536667D01*
X177907381Y-104298571D01*
X177859762Y-104203333D01*
X177812143Y-104155714D01*
X177716905Y-104108095D01*
X177621667Y-104108095D01*
X177526429Y-104155714D01*
X177478810Y-104203333D01*
X177431190Y-104298571D01*
X177383571Y-104489048D01*
X177335952Y-104584286D01*
X177288333Y-104631905D01*
X177193095Y-104679524D01*
X177097857Y-104679524D01*
X177002619Y-104631905D01*
X176955000Y-104584286D01*
X176907381Y-104489048D01*
X176907381Y-104250952D01*
X176955000Y-104108095D01*
X176907381Y-103774762D02*
X177907381Y-103536667D01*
X177193095Y-103346190D01*
X177907381Y-103155714D01*
X176907381Y-102917619D01*
X177240714Y-102108095D02*
X177907381Y-102108095D01*
X176859762Y-102346191D02*
X177574048Y-102584286D01*
X177574048Y-101965238D01*
X176907381Y-101393810D02*
X176907381Y-101298571D01*
X176955000Y-101203333D01*
X177002619Y-101155714D01*
X177097857Y-101108095D01*
X177288333Y-101060476D01*
X177526429Y-101060476D01*
X177716905Y-101108095D01*
X177812143Y-101155714D01*
X177859762Y-101203333D01*
X177907381Y-101298571D01*
X177907381Y-101393810D01*
X177859762Y-101489048D01*
X177812143Y-101536667D01*
X177716905Y-101584286D01*
X177526429Y-101631905D01*
X177288333Y-101631905D01*
X177097857Y-101584286D01*
X177002619Y-101536667D01*
X176955000Y-101489048D01*
X176907381Y-101393810D01*
X179728762Y-63722024D02*
X179776381Y-63579167D01*
X179776381Y-63341071D01*
X179728762Y-63245833D01*
X179681143Y-63198214D01*
X179585905Y-63150595D01*
X179490667Y-63150595D01*
X179395429Y-63198214D01*
X179347810Y-63245833D01*
X179300190Y-63341071D01*
X179252571Y-63531548D01*
X179204952Y-63626786D01*
X179157333Y-63674405D01*
X179062095Y-63722024D01*
X178966857Y-63722024D01*
X178871619Y-63674405D01*
X178824000Y-63626786D01*
X178776381Y-63531548D01*
X178776381Y-63293452D01*
X178824000Y-63150595D01*
X178776381Y-62817262D02*
X179776381Y-62579167D01*
X179062095Y-62388690D01*
X179776381Y-62198214D01*
X178776381Y-61960119D01*
X179776381Y-61055357D02*
X179776381Y-61626786D01*
X179776381Y-61341072D02*
X178776381Y-61341072D01*
X178919238Y-61436310D01*
X179014476Y-61531548D01*
X179062095Y-61626786D01*
X179109714Y-60198214D02*
X179776381Y-60198214D01*
X178728762Y-60436310D02*
X179443048Y-60674405D01*
X179443048Y-60055357D01*
X179728762Y-92297024D02*
X179776381Y-92154167D01*
X179776381Y-91916071D01*
X179728762Y-91820833D01*
X179681143Y-91773214D01*
X179585905Y-91725595D01*
X179490667Y-91725595D01*
X179395429Y-91773214D01*
X179347810Y-91820833D01*
X179300190Y-91916071D01*
X179252571Y-92106548D01*
X179204952Y-92201786D01*
X179157333Y-92249405D01*
X179062095Y-92297024D01*
X178966857Y-92297024D01*
X178871619Y-92249405D01*
X178824000Y-92201786D01*
X178776381Y-92106548D01*
X178776381Y-91868452D01*
X178824000Y-91725595D01*
X178776381Y-91392262D02*
X179776381Y-91154167D01*
X179062095Y-90963690D01*
X179776381Y-90773214D01*
X178776381Y-90535119D01*
X178776381Y-90249405D02*
X178776381Y-89630357D01*
X179157333Y-89963691D01*
X179157333Y-89820833D01*
X179204952Y-89725595D01*
X179252571Y-89677976D01*
X179347810Y-89630357D01*
X179585905Y-89630357D01*
X179681143Y-89677976D01*
X179728762Y-89725595D01*
X179776381Y-89820833D01*
X179776381Y-90106548D01*
X179728762Y-90201786D01*
X179681143Y-90249405D01*
X178776381Y-89011310D02*
X178776381Y-88916071D01*
X178824000Y-88820833D01*
X178871619Y-88773214D01*
X178966857Y-88725595D01*
X179157333Y-88677976D01*
X179395429Y-88677976D01*
X179585905Y-88725595D01*
X179681143Y-88773214D01*
X179728762Y-88820833D01*
X179776381Y-88916071D01*
X179776381Y-89011310D01*
X179728762Y-89106548D01*
X179681143Y-89154167D01*
X179585905Y-89201786D01*
X179395429Y-89249405D01*
X179157333Y-89249405D01*
X178966857Y-89201786D01*
X178871619Y-89154167D01*
X178824000Y-89106548D01*
X178776381Y-89011310D01*
X65127381Y-51538095D02*
X64127381Y-51538095D01*
X64127381Y-51300000D01*
X64175000Y-51157142D01*
X64270238Y-51061904D01*
X64365476Y-51014285D01*
X64555952Y-50966666D01*
X64698810Y-50966666D01*
X64889286Y-51014285D01*
X64984524Y-51061904D01*
X65079762Y-51157142D01*
X65127381Y-51300000D01*
X65127381Y-51538095D01*
X64127381Y-50347619D02*
X64127381Y-50252380D01*
X64175000Y-50157142D01*
X64222619Y-50109523D01*
X64317857Y-50061904D01*
X64508333Y-50014285D01*
X64746429Y-50014285D01*
X64936905Y-50061904D01*
X65032143Y-50109523D01*
X65079762Y-50157142D01*
X65127381Y-50252380D01*
X65127381Y-50347619D01*
X65079762Y-50442857D01*
X65032143Y-50490476D01*
X64936905Y-50538095D01*
X64746429Y-50585714D01*
X64508333Y-50585714D01*
X64317857Y-50538095D01*
X64222619Y-50490476D01*
X64175000Y-50442857D01*
X64127381Y-50347619D01*
X84177381Y-51538095D02*
X83177381Y-51538095D01*
X83177381Y-51300000D01*
X83225000Y-51157142D01*
X83320238Y-51061904D01*
X83415476Y-51014285D01*
X83605952Y-50966666D01*
X83748810Y-50966666D01*
X83939286Y-51014285D01*
X84034524Y-51061904D01*
X84129762Y-51157142D01*
X84177381Y-51300000D01*
X84177381Y-51538095D01*
X84177381Y-50014285D02*
X84177381Y-50585714D01*
X84177381Y-50300000D02*
X83177381Y-50300000D01*
X83320238Y-50395238D01*
X83415476Y-50490476D01*
X83463095Y-50585714D01*
X103227381Y-43918095D02*
X102227381Y-43918095D01*
X102227381Y-43680000D01*
X102275000Y-43537142D01*
X102370238Y-43441904D01*
X102465476Y-43394285D01*
X102655952Y-43346666D01*
X102798810Y-43346666D01*
X102989286Y-43394285D01*
X103084524Y-43441904D01*
X103179762Y-43537142D01*
X103227381Y-43680000D01*
X103227381Y-43918095D01*
X102322619Y-42965714D02*
X102275000Y-42918095D01*
X102227381Y-42822857D01*
X102227381Y-42584761D01*
X102275000Y-42489523D01*
X102322619Y-42441904D01*
X102417857Y-42394285D01*
X102513095Y-42394285D01*
X102655952Y-42441904D01*
X103227381Y-43013333D01*
X103227381Y-42394285D01*
X122277381Y-38838095D02*
X121277381Y-38838095D01*
X121277381Y-38600000D01*
X121325000Y-38457142D01*
X121420238Y-38361904D01*
X121515476Y-38314285D01*
X121705952Y-38266666D01*
X121848810Y-38266666D01*
X122039286Y-38314285D01*
X122134524Y-38361904D01*
X122229762Y-38457142D01*
X122277381Y-38600000D01*
X122277381Y-38838095D01*
X121277381Y-37933333D02*
X121277381Y-37314285D01*
X121658333Y-37647619D01*
X121658333Y-37504761D01*
X121705952Y-37409523D01*
X121753571Y-37361904D01*
X121848810Y-37314285D01*
X122086905Y-37314285D01*
X122182143Y-37361904D01*
X122229762Y-37409523D01*
X122277381Y-37504761D01*
X122277381Y-37790476D01*
X122229762Y-37885714D01*
X122182143Y-37933333D01*
X141327381Y-43918095D02*
X140327381Y-43918095D01*
X140327381Y-43680000D01*
X140375000Y-43537142D01*
X140470238Y-43441904D01*
X140565476Y-43394285D01*
X140755952Y-43346666D01*
X140898810Y-43346666D01*
X141089286Y-43394285D01*
X141184524Y-43441904D01*
X141279762Y-43537142D01*
X141327381Y-43680000D01*
X141327381Y-43918095D01*
X140660714Y-42489523D02*
X141327381Y-42489523D01*
X140279762Y-42727619D02*
X140994048Y-42965714D01*
X140994048Y-42346666D01*
X159916905Y-41727381D02*
X159916905Y-40727381D01*
X160155000Y-40727381D01*
X160297858Y-40775000D01*
X160393096Y-40870238D01*
X160440715Y-40965476D01*
X160488334Y-41155952D01*
X160488334Y-41298810D01*
X160440715Y-41489286D01*
X160393096Y-41584524D01*
X160297858Y-41679762D01*
X160155000Y-41727381D01*
X159916905Y-41727381D01*
X161393096Y-40727381D02*
X160916905Y-40727381D01*
X160869286Y-41203571D01*
X160916905Y-41155952D01*
X161012143Y-41108333D01*
X161250239Y-41108333D01*
X161345477Y-41155952D01*
X161393096Y-41203571D01*
X161440715Y-41298810D01*
X161440715Y-41536905D01*
X161393096Y-41632143D01*
X161345477Y-41679762D01*
X161250239Y-41727381D01*
X161012143Y-41727381D01*
X160916905Y-41679762D01*
X160869286Y-41632143D01*
X162456905Y-41727381D02*
X162456905Y-40727381D01*
X162695000Y-40727381D01*
X162837858Y-40775000D01*
X162933096Y-40870238D01*
X162980715Y-40965476D01*
X163028334Y-41155952D01*
X163028334Y-41298810D01*
X162980715Y-41489286D01*
X162933096Y-41584524D01*
X162837858Y-41679762D01*
X162695000Y-41727381D01*
X162456905Y-41727381D01*
X163885477Y-40727381D02*
X163695000Y-40727381D01*
X163599762Y-40775000D01*
X163552143Y-40822619D01*
X163456905Y-40965476D01*
X163409286Y-41155952D01*
X163409286Y-41536905D01*
X163456905Y-41632143D01*
X163504524Y-41679762D01*
X163599762Y-41727381D01*
X163790239Y-41727381D01*
X163885477Y-41679762D01*
X163933096Y-41632143D01*
X163980715Y-41536905D01*
X163980715Y-41298810D01*
X163933096Y-41203571D01*
X163885477Y-41155952D01*
X163790239Y-41108333D01*
X163599762Y-41108333D01*
X163504524Y-41155952D01*
X163456905Y-41203571D01*
X163409286Y-41298810D01*
X65127381Y-70588095D02*
X64127381Y-70588095D01*
X64127381Y-70350000D01*
X64175000Y-70207142D01*
X64270238Y-70111904D01*
X64365476Y-70064285D01*
X64555952Y-70016666D01*
X64698810Y-70016666D01*
X64889286Y-70064285D01*
X64984524Y-70111904D01*
X65079762Y-70207142D01*
X65127381Y-70350000D01*
X65127381Y-70588095D01*
X64555952Y-69445238D02*
X64508333Y-69540476D01*
X64460714Y-69588095D01*
X64365476Y-69635714D01*
X64317857Y-69635714D01*
X64222619Y-69588095D01*
X64175000Y-69540476D01*
X64127381Y-69445238D01*
X64127381Y-69254761D01*
X64175000Y-69159523D01*
X64222619Y-69111904D01*
X64317857Y-69064285D01*
X64365476Y-69064285D01*
X64460714Y-69111904D01*
X64508333Y-69159523D01*
X64555952Y-69254761D01*
X64555952Y-69445238D01*
X64603571Y-69540476D01*
X64651190Y-69588095D01*
X64746429Y-69635714D01*
X64936905Y-69635714D01*
X65032143Y-69588095D01*
X65079762Y-69540476D01*
X65127381Y-69445238D01*
X65127381Y-69254761D01*
X65079762Y-69159523D01*
X65032143Y-69111904D01*
X64936905Y-69064285D01*
X64746429Y-69064285D01*
X64651190Y-69111904D01*
X64603571Y-69159523D01*
X64555952Y-69254761D01*
X84177381Y-70588095D02*
X83177381Y-70588095D01*
X83177381Y-70350000D01*
X83225000Y-70207142D01*
X83320238Y-70111904D01*
X83415476Y-70064285D01*
X83605952Y-70016666D01*
X83748810Y-70016666D01*
X83939286Y-70064285D01*
X84034524Y-70111904D01*
X84129762Y-70207142D01*
X84177381Y-70350000D01*
X84177381Y-70588095D01*
X84177381Y-69540476D02*
X84177381Y-69350000D01*
X84129762Y-69254761D01*
X84082143Y-69207142D01*
X83939286Y-69111904D01*
X83748810Y-69064285D01*
X83367857Y-69064285D01*
X83272619Y-69111904D01*
X83225000Y-69159523D01*
X83177381Y-69254761D01*
X83177381Y-69445238D01*
X83225000Y-69540476D01*
X83272619Y-69588095D01*
X83367857Y-69635714D01*
X83605952Y-69635714D01*
X83701190Y-69588095D01*
X83748810Y-69540476D01*
X83796429Y-69445238D01*
X83796429Y-69254761D01*
X83748810Y-69159523D01*
X83701190Y-69111904D01*
X83605952Y-69064285D01*
X103227381Y-63444286D02*
X102227381Y-63444286D01*
X102227381Y-63206191D01*
X102275000Y-63063333D01*
X102370238Y-62968095D01*
X102465476Y-62920476D01*
X102655952Y-62872857D01*
X102798810Y-62872857D01*
X102989286Y-62920476D01*
X103084524Y-62968095D01*
X103179762Y-63063333D01*
X103227381Y-63206191D01*
X103227381Y-63444286D01*
X103227381Y-61920476D02*
X103227381Y-62491905D01*
X103227381Y-62206191D02*
X102227381Y-62206191D01*
X102370238Y-62301429D01*
X102465476Y-62396667D01*
X102513095Y-62491905D01*
X102227381Y-61301429D02*
X102227381Y-61206190D01*
X102275000Y-61110952D01*
X102322619Y-61063333D01*
X102417857Y-61015714D01*
X102608333Y-60968095D01*
X102846429Y-60968095D01*
X103036905Y-61015714D01*
X103132143Y-61063333D01*
X103179762Y-61110952D01*
X103227381Y-61206190D01*
X103227381Y-61301429D01*
X103179762Y-61396667D01*
X103132143Y-61444286D01*
X103036905Y-61491905D01*
X102846429Y-61539524D01*
X102608333Y-61539524D01*
X102417857Y-61491905D01*
X102322619Y-61444286D01*
X102275000Y-61396667D01*
X102227381Y-61301429D01*
X122277381Y-58364286D02*
X121277381Y-58364286D01*
X121277381Y-58126191D01*
X121325000Y-57983333D01*
X121420238Y-57888095D01*
X121515476Y-57840476D01*
X121705952Y-57792857D01*
X121848810Y-57792857D01*
X122039286Y-57840476D01*
X122134524Y-57888095D01*
X122229762Y-57983333D01*
X122277381Y-58126191D01*
X122277381Y-58364286D01*
X122277381Y-56840476D02*
X122277381Y-57411905D01*
X122277381Y-57126191D02*
X121277381Y-57126191D01*
X121420238Y-57221429D01*
X121515476Y-57316667D01*
X121563095Y-57411905D01*
X122277381Y-55888095D02*
X122277381Y-56459524D01*
X122277381Y-56173810D02*
X121277381Y-56173810D01*
X121420238Y-56269048D01*
X121515476Y-56364286D01*
X121563095Y-56459524D01*
X141327381Y-63444286D02*
X140327381Y-63444286D01*
X140327381Y-63206191D01*
X140375000Y-63063333D01*
X140470238Y-62968095D01*
X140565476Y-62920476D01*
X140755952Y-62872857D01*
X140898810Y-62872857D01*
X141089286Y-62920476D01*
X141184524Y-62968095D01*
X141279762Y-63063333D01*
X141327381Y-63206191D01*
X141327381Y-63444286D01*
X141327381Y-61920476D02*
X141327381Y-62491905D01*
X141327381Y-62206191D02*
X140327381Y-62206191D01*
X140470238Y-62301429D01*
X140565476Y-62396667D01*
X140613095Y-62491905D01*
X140422619Y-61539524D02*
X140375000Y-61491905D01*
X140327381Y-61396667D01*
X140327381Y-61158571D01*
X140375000Y-61063333D01*
X140422619Y-61015714D01*
X140517857Y-60968095D01*
X140613095Y-60968095D01*
X140755952Y-61015714D01*
X141327381Y-61587143D01*
X141327381Y-60968095D01*
X158805714Y-60777381D02*
X158805714Y-59777381D01*
X159043809Y-59777381D01*
X159186667Y-59825000D01*
X159281905Y-59920238D01*
X159329524Y-60015476D01*
X159377143Y-60205952D01*
X159377143Y-60348810D01*
X159329524Y-60539286D01*
X159281905Y-60634524D01*
X159186667Y-60729762D01*
X159043809Y-60777381D01*
X158805714Y-60777381D01*
X160329524Y-60777381D02*
X159758095Y-60777381D01*
X160043809Y-60777381D02*
X160043809Y-59777381D01*
X159948571Y-59920238D01*
X159853333Y-60015476D01*
X159758095Y-60063095D01*
X160662857Y-59777381D02*
X161281905Y-59777381D01*
X160948571Y-60158333D01*
X161091429Y-60158333D01*
X161186667Y-60205952D01*
X161234286Y-60253571D01*
X161281905Y-60348810D01*
X161281905Y-60586905D01*
X161234286Y-60682143D01*
X161186667Y-60729762D01*
X161091429Y-60777381D01*
X160805714Y-60777381D01*
X160710476Y-60729762D01*
X160662857Y-60682143D01*
X162615714Y-60777381D02*
X162615714Y-59777381D01*
X162853809Y-59777381D01*
X162996667Y-59825000D01*
X163091905Y-59920238D01*
X163139524Y-60015476D01*
X163187143Y-60205952D01*
X163187143Y-60348810D01*
X163139524Y-60539286D01*
X163091905Y-60634524D01*
X162996667Y-60729762D01*
X162853809Y-60777381D01*
X162615714Y-60777381D01*
X164139524Y-60777381D02*
X163568095Y-60777381D01*
X163853809Y-60777381D02*
X163853809Y-59777381D01*
X163758571Y-59920238D01*
X163663333Y-60015476D01*
X163568095Y-60063095D01*
X164996667Y-60110714D02*
X164996667Y-60777381D01*
X164758571Y-59729762D02*
X164520476Y-60444048D01*
X165139524Y-60444048D01*
X65127381Y-90114286D02*
X64127381Y-90114286D01*
X64127381Y-89876191D01*
X64175000Y-89733333D01*
X64270238Y-89638095D01*
X64365476Y-89590476D01*
X64555952Y-89542857D01*
X64698810Y-89542857D01*
X64889286Y-89590476D01*
X64984524Y-89638095D01*
X65079762Y-89733333D01*
X65127381Y-89876191D01*
X65127381Y-90114286D01*
X65127381Y-88590476D02*
X65127381Y-89161905D01*
X65127381Y-88876191D02*
X64127381Y-88876191D01*
X64270238Y-88971429D01*
X64365476Y-89066667D01*
X64413095Y-89161905D01*
X64127381Y-87733333D02*
X64127381Y-87923810D01*
X64175000Y-88019048D01*
X64222619Y-88066667D01*
X64365476Y-88161905D01*
X64555952Y-88209524D01*
X64936905Y-88209524D01*
X65032143Y-88161905D01*
X65079762Y-88114286D01*
X65127381Y-88019048D01*
X65127381Y-87828571D01*
X65079762Y-87733333D01*
X65032143Y-87685714D01*
X64936905Y-87638095D01*
X64698810Y-87638095D01*
X64603571Y-87685714D01*
X64555952Y-87733333D01*
X64508333Y-87828571D01*
X64508333Y-88019048D01*
X64555952Y-88114286D01*
X64603571Y-88161905D01*
X64698810Y-88209524D01*
X84177381Y-90114286D02*
X83177381Y-90114286D01*
X83177381Y-89876191D01*
X83225000Y-89733333D01*
X83320238Y-89638095D01*
X83415476Y-89590476D01*
X83605952Y-89542857D01*
X83748810Y-89542857D01*
X83939286Y-89590476D01*
X84034524Y-89638095D01*
X84129762Y-89733333D01*
X84177381Y-89876191D01*
X84177381Y-90114286D01*
X84177381Y-88590476D02*
X84177381Y-89161905D01*
X84177381Y-88876191D02*
X83177381Y-88876191D01*
X83320238Y-88971429D01*
X83415476Y-89066667D01*
X83463095Y-89161905D01*
X83177381Y-88257143D02*
X83177381Y-87590476D01*
X84177381Y-88019048D01*
X103227381Y-82494286D02*
X102227381Y-82494286D01*
X102227381Y-82256191D01*
X102275000Y-82113333D01*
X102370238Y-82018095D01*
X102465476Y-81970476D01*
X102655952Y-81922857D01*
X102798810Y-81922857D01*
X102989286Y-81970476D01*
X103084524Y-82018095D01*
X103179762Y-82113333D01*
X103227381Y-82256191D01*
X103227381Y-82494286D01*
X103227381Y-80970476D02*
X103227381Y-81541905D01*
X103227381Y-81256191D02*
X102227381Y-81256191D01*
X102370238Y-81351429D01*
X102465476Y-81446667D01*
X102513095Y-81541905D01*
X102655952Y-80399048D02*
X102608333Y-80494286D01*
X102560714Y-80541905D01*
X102465476Y-80589524D01*
X102417857Y-80589524D01*
X102322619Y-80541905D01*
X102275000Y-80494286D01*
X102227381Y-80399048D01*
X102227381Y-80208571D01*
X102275000Y-80113333D01*
X102322619Y-80065714D01*
X102417857Y-80018095D01*
X102465476Y-80018095D01*
X102560714Y-80065714D01*
X102608333Y-80113333D01*
X102655952Y-80208571D01*
X102655952Y-80399048D01*
X102703571Y-80494286D01*
X102751190Y-80541905D01*
X102846429Y-80589524D01*
X103036905Y-80589524D01*
X103132143Y-80541905D01*
X103179762Y-80494286D01*
X103227381Y-80399048D01*
X103227381Y-80208571D01*
X103179762Y-80113333D01*
X103132143Y-80065714D01*
X103036905Y-80018095D01*
X102846429Y-80018095D01*
X102751190Y-80065714D01*
X102703571Y-80113333D01*
X102655952Y-80208571D01*
X122277381Y-77414286D02*
X121277381Y-77414286D01*
X121277381Y-77176191D01*
X121325000Y-77033333D01*
X121420238Y-76938095D01*
X121515476Y-76890476D01*
X121705952Y-76842857D01*
X121848810Y-76842857D01*
X122039286Y-76890476D01*
X122134524Y-76938095D01*
X122229762Y-77033333D01*
X122277381Y-77176191D01*
X122277381Y-77414286D01*
X122277381Y-75890476D02*
X122277381Y-76461905D01*
X122277381Y-76176191D02*
X121277381Y-76176191D01*
X121420238Y-76271429D01*
X121515476Y-76366667D01*
X121563095Y-76461905D01*
X122277381Y-75414286D02*
X122277381Y-75223810D01*
X122229762Y-75128571D01*
X122182143Y-75080952D01*
X122039286Y-74985714D01*
X121848810Y-74938095D01*
X121467857Y-74938095D01*
X121372619Y-74985714D01*
X121325000Y-75033333D01*
X121277381Y-75128571D01*
X121277381Y-75319048D01*
X121325000Y-75414286D01*
X121372619Y-75461905D01*
X121467857Y-75509524D01*
X121705952Y-75509524D01*
X121801190Y-75461905D01*
X121848810Y-75414286D01*
X121896429Y-75319048D01*
X121896429Y-75128571D01*
X121848810Y-75033333D01*
X121801190Y-74985714D01*
X121705952Y-74938095D01*
X139755714Y-82367381D02*
X139755714Y-81367381D01*
X139993809Y-81367381D01*
X140136667Y-81415000D01*
X140231905Y-81510238D01*
X140279524Y-81605476D01*
X140327143Y-81795952D01*
X140327143Y-81938810D01*
X140279524Y-82129286D01*
X140231905Y-82224524D01*
X140136667Y-82319762D01*
X139993809Y-82367381D01*
X139755714Y-82367381D01*
X140708095Y-81462619D02*
X140755714Y-81415000D01*
X140850952Y-81367381D01*
X141089048Y-81367381D01*
X141184286Y-81415000D01*
X141231905Y-81462619D01*
X141279524Y-81557857D01*
X141279524Y-81653095D01*
X141231905Y-81795952D01*
X140660476Y-82367381D01*
X141279524Y-82367381D01*
X141898571Y-81367381D02*
X141993810Y-81367381D01*
X142089048Y-81415000D01*
X142136667Y-81462619D01*
X142184286Y-81557857D01*
X142231905Y-81748333D01*
X142231905Y-81986429D01*
X142184286Y-82176905D01*
X142136667Y-82272143D01*
X142089048Y-82319762D01*
X141993810Y-82367381D01*
X141898571Y-82367381D01*
X141803333Y-82319762D01*
X141755714Y-82272143D01*
X141708095Y-82176905D01*
X141660476Y-81986429D01*
X141660476Y-81748333D01*
X141708095Y-81557857D01*
X141755714Y-81462619D01*
X141803333Y-81415000D01*
X141898571Y-81367381D01*
X143565714Y-82367381D02*
X143565714Y-81367381D01*
X143803809Y-81367381D01*
X143946667Y-81415000D01*
X144041905Y-81510238D01*
X144089524Y-81605476D01*
X144137143Y-81795952D01*
X144137143Y-81938810D01*
X144089524Y-82129286D01*
X144041905Y-82224524D01*
X143946667Y-82319762D01*
X143803809Y-82367381D01*
X143565714Y-82367381D01*
X144518095Y-81462619D02*
X144565714Y-81415000D01*
X144660952Y-81367381D01*
X144899048Y-81367381D01*
X144994286Y-81415000D01*
X145041905Y-81462619D01*
X145089524Y-81557857D01*
X145089524Y-81653095D01*
X145041905Y-81795952D01*
X144470476Y-82367381D01*
X145089524Y-82367381D01*
X146041905Y-82367381D02*
X145470476Y-82367381D01*
X145756190Y-82367381D02*
X145756190Y-81367381D01*
X145660952Y-81510238D01*
X145565714Y-81605476D01*
X145470476Y-81653095D01*
X65127381Y-109164286D02*
X64127381Y-109164286D01*
X64127381Y-108926191D01*
X64175000Y-108783333D01*
X64270238Y-108688095D01*
X64365476Y-108640476D01*
X64555952Y-108592857D01*
X64698810Y-108592857D01*
X64889286Y-108640476D01*
X64984524Y-108688095D01*
X65079762Y-108783333D01*
X65127381Y-108926191D01*
X65127381Y-109164286D01*
X64222619Y-108211905D02*
X64175000Y-108164286D01*
X64127381Y-108069048D01*
X64127381Y-107830952D01*
X64175000Y-107735714D01*
X64222619Y-107688095D01*
X64317857Y-107640476D01*
X64413095Y-107640476D01*
X64555952Y-107688095D01*
X65127381Y-108259524D01*
X65127381Y-107640476D01*
X64460714Y-106783333D02*
X65127381Y-106783333D01*
X64079762Y-107021429D02*
X64794048Y-107259524D01*
X64794048Y-106640476D01*
X84177381Y-109164286D02*
X83177381Y-109164286D01*
X83177381Y-108926191D01*
X83225000Y-108783333D01*
X83320238Y-108688095D01*
X83415476Y-108640476D01*
X83605952Y-108592857D01*
X83748810Y-108592857D01*
X83939286Y-108640476D01*
X84034524Y-108688095D01*
X84129762Y-108783333D01*
X84177381Y-108926191D01*
X84177381Y-109164286D01*
X83272619Y-108211905D02*
X83225000Y-108164286D01*
X83177381Y-108069048D01*
X83177381Y-107830952D01*
X83225000Y-107735714D01*
X83272619Y-107688095D01*
X83367857Y-107640476D01*
X83463095Y-107640476D01*
X83605952Y-107688095D01*
X84177381Y-108259524D01*
X84177381Y-107640476D01*
X83177381Y-106735714D02*
X83177381Y-107211905D01*
X83653571Y-107259524D01*
X83605952Y-107211905D01*
X83558333Y-107116667D01*
X83558333Y-106878571D01*
X83605952Y-106783333D01*
X83653571Y-106735714D01*
X83748810Y-106688095D01*
X83986905Y-106688095D01*
X84082143Y-106735714D01*
X84129762Y-106783333D01*
X84177381Y-106878571D01*
X84177381Y-107116667D01*
X84129762Y-107211905D01*
X84082143Y-107259524D01*
X103227381Y-101544286D02*
X102227381Y-101544286D01*
X102227381Y-101306191D01*
X102275000Y-101163333D01*
X102370238Y-101068095D01*
X102465476Y-101020476D01*
X102655952Y-100972857D01*
X102798810Y-100972857D01*
X102989286Y-101020476D01*
X103084524Y-101068095D01*
X103179762Y-101163333D01*
X103227381Y-101306191D01*
X103227381Y-101544286D01*
X102322619Y-100591905D02*
X102275000Y-100544286D01*
X102227381Y-100449048D01*
X102227381Y-100210952D01*
X102275000Y-100115714D01*
X102322619Y-100068095D01*
X102417857Y-100020476D01*
X102513095Y-100020476D01*
X102655952Y-100068095D01*
X103227381Y-100639524D01*
X103227381Y-100020476D01*
X102227381Y-99163333D02*
X102227381Y-99353810D01*
X102275000Y-99449048D01*
X102322619Y-99496667D01*
X102465476Y-99591905D01*
X102655952Y-99639524D01*
X103036905Y-99639524D01*
X103132143Y-99591905D01*
X103179762Y-99544286D01*
X103227381Y-99449048D01*
X103227381Y-99258571D01*
X103179762Y-99163333D01*
X103132143Y-99115714D01*
X103036905Y-99068095D01*
X102798810Y-99068095D01*
X102703571Y-99115714D01*
X102655952Y-99163333D01*
X102608333Y-99258571D01*
X102608333Y-99449048D01*
X102655952Y-99544286D01*
X102703571Y-99591905D01*
X102798810Y-99639524D01*
X122277381Y-96464286D02*
X121277381Y-96464286D01*
X121277381Y-96226191D01*
X121325000Y-96083333D01*
X121420238Y-95988095D01*
X121515476Y-95940476D01*
X121705952Y-95892857D01*
X121848810Y-95892857D01*
X122039286Y-95940476D01*
X122134524Y-95988095D01*
X122229762Y-96083333D01*
X122277381Y-96226191D01*
X122277381Y-96464286D01*
X121372619Y-95511905D02*
X121325000Y-95464286D01*
X121277381Y-95369048D01*
X121277381Y-95130952D01*
X121325000Y-95035714D01*
X121372619Y-94988095D01*
X121467857Y-94940476D01*
X121563095Y-94940476D01*
X121705952Y-94988095D01*
X122277381Y-95559524D01*
X122277381Y-94940476D01*
X121277381Y-94607143D02*
X121277381Y-93940476D01*
X122277381Y-94369048D01*
X141327381Y-101544286D02*
X140327381Y-101544286D01*
X140327381Y-101306191D01*
X140375000Y-101163333D01*
X140470238Y-101068095D01*
X140565476Y-101020476D01*
X140755952Y-100972857D01*
X140898810Y-100972857D01*
X141089286Y-101020476D01*
X141184524Y-101068095D01*
X141279762Y-101163333D01*
X141327381Y-101306191D01*
X141327381Y-101544286D01*
X140422619Y-100591905D02*
X140375000Y-100544286D01*
X140327381Y-100449048D01*
X140327381Y-100210952D01*
X140375000Y-100115714D01*
X140422619Y-100068095D01*
X140517857Y-100020476D01*
X140613095Y-100020476D01*
X140755952Y-100068095D01*
X141327381Y-100639524D01*
X141327381Y-100020476D01*
X140755952Y-99449048D02*
X140708333Y-99544286D01*
X140660714Y-99591905D01*
X140565476Y-99639524D01*
X140517857Y-99639524D01*
X140422619Y-99591905D01*
X140375000Y-99544286D01*
X140327381Y-99449048D01*
X140327381Y-99258571D01*
X140375000Y-99163333D01*
X140422619Y-99115714D01*
X140517857Y-99068095D01*
X140565476Y-99068095D01*
X140660714Y-99115714D01*
X140708333Y-99163333D01*
X140755952Y-99258571D01*
X140755952Y-99449048D01*
X140803571Y-99544286D01*
X140851190Y-99591905D01*
X140946429Y-99639524D01*
X141136905Y-99639524D01*
X141232143Y-99591905D01*
X141279762Y-99544286D01*
X141327381Y-99449048D01*
X141327381Y-99258571D01*
X141279762Y-99163333D01*
X141232143Y-99115714D01*
X141136905Y-99068095D01*
X140946429Y-99068095D01*
X140851190Y-99115714D01*
X140803571Y-99163333D01*
X140755952Y-99258571D01*
X160377381Y-96464286D02*
X159377381Y-96464286D01*
X159377381Y-96226191D01*
X159425000Y-96083333D01*
X159520238Y-95988095D01*
X159615476Y-95940476D01*
X159805952Y-95892857D01*
X159948810Y-95892857D01*
X160139286Y-95940476D01*
X160234524Y-95988095D01*
X160329762Y-96083333D01*
X160377381Y-96226191D01*
X160377381Y-96464286D01*
X159472619Y-95511905D02*
X159425000Y-95464286D01*
X159377381Y-95369048D01*
X159377381Y-95130952D01*
X159425000Y-95035714D01*
X159472619Y-94988095D01*
X159567857Y-94940476D01*
X159663095Y-94940476D01*
X159805952Y-94988095D01*
X160377381Y-95559524D01*
X160377381Y-94940476D01*
X160377381Y-94464286D02*
X160377381Y-94273810D01*
X160329762Y-94178571D01*
X160282143Y-94130952D01*
X160139286Y-94035714D01*
X159948810Y-93988095D01*
X159567857Y-93988095D01*
X159472619Y-94035714D01*
X159425000Y-94083333D01*
X159377381Y-94178571D01*
X159377381Y-94369048D01*
X159425000Y-94464286D01*
X159472619Y-94511905D01*
X159567857Y-94559524D01*
X159805952Y-94559524D01*
X159901190Y-94511905D01*
X159948810Y-94464286D01*
X159996429Y-94369048D01*
X159996429Y-94178571D01*
X159948810Y-94083333D01*
X159901190Y-94035714D01*
X159805952Y-93988095D01*
X160377381Y-88844286D02*
X159377381Y-88844286D01*
X159377381Y-88606191D01*
X159425000Y-88463333D01*
X159520238Y-88368095D01*
X159615476Y-88320476D01*
X159805952Y-88272857D01*
X159948810Y-88272857D01*
X160139286Y-88320476D01*
X160234524Y-88368095D01*
X160329762Y-88463333D01*
X160377381Y-88606191D01*
X160377381Y-88844286D01*
X159377381Y-87939524D02*
X159377381Y-87320476D01*
X159758333Y-87653810D01*
X159758333Y-87510952D01*
X159805952Y-87415714D01*
X159853571Y-87368095D01*
X159948810Y-87320476D01*
X160186905Y-87320476D01*
X160282143Y-87368095D01*
X160329762Y-87415714D01*
X160377381Y-87510952D01*
X160377381Y-87796667D01*
X160329762Y-87891905D01*
X160282143Y-87939524D01*
X159377381Y-86701429D02*
X159377381Y-86606190D01*
X159425000Y-86510952D01*
X159472619Y-86463333D01*
X159567857Y-86415714D01*
X159758333Y-86368095D01*
X159996429Y-86368095D01*
X160186905Y-86415714D01*
X160282143Y-86463333D01*
X160329762Y-86510952D01*
X160377381Y-86606190D01*
X160377381Y-86701429D01*
X160329762Y-86796667D01*
X160282143Y-86844286D01*
X160186905Y-86891905D01*
X159996429Y-86939524D01*
X159758333Y-86939524D01*
X159567857Y-86891905D01*
X159472619Y-86844286D01*
X159425000Y-86796667D01*
X159377381Y-86701429D01*
X103227381Y-120594286D02*
X102227381Y-120594286D01*
X102227381Y-120356191D01*
X102275000Y-120213333D01*
X102370238Y-120118095D01*
X102465476Y-120070476D01*
X102655952Y-120022857D01*
X102798810Y-120022857D01*
X102989286Y-120070476D01*
X103084524Y-120118095D01*
X103179762Y-120213333D01*
X103227381Y-120356191D01*
X103227381Y-120594286D01*
X102227381Y-119689524D02*
X102227381Y-119070476D01*
X102608333Y-119403810D01*
X102608333Y-119260952D01*
X102655952Y-119165714D01*
X102703571Y-119118095D01*
X102798810Y-119070476D01*
X103036905Y-119070476D01*
X103132143Y-119118095D01*
X103179762Y-119165714D01*
X103227381Y-119260952D01*
X103227381Y-119546667D01*
X103179762Y-119641905D01*
X103132143Y-119689524D01*
X102560714Y-118213333D02*
X103227381Y-118213333D01*
X102179762Y-118451429D02*
X102894048Y-118689524D01*
X102894048Y-118070476D01*
X122277381Y-115514286D02*
X121277381Y-115514286D01*
X121277381Y-115276191D01*
X121325000Y-115133333D01*
X121420238Y-115038095D01*
X121515476Y-114990476D01*
X121705952Y-114942857D01*
X121848810Y-114942857D01*
X122039286Y-114990476D01*
X122134524Y-115038095D01*
X122229762Y-115133333D01*
X122277381Y-115276191D01*
X122277381Y-115514286D01*
X121277381Y-114609524D02*
X121277381Y-113990476D01*
X121658333Y-114323810D01*
X121658333Y-114180952D01*
X121705952Y-114085714D01*
X121753571Y-114038095D01*
X121848810Y-113990476D01*
X122086905Y-113990476D01*
X122182143Y-114038095D01*
X122229762Y-114085714D01*
X122277381Y-114180952D01*
X122277381Y-114466667D01*
X122229762Y-114561905D01*
X122182143Y-114609524D01*
X121277381Y-113085714D02*
X121277381Y-113561905D01*
X121753571Y-113609524D01*
X121705952Y-113561905D01*
X121658333Y-113466667D01*
X121658333Y-113228571D01*
X121705952Y-113133333D01*
X121753571Y-113085714D01*
X121848810Y-113038095D01*
X122086905Y-113038095D01*
X122182143Y-113085714D01*
X122229762Y-113133333D01*
X122277381Y-113228571D01*
X122277381Y-113466667D01*
X122229762Y-113561905D01*
X122182143Y-113609524D01*
X141327381Y-120594286D02*
X140327381Y-120594286D01*
X140327381Y-120356191D01*
X140375000Y-120213333D01*
X140470238Y-120118095D01*
X140565476Y-120070476D01*
X140755952Y-120022857D01*
X140898810Y-120022857D01*
X141089286Y-120070476D01*
X141184524Y-120118095D01*
X141279762Y-120213333D01*
X141327381Y-120356191D01*
X141327381Y-120594286D01*
X140327381Y-119689524D02*
X140327381Y-119070476D01*
X140708333Y-119403810D01*
X140708333Y-119260952D01*
X140755952Y-119165714D01*
X140803571Y-119118095D01*
X140898810Y-119070476D01*
X141136905Y-119070476D01*
X141232143Y-119118095D01*
X141279762Y-119165714D01*
X141327381Y-119260952D01*
X141327381Y-119546667D01*
X141279762Y-119641905D01*
X141232143Y-119689524D01*
X140327381Y-118213333D02*
X140327381Y-118403810D01*
X140375000Y-118499048D01*
X140422619Y-118546667D01*
X140565476Y-118641905D01*
X140755952Y-118689524D01*
X141136905Y-118689524D01*
X141232143Y-118641905D01*
X141279762Y-118594286D01*
X141327381Y-118499048D01*
X141327381Y-118308571D01*
X141279762Y-118213333D01*
X141232143Y-118165714D01*
X141136905Y-118118095D01*
X140898810Y-118118095D01*
X140803571Y-118165714D01*
X140755952Y-118213333D01*
X140708333Y-118308571D01*
X140708333Y-118499048D01*
X140755952Y-118594286D01*
X140803571Y-118641905D01*
X140898810Y-118689524D01*
X158805714Y-117927381D02*
X158805714Y-116927381D01*
X159043809Y-116927381D01*
X159186667Y-116975000D01*
X159281905Y-117070238D01*
X159329524Y-117165476D01*
X159377143Y-117355952D01*
X159377143Y-117498810D01*
X159329524Y-117689286D01*
X159281905Y-117784524D01*
X159186667Y-117879762D01*
X159043809Y-117927381D01*
X158805714Y-117927381D01*
X159710476Y-116927381D02*
X160329524Y-116927381D01*
X159996190Y-117308333D01*
X160139048Y-117308333D01*
X160234286Y-117355952D01*
X160281905Y-117403571D01*
X160329524Y-117498810D01*
X160329524Y-117736905D01*
X160281905Y-117832143D01*
X160234286Y-117879762D01*
X160139048Y-117927381D01*
X159853333Y-117927381D01*
X159758095Y-117879762D01*
X159710476Y-117832143D01*
X160662857Y-116927381D02*
X161329524Y-116927381D01*
X160900952Y-117927381D01*
X162615714Y-117927381D02*
X162615714Y-116927381D01*
X162853809Y-116927381D01*
X162996667Y-116975000D01*
X163091905Y-117070238D01*
X163139524Y-117165476D01*
X163187143Y-117355952D01*
X163187143Y-117498810D01*
X163139524Y-117689286D01*
X163091905Y-117784524D01*
X162996667Y-117879762D01*
X162853809Y-117927381D01*
X162615714Y-117927381D01*
X163520476Y-116927381D02*
X164139524Y-116927381D01*
X163806190Y-117308333D01*
X163949048Y-117308333D01*
X164044286Y-117355952D01*
X164091905Y-117403571D01*
X164139524Y-117498810D01*
X164139524Y-117736905D01*
X164091905Y-117832143D01*
X164044286Y-117879762D01*
X163949048Y-117927381D01*
X163663333Y-117927381D01*
X163568095Y-117879762D01*
X163520476Y-117832143D01*
X164710952Y-117355952D02*
X164615714Y-117308333D01*
X164568095Y-117260714D01*
X164520476Y-117165476D01*
X164520476Y-117117857D01*
X164568095Y-117022619D01*
X164615714Y-116975000D01*
X164710952Y-116927381D01*
X164901429Y-116927381D01*
X164996667Y-116975000D01*
X165044286Y-117022619D01*
X165091905Y-117117857D01*
X165091905Y-117165476D01*
X165044286Y-117260714D01*
X164996667Y-117308333D01*
X164901429Y-117355952D01*
X164710952Y-117355952D01*
X164615714Y-117403571D01*
X164568095Y-117451190D01*
X164520476Y-117546429D01*
X164520476Y-117736905D01*
X164568095Y-117832143D01*
X164615714Y-117879762D01*
X164710952Y-117927381D01*
X164901429Y-117927381D01*
X164996667Y-117879762D01*
X165044286Y-117832143D01*
X165091905Y-117736905D01*
X165091905Y-117546429D01*
X165044286Y-117451190D01*
X164996667Y-117403571D01*
X164901429Y-117355952D01*
%LPC*%
D14*
X154940000Y-52070000D03*
X148590000Y-54610000D03*
D15*
X152400000Y-57150000D03*
D16*
X147320000Y-57150000D03*
X157480000Y-57150000D03*
D14*
X149860000Y-52070000D03*
X156210000Y-54610000D03*
D17*
X142875000Y-57785000D03*
D18*
X142875000Y-55245000D03*
X142875000Y-52705000D03*
X142875000Y-50165000D03*
X142875000Y-47625000D03*
D17*
X120650000Y-126365000D03*
D18*
X118110000Y-126365000D03*
X115570000Y-126365000D03*
X113030000Y-126365000D03*
X110490000Y-126365000D03*
X107950000Y-126365000D03*
D14*
X154940000Y-71120000D03*
X148590000Y-73660000D03*
D15*
X152400000Y-76200000D03*
D16*
X147320000Y-76200000D03*
X157480000Y-76200000D03*
D14*
X149860000Y-71120000D03*
X156210000Y-73660000D03*
X97790000Y-38100000D03*
X91440000Y-40640000D03*
D15*
X95250000Y-43180000D03*
D16*
X90170000Y-43180000D03*
X100330000Y-43180000D03*
D14*
X92710000Y-38100000D03*
X99060000Y-40640000D03*
D10*
G36*
X83119646Y-38412952D02*
X83496279Y-40070706D01*
X82667402Y-40259022D01*
X82290769Y-38601268D01*
X83119646Y-38412952D01*
X83119646Y-38412952D01*
G37*
G36*
X82485799Y-38556958D02*
X82862432Y-40214712D01*
X82033555Y-40403028D01*
X81656922Y-38745274D01*
X82485799Y-38556958D01*
X82485799Y-38556958D01*
G37*
G36*
X81851952Y-38700965D02*
X82228585Y-40358719D01*
X81399708Y-40547035D01*
X81023075Y-38889281D01*
X81851952Y-38700965D01*
X81851952Y-38700965D01*
G37*
G36*
X81218105Y-38844971D02*
X81594738Y-40502725D01*
X80765861Y-40691041D01*
X80389228Y-39033287D01*
X81218105Y-38844971D01*
X81218105Y-38844971D01*
G37*
G36*
X80584258Y-38988978D02*
X80960891Y-40646732D01*
X80132014Y-40835048D01*
X79755381Y-39177294D01*
X80584258Y-38988978D01*
X80584258Y-38988978D01*
G37*
D19*
X85308110Y-39018140D02*
X85186258Y-38481808D01*
X78043247Y-40668676D02*
X77921395Y-40132344D01*
D20*
X84623575Y-35328098D02*
X84479569Y-34694250D01*
X77066168Y-37045099D02*
X76922162Y-36411251D01*
D21*
X83820000Y-37997464D02*
X83820000Y-37997464D01*
X78944253Y-39105207D02*
X78944253Y-39105207D01*
D22*
X163005000Y-81900000D03*
X163805000Y-81900000D03*
X164605000Y-81900000D03*
X165405000Y-81900000D03*
X166205000Y-81900000D03*
X167005000Y-81900000D03*
X167805000Y-81900000D03*
X168605000Y-81900000D03*
X169405000Y-81900000D03*
X170205000Y-81900000D03*
X171005000Y-81900000D03*
D23*
X172705000Y-80200000D03*
X172705000Y-79400000D03*
X172705000Y-78600000D03*
X172705000Y-77800000D03*
X172705000Y-77000000D03*
X172705000Y-76200000D03*
X172705000Y-75400000D03*
X172705000Y-74600000D03*
X172705000Y-73800000D03*
X172705000Y-73000000D03*
X172705000Y-72200000D03*
D22*
X171005000Y-70500000D03*
X170205000Y-70500000D03*
X169405000Y-70500000D03*
X168605000Y-70500000D03*
X167805000Y-70500000D03*
X167005000Y-70500000D03*
X166205000Y-70500000D03*
X165405000Y-70500000D03*
X164605000Y-70500000D03*
X163805000Y-70500000D03*
X163005000Y-70500000D03*
D23*
X161305000Y-72200000D03*
X161305000Y-73000000D03*
X161305000Y-73800000D03*
X161305000Y-74600000D03*
X161305000Y-75400000D03*
X161305000Y-76200000D03*
X161305000Y-77000000D03*
X161305000Y-77800000D03*
X161305000Y-78600000D03*
X161305000Y-79400000D03*
X161305000Y-80200000D03*
D24*
X171530000Y-51115000D03*
X171530000Y-50165000D03*
X171530000Y-49215000D03*
X168830000Y-49215000D03*
X168830000Y-51115000D03*
X168830000Y-50165000D03*
D25*
X168602500Y-53340000D03*
X166677500Y-53340000D03*
X84762500Y-43180000D03*
X86687500Y-43180000D03*
D24*
X101520000Y-32705000D03*
X101520000Y-33655000D03*
X101520000Y-34605000D03*
X104220000Y-34605000D03*
X104220000Y-32705000D03*
X104220000Y-33655000D03*
D14*
X78740000Y-45720000D03*
X72390000Y-48260000D03*
D15*
X76200000Y-50800000D03*
D16*
X71120000Y-50800000D03*
X81280000Y-50800000D03*
D14*
X73660000Y-45720000D03*
X80010000Y-48260000D03*
X135890000Y-38100000D03*
X129540000Y-40640000D03*
D15*
X133350000Y-43180000D03*
D16*
X128270000Y-43180000D03*
X138430000Y-43180000D03*
D14*
X130810000Y-38100000D03*
X137160000Y-40640000D03*
X154940000Y-33020000D03*
X148590000Y-35560000D03*
D15*
X152400000Y-38100000D03*
D16*
X147320000Y-38100000D03*
X157480000Y-38100000D03*
D14*
X149860000Y-33020000D03*
X156210000Y-35560000D03*
X173990000Y-33020000D03*
X167640000Y-35560000D03*
D15*
X171450000Y-38100000D03*
D16*
X166370000Y-38100000D03*
X176530000Y-38100000D03*
D14*
X168910000Y-33020000D03*
X175260000Y-35560000D03*
X78740000Y-64770000D03*
X72390000Y-67310000D03*
D15*
X76200000Y-69850000D03*
D16*
X71120000Y-69850000D03*
X81280000Y-69850000D03*
D14*
X73660000Y-64770000D03*
X80010000Y-67310000D03*
X97790000Y-57150000D03*
X91440000Y-59690000D03*
D15*
X95250000Y-62230000D03*
D16*
X90170000Y-62230000D03*
X100330000Y-62230000D03*
D14*
X92710000Y-57150000D03*
X99060000Y-59690000D03*
X116840000Y-52070000D03*
X110490000Y-54610000D03*
D15*
X114300000Y-57150000D03*
D16*
X109220000Y-57150000D03*
X119380000Y-57150000D03*
D14*
X111760000Y-52070000D03*
X118110000Y-54610000D03*
X135890000Y-57150000D03*
X129540000Y-59690000D03*
D15*
X133350000Y-62230000D03*
D16*
X128270000Y-62230000D03*
X138430000Y-62230000D03*
D14*
X130810000Y-57150000D03*
X137160000Y-59690000D03*
X78740000Y-83820000D03*
X72390000Y-86360000D03*
D15*
X76200000Y-88900000D03*
D16*
X71120000Y-88900000D03*
X81280000Y-88900000D03*
D14*
X73660000Y-83820000D03*
X80010000Y-86360000D03*
X97790000Y-76200000D03*
X91440000Y-78740000D03*
D15*
X95250000Y-81280000D03*
D16*
X90170000Y-81280000D03*
X100330000Y-81280000D03*
D14*
X92710000Y-76200000D03*
X99060000Y-78740000D03*
X116840000Y-71120000D03*
X110490000Y-73660000D03*
D15*
X114300000Y-76200000D03*
D16*
X109220000Y-76200000D03*
X119380000Y-76200000D03*
D14*
X111760000Y-71120000D03*
X118110000Y-73660000D03*
X135890000Y-76200000D03*
X129540000Y-78740000D03*
D15*
X133350000Y-81280000D03*
D16*
X128270000Y-81280000D03*
X138430000Y-81280000D03*
D14*
X130810000Y-76200000D03*
X137160000Y-78740000D03*
X78740000Y-102870000D03*
X72390000Y-105410000D03*
D15*
X76200000Y-107950000D03*
D16*
X71120000Y-107950000D03*
X81280000Y-107950000D03*
D14*
X73660000Y-102870000D03*
X80010000Y-105410000D03*
X97790000Y-95250000D03*
X91440000Y-97790000D03*
D15*
X95250000Y-100330000D03*
D16*
X90170000Y-100330000D03*
X100330000Y-100330000D03*
D14*
X92710000Y-95250000D03*
X99060000Y-97790000D03*
X116840000Y-90170000D03*
X110490000Y-92710000D03*
D15*
X114300000Y-95250000D03*
D16*
X109220000Y-95250000D03*
X119380000Y-95250000D03*
D14*
X111760000Y-90170000D03*
X118110000Y-92710000D03*
X135890000Y-95250000D03*
X129540000Y-97790000D03*
D15*
X133350000Y-100330000D03*
D16*
X128270000Y-100330000D03*
X138430000Y-100330000D03*
D14*
X130810000Y-95250000D03*
X137160000Y-97790000D03*
X154940000Y-90170000D03*
X148590000Y-92710000D03*
D15*
X152400000Y-95250000D03*
D16*
X147320000Y-95250000D03*
X157480000Y-95250000D03*
D14*
X149860000Y-90170000D03*
X156210000Y-92710000D03*
X97790000Y-114300000D03*
X91440000Y-116840000D03*
D15*
X95250000Y-119380000D03*
D16*
X90170000Y-119380000D03*
X100330000Y-119380000D03*
D14*
X92710000Y-114300000D03*
X99060000Y-116840000D03*
X116840000Y-109220000D03*
X110490000Y-111760000D03*
D15*
X114300000Y-114300000D03*
D16*
X109220000Y-114300000D03*
X119380000Y-114300000D03*
D14*
X111760000Y-109220000D03*
X118110000Y-111760000D03*
X135890000Y-114300000D03*
X129540000Y-116840000D03*
D15*
X133350000Y-119380000D03*
D16*
X128270000Y-119380000D03*
X138430000Y-119380000D03*
D14*
X130810000Y-114300000D03*
X137160000Y-116840000D03*
X154940000Y-109220000D03*
X148590000Y-111760000D03*
D15*
X152400000Y-114300000D03*
D16*
X147320000Y-114300000D03*
X157480000Y-114300000D03*
D14*
X149860000Y-109220000D03*
X156210000Y-111760000D03*
X173990000Y-109220000D03*
X167640000Y-111760000D03*
D15*
X171450000Y-114300000D03*
D16*
X166370000Y-114300000D03*
X176530000Y-114300000D03*
D14*
X168910000Y-109220000D03*
X175260000Y-111760000D03*
X59690000Y-45720000D03*
X53340000Y-48260000D03*
D15*
X57150000Y-50800000D03*
D16*
X52070000Y-50800000D03*
X62230000Y-50800000D03*
D14*
X54610000Y-45720000D03*
X60960000Y-48260000D03*
X59690000Y-64770000D03*
X53340000Y-67310000D03*
D15*
X57150000Y-69850000D03*
D16*
X52070000Y-69850000D03*
X62230000Y-69850000D03*
D14*
X54610000Y-64770000D03*
X60960000Y-67310000D03*
X59690000Y-83820000D03*
X53340000Y-86360000D03*
D15*
X57150000Y-88900000D03*
D16*
X52070000Y-88900000D03*
X62230000Y-88900000D03*
D14*
X54610000Y-83820000D03*
X60960000Y-86360000D03*
X59690000Y-102870000D03*
X53340000Y-105410000D03*
D15*
X57150000Y-107950000D03*
D16*
X52070000Y-107950000D03*
X62230000Y-107950000D03*
D14*
X54610000Y-102870000D03*
X60960000Y-105410000D03*
X116840000Y-33020000D03*
X110490000Y-35560000D03*
D15*
X114300000Y-38100000D03*
D16*
X109220000Y-38100000D03*
X119380000Y-38100000D03*
D14*
X111760000Y-33020000D03*
X118110000Y-35560000D03*
D26*
X177165000Y-73437500D03*
X177165000Y-78962500D03*
D27*
X160655000Y-51742500D03*
X160655000Y-53667500D03*
X163195000Y-51742500D03*
X163195000Y-53667500D03*
X160655000Y-68272500D03*
X160655000Y-66347500D03*
D25*
X134292500Y-31750000D03*
X136217500Y-31750000D03*
X134292500Y-34290000D03*
X136217500Y-34290000D03*
X177165000Y-82550000D03*
X175240000Y-82550000D03*
X177165000Y-69850000D03*
X175240000Y-69850000D03*
D28*
X175392000Y-51300000D03*
X175392000Y-50650000D03*
X175392000Y-50000000D03*
X175392000Y-49350000D03*
X175392000Y-48700000D03*
D29*
X175442000Y-53725000D03*
X175442000Y-46275000D03*
D30*
X179242000Y-53875000D03*
X179242000Y-46125000D03*
D31*
X176492000Y-52500000D03*
X176492000Y-47500000D03*
D14*
X66675000Y-98425000D03*
X161925000Y-104775000D03*
X161925000Y-47625000D03*
X66675000Y-60325000D03*
X104140000Y-109855000D03*
X123190000Y-47625000D03*
X104140000Y-71755000D03*
X143510000Y-85725000D03*
D25*
X168602500Y-46990000D03*
X166677500Y-46990000D03*
D32*
X179705000Y-100670000D03*
X179705000Y-105070000D03*
D14*
X176530000Y-64452500D03*
X173990000Y-58102500D03*
D15*
X171450000Y-61912500D03*
D16*
X171450000Y-56832500D03*
X171450000Y-66992500D03*
D14*
X176530000Y-59372500D03*
X173990000Y-65722500D03*
X176530000Y-93027500D03*
X173990000Y-86677500D03*
D15*
X171450000Y-90487500D03*
D16*
X171450000Y-85407500D03*
X171450000Y-95567500D03*
D14*
X176530000Y-87947500D03*
X173990000Y-94297500D03*
D33*
X66675000Y-52450000D03*
X66675000Y-49150000D03*
X85725000Y-52450000D03*
X85725000Y-49150000D03*
X104775000Y-44830000D03*
X104775000Y-41530000D03*
X123825000Y-39750000D03*
X123825000Y-36450000D03*
X142875000Y-44830000D03*
X142875000Y-41530000D03*
X160655000Y-39750000D03*
X160655000Y-36450000D03*
X163195000Y-39750000D03*
X163195000Y-36450000D03*
X66675000Y-71500000D03*
X66675000Y-68200000D03*
X85725000Y-71500000D03*
X85725000Y-68200000D03*
X104775000Y-63880000D03*
X104775000Y-60580000D03*
X123825000Y-58800000D03*
X123825000Y-55500000D03*
X142875000Y-63880000D03*
X142875000Y-60580000D03*
X160655000Y-58800000D03*
X160655000Y-55500000D03*
X163195000Y-58800000D03*
X163195000Y-55500000D03*
X66675000Y-90550000D03*
X66675000Y-87250000D03*
X85725000Y-90550000D03*
X85725000Y-87250000D03*
X104775000Y-82930000D03*
X104775000Y-79630000D03*
X123825000Y-77850000D03*
X123825000Y-74550000D03*
X141605000Y-80390000D03*
X141605000Y-77090000D03*
X144145000Y-80390000D03*
X144145000Y-77090000D03*
X66675000Y-109600000D03*
X66675000Y-106300000D03*
X85725000Y-109600000D03*
X85725000Y-106300000D03*
X104775000Y-101980000D03*
X104775000Y-98680000D03*
X123825000Y-96900000D03*
X123825000Y-93600000D03*
X142875000Y-101980000D03*
X142875000Y-98680000D03*
X161925000Y-96900000D03*
X161925000Y-93600000D03*
X161925000Y-89280000D03*
X161925000Y-85980000D03*
X104775000Y-121030000D03*
X104775000Y-117730000D03*
X123825000Y-115950000D03*
X123825000Y-112650000D03*
X142875000Y-121030000D03*
X142875000Y-117730000D03*
X160655000Y-115950000D03*
X160655000Y-112650000D03*
X163195000Y-115950000D03*
X163195000Y-112650000D03*
M02*
