G04 #@! TF.FileFunction,Soldermask,Bot*
%FSLAX46Y46*%
G04 Gerber Fmt 4.6, Leading zero omitted, Abs format (unit mm)*
G04 Created by KiCad (PCBNEW 4.0.7+dfsg1-1~bpo9+1) date Sat May 26 14:22:04 2018*
%MOMM*%
%LPD*%
G01*
G04 APERTURE LIST*
%ADD10C,0.100000*%
%ADD11C,2.600000*%
%ADD12C,4.400000*%
%ADD13C,2.100000*%
%ADD14R,2.100000X2.100000*%
%ADD15O,2.100000X2.100000*%
%ADD16C,1.850000*%
%ADD17C,1.550000*%
%ADD18C,1.200000*%
%ADD19R,1.400000X1.245000*%
%ADD20R,1.245000X1.400000*%
%ADD21O,2.400000X1.850000*%
%ADD22O,2.200000X1.550000*%
%ADD23O,1.200000X1.200000*%
%ADD24R,1.700000X0.850000*%
%ADD25R,2.100000X2.200000*%
%ADD26R,1.600000X1.300000*%
G04 APERTURE END LIST*
D10*
D11*
X154940000Y-52070000D03*
X148590000Y-54610000D03*
D12*
X152400000Y-57150000D03*
D13*
X147320000Y-57150000D03*
X157480000Y-57150000D03*
D11*
X149860000Y-52070000D03*
X156210000Y-54610000D03*
D14*
X142875000Y-57785000D03*
D15*
X142875000Y-55245000D03*
X142875000Y-52705000D03*
X142875000Y-50165000D03*
X142875000Y-47625000D03*
D14*
X120650000Y-126365000D03*
D15*
X118110000Y-126365000D03*
X115570000Y-126365000D03*
X113030000Y-126365000D03*
X110490000Y-126365000D03*
X107950000Y-126365000D03*
D11*
X154940000Y-71120000D03*
X148590000Y-73660000D03*
D12*
X152400000Y-76200000D03*
D13*
X147320000Y-76200000D03*
X157480000Y-76200000D03*
D11*
X149860000Y-71120000D03*
X156210000Y-73660000D03*
X97790000Y-38100000D03*
X91440000Y-40640000D03*
D12*
X95250000Y-43180000D03*
D13*
X90170000Y-43180000D03*
X100330000Y-43180000D03*
D11*
X92710000Y-38100000D03*
X99060000Y-40640000D03*
D16*
X85308110Y-39018140D02*
X85186258Y-38481808D01*
X78043247Y-40668676D02*
X77921395Y-40132344D01*
D17*
X84623575Y-35328098D02*
X84479569Y-34694250D01*
X77066168Y-37045099D02*
X76922162Y-36411251D01*
D18*
X83820000Y-37997464D02*
X83820000Y-37997464D01*
X78944253Y-39105207D02*
X78944253Y-39105207D01*
D10*
G36*
X80584258Y-38988978D02*
X80960891Y-40646732D01*
X80132014Y-40835048D01*
X79755381Y-39177294D01*
X80584258Y-38988978D01*
X80584258Y-38988978D01*
G37*
G36*
X81218105Y-38844971D02*
X81594738Y-40502725D01*
X80765861Y-40691041D01*
X80389228Y-39033287D01*
X81218105Y-38844971D01*
X81218105Y-38844971D01*
G37*
G36*
X81851952Y-38700965D02*
X82228585Y-40358719D01*
X81399708Y-40547035D01*
X81023075Y-38889281D01*
X81851952Y-38700965D01*
X81851952Y-38700965D01*
G37*
G36*
X82485799Y-38556958D02*
X82862432Y-40214712D01*
X82033555Y-40403028D01*
X81656922Y-38745274D01*
X82485799Y-38556958D01*
X82485799Y-38556958D01*
G37*
G36*
X83119646Y-38412952D02*
X83496279Y-40070706D01*
X82667402Y-40259022D01*
X82290769Y-38601268D01*
X83119646Y-38412952D01*
X83119646Y-38412952D01*
G37*
D11*
X78740000Y-45720000D03*
X72390000Y-48260000D03*
D12*
X76200000Y-50800000D03*
D13*
X71120000Y-50800000D03*
X81280000Y-50800000D03*
D11*
X73660000Y-45720000D03*
X80010000Y-48260000D03*
X135890000Y-38100000D03*
X129540000Y-40640000D03*
D12*
X133350000Y-43180000D03*
D13*
X128270000Y-43180000D03*
X138430000Y-43180000D03*
D11*
X130810000Y-38100000D03*
X137160000Y-40640000D03*
X154940000Y-33020000D03*
X148590000Y-35560000D03*
D12*
X152400000Y-38100000D03*
D13*
X147320000Y-38100000D03*
X157480000Y-38100000D03*
D11*
X149860000Y-33020000D03*
X156210000Y-35560000D03*
X173990000Y-33020000D03*
X167640000Y-35560000D03*
D12*
X171450000Y-38100000D03*
D13*
X166370000Y-38100000D03*
X176530000Y-38100000D03*
D11*
X168910000Y-33020000D03*
X175260000Y-35560000D03*
X78740000Y-64770000D03*
X72390000Y-67310000D03*
D12*
X76200000Y-69850000D03*
D13*
X71120000Y-69850000D03*
X81280000Y-69850000D03*
D11*
X73660000Y-64770000D03*
X80010000Y-67310000D03*
X97790000Y-57150000D03*
X91440000Y-59690000D03*
D12*
X95250000Y-62230000D03*
D13*
X90170000Y-62230000D03*
X100330000Y-62230000D03*
D11*
X92710000Y-57150000D03*
X99060000Y-59690000D03*
X116840000Y-52070000D03*
X110490000Y-54610000D03*
D12*
X114300000Y-57150000D03*
D13*
X109220000Y-57150000D03*
X119380000Y-57150000D03*
D11*
X111760000Y-52070000D03*
X118110000Y-54610000D03*
X135890000Y-57150000D03*
X129540000Y-59690000D03*
D12*
X133350000Y-62230000D03*
D13*
X128270000Y-62230000D03*
X138430000Y-62230000D03*
D11*
X130810000Y-57150000D03*
X137160000Y-59690000D03*
X78740000Y-83820000D03*
X72390000Y-86360000D03*
D12*
X76200000Y-88900000D03*
D13*
X71120000Y-88900000D03*
X81280000Y-88900000D03*
D11*
X73660000Y-83820000D03*
X80010000Y-86360000D03*
X97790000Y-76200000D03*
X91440000Y-78740000D03*
D12*
X95250000Y-81280000D03*
D13*
X90170000Y-81280000D03*
X100330000Y-81280000D03*
D11*
X92710000Y-76200000D03*
X99060000Y-78740000D03*
X116840000Y-71120000D03*
X110490000Y-73660000D03*
D12*
X114300000Y-76200000D03*
D13*
X109220000Y-76200000D03*
X119380000Y-76200000D03*
D11*
X111760000Y-71120000D03*
X118110000Y-73660000D03*
X135890000Y-76200000D03*
X129540000Y-78740000D03*
D12*
X133350000Y-81280000D03*
D13*
X128270000Y-81280000D03*
X138430000Y-81280000D03*
D11*
X130810000Y-76200000D03*
X137160000Y-78740000D03*
X78740000Y-102870000D03*
X72390000Y-105410000D03*
D12*
X76200000Y-107950000D03*
D13*
X71120000Y-107950000D03*
X81280000Y-107950000D03*
D11*
X73660000Y-102870000D03*
X80010000Y-105410000D03*
X97790000Y-95250000D03*
X91440000Y-97790000D03*
D12*
X95250000Y-100330000D03*
D13*
X90170000Y-100330000D03*
X100330000Y-100330000D03*
D11*
X92710000Y-95250000D03*
X99060000Y-97790000D03*
X116840000Y-90170000D03*
X110490000Y-92710000D03*
D12*
X114300000Y-95250000D03*
D13*
X109220000Y-95250000D03*
X119380000Y-95250000D03*
D11*
X111760000Y-90170000D03*
X118110000Y-92710000D03*
X135890000Y-95250000D03*
X129540000Y-97790000D03*
D12*
X133350000Y-100330000D03*
D13*
X128270000Y-100330000D03*
X138430000Y-100330000D03*
D11*
X130810000Y-95250000D03*
X137160000Y-97790000D03*
X154940000Y-90170000D03*
X148590000Y-92710000D03*
D12*
X152400000Y-95250000D03*
D13*
X147320000Y-95250000D03*
X157480000Y-95250000D03*
D11*
X149860000Y-90170000D03*
X156210000Y-92710000D03*
X97790000Y-114300000D03*
X91440000Y-116840000D03*
D12*
X95250000Y-119380000D03*
D13*
X90170000Y-119380000D03*
X100330000Y-119380000D03*
D11*
X92710000Y-114300000D03*
X99060000Y-116840000D03*
X116840000Y-109220000D03*
X110490000Y-111760000D03*
D12*
X114300000Y-114300000D03*
D13*
X109220000Y-114300000D03*
X119380000Y-114300000D03*
D11*
X111760000Y-109220000D03*
X118110000Y-111760000D03*
X135890000Y-114300000D03*
X129540000Y-116840000D03*
D12*
X133350000Y-119380000D03*
D13*
X128270000Y-119380000D03*
X138430000Y-119380000D03*
D11*
X130810000Y-114300000D03*
X137160000Y-116840000D03*
X154940000Y-109220000D03*
X148590000Y-111760000D03*
D12*
X152400000Y-114300000D03*
D13*
X147320000Y-114300000D03*
X157480000Y-114300000D03*
D11*
X149860000Y-109220000D03*
X156210000Y-111760000D03*
X173990000Y-109220000D03*
X167640000Y-111760000D03*
D12*
X171450000Y-114300000D03*
D13*
X166370000Y-114300000D03*
X176530000Y-114300000D03*
D11*
X168910000Y-109220000D03*
X175260000Y-111760000D03*
X59690000Y-45720000D03*
X53340000Y-48260000D03*
D12*
X57150000Y-50800000D03*
D13*
X52070000Y-50800000D03*
X62230000Y-50800000D03*
D11*
X54610000Y-45720000D03*
X60960000Y-48260000D03*
X59690000Y-64770000D03*
X53340000Y-67310000D03*
D12*
X57150000Y-69850000D03*
D13*
X52070000Y-69850000D03*
X62230000Y-69850000D03*
D11*
X54610000Y-64770000D03*
X60960000Y-67310000D03*
X59690000Y-83820000D03*
X53340000Y-86360000D03*
D12*
X57150000Y-88900000D03*
D13*
X52070000Y-88900000D03*
X62230000Y-88900000D03*
D11*
X54610000Y-83820000D03*
X60960000Y-86360000D03*
X59690000Y-102870000D03*
X53340000Y-105410000D03*
D12*
X57150000Y-107950000D03*
D13*
X52070000Y-107950000D03*
X62230000Y-107950000D03*
D11*
X54610000Y-102870000D03*
X60960000Y-105410000D03*
X116840000Y-33020000D03*
X110490000Y-35560000D03*
D12*
X114300000Y-38100000D03*
D13*
X109220000Y-38100000D03*
X119380000Y-38100000D03*
D11*
X111760000Y-33020000D03*
X118110000Y-35560000D03*
D19*
X164465000Y-72062500D03*
X164465000Y-73987500D03*
D20*
X170487500Y-70485000D03*
X172412500Y-70485000D03*
D19*
X164465000Y-77142500D03*
X164465000Y-79067500D03*
X167640000Y-79067500D03*
X167640000Y-77142500D03*
D21*
X175442000Y-53725000D03*
X175442000Y-46275000D03*
D22*
X179242000Y-53875000D03*
X179242000Y-46125000D03*
D23*
X176492000Y-52500000D03*
X176492000Y-47500000D03*
D24*
X175392000Y-48700000D03*
X175392000Y-49350000D03*
X175392000Y-50000000D03*
X175392000Y-50650000D03*
X175392000Y-51300000D03*
D11*
X66675000Y-98425000D03*
X161925000Y-104775000D03*
X161925000Y-47625000D03*
X66675000Y-60325000D03*
X104140000Y-109855000D03*
X123190000Y-47625000D03*
X104140000Y-71755000D03*
X143510000Y-85725000D03*
D19*
X173355000Y-79702500D03*
X173355000Y-77777500D03*
D20*
X168602500Y-46990000D03*
X166677500Y-46990000D03*
D25*
X179705000Y-100670000D03*
X179705000Y-105070000D03*
D11*
X176530000Y-64452500D03*
X173990000Y-58102500D03*
D12*
X171450000Y-61912500D03*
D13*
X171450000Y-56832500D03*
X171450000Y-66992500D03*
D11*
X176530000Y-59372500D03*
X173990000Y-65722500D03*
X176530000Y-93027500D03*
X173990000Y-86677500D03*
D12*
X171450000Y-90487500D03*
D13*
X171450000Y-85407500D03*
X171450000Y-95567500D03*
D11*
X176530000Y-87947500D03*
X173990000Y-94297500D03*
D26*
X66675000Y-52450000D03*
X66675000Y-49150000D03*
X85725000Y-52450000D03*
X85725000Y-49150000D03*
X104775000Y-44830000D03*
X104775000Y-41530000D03*
X123825000Y-39750000D03*
X123825000Y-36450000D03*
X142875000Y-44830000D03*
X142875000Y-41530000D03*
X160655000Y-39750000D03*
X160655000Y-36450000D03*
X163195000Y-39750000D03*
X163195000Y-36450000D03*
X66675000Y-71500000D03*
X66675000Y-68200000D03*
X85725000Y-71500000D03*
X85725000Y-68200000D03*
X104775000Y-63880000D03*
X104775000Y-60580000D03*
X123825000Y-58800000D03*
X123825000Y-55500000D03*
X142875000Y-63880000D03*
X142875000Y-60580000D03*
X160655000Y-58800000D03*
X160655000Y-55500000D03*
X163195000Y-58800000D03*
X163195000Y-55500000D03*
X66675000Y-90550000D03*
X66675000Y-87250000D03*
X85725000Y-90550000D03*
X85725000Y-87250000D03*
X104775000Y-82930000D03*
X104775000Y-79630000D03*
X123825000Y-77850000D03*
X123825000Y-74550000D03*
X141605000Y-80390000D03*
X141605000Y-77090000D03*
X144145000Y-80390000D03*
X144145000Y-77090000D03*
X66675000Y-109600000D03*
X66675000Y-106300000D03*
X85725000Y-109600000D03*
X85725000Y-106300000D03*
X104775000Y-101980000D03*
X104775000Y-98680000D03*
X123825000Y-96900000D03*
X123825000Y-93600000D03*
X142875000Y-101980000D03*
X142875000Y-98680000D03*
X161925000Y-96900000D03*
X161925000Y-93600000D03*
X161925000Y-89280000D03*
X161925000Y-85980000D03*
X104775000Y-121030000D03*
X104775000Y-117730000D03*
X123825000Y-115950000D03*
X123825000Y-112650000D03*
X142875000Y-121030000D03*
X142875000Y-117730000D03*
X160655000Y-115950000D03*
X160655000Y-112650000D03*
X163195000Y-115950000D03*
X163195000Y-112650000D03*
M02*
