G04 #@! TF.FileFunction,Copper,L2,Bot,Signal*
%FSLAX46Y46*%
G04 Gerber Fmt 4.6, Leading zero omitted, Abs format (unit mm)*
G04 Created by KiCad (PCBNEW 4.0.7+dfsg1-1~bpo9+1) date Sat May 26 14:25:42 2018*
%MOMM*%
%LPD*%
G01*
G04 APERTURE LIST*
%ADD10C,0.100000*%
%ADD11C,0.300000*%
%ADD12R,2.000000X2.000000*%
%ADD13C,0.200000*%
G04 APERTURE END LIST*
D10*
D11*
X136528572Y-72362143D02*
X136385715Y-72433571D01*
X136100000Y-72433571D01*
X135957143Y-72362143D01*
X135885715Y-72219286D01*
X135885715Y-72147857D01*
X135957143Y-72005000D01*
X136100000Y-71933571D01*
X136314286Y-71933571D01*
X136457143Y-71862143D01*
X136528572Y-71719286D01*
X136528572Y-71647857D01*
X136457143Y-71505000D01*
X136314286Y-71433571D01*
X136100000Y-71433571D01*
X135957143Y-71505000D01*
X135242857Y-71433571D02*
X135242857Y-72933571D01*
X135242857Y-71505000D02*
X135100000Y-71433571D01*
X134814286Y-71433571D01*
X134671429Y-71505000D01*
X134600000Y-71576429D01*
X134528571Y-71719286D01*
X134528571Y-72147857D01*
X134600000Y-72290714D01*
X134671429Y-72362143D01*
X134814286Y-72433571D01*
X135100000Y-72433571D01*
X135242857Y-72362143D01*
X133671428Y-72433571D02*
X133814286Y-72362143D01*
X133885714Y-72219286D01*
X133885714Y-70933571D01*
X133100000Y-72433571D02*
X133100000Y-71433571D01*
X133100000Y-70933571D02*
X133171429Y-71005000D01*
X133100000Y-71076429D01*
X133028572Y-71005000D01*
X133100000Y-70933571D01*
X133100000Y-71076429D01*
X132600000Y-71433571D02*
X132028571Y-71433571D01*
X132385714Y-70933571D02*
X132385714Y-72219286D01*
X132314286Y-72362143D01*
X132171428Y-72433571D01*
X132028571Y-72433571D01*
X131742857Y-71433571D02*
X131171428Y-71433571D01*
X131528571Y-70933571D02*
X131528571Y-72219286D01*
X131457143Y-72362143D01*
X131314285Y-72433571D01*
X131171428Y-72433571D01*
X130814285Y-71433571D02*
X130457142Y-72433571D01*
X130100000Y-71433571D02*
X130457142Y-72433571D01*
X130600000Y-72790714D01*
X130671428Y-72862143D01*
X130814285Y-72933571D01*
D12*
X166370000Y-76835000D03*
D13*
G36*
X180040788Y-29034335D02*
X180325457Y-29224545D01*
X180515665Y-29509212D01*
X180590000Y-29882917D01*
X180590000Y-122517083D01*
X180515665Y-122890788D01*
X180325457Y-123175455D01*
X180040788Y-123365665D01*
X179641090Y-123445170D01*
X142848575Y-128520000D01*
X85783370Y-128520000D01*
X49009114Y-117107300D01*
X48988890Y-117105177D01*
X48970109Y-117097398D01*
X48559212Y-117015665D01*
X48274545Y-116825457D01*
X48084335Y-116540788D01*
X48010000Y-116167082D01*
X48010000Y-100950000D01*
X49765000Y-100950000D01*
X49765000Y-114950000D01*
X49794306Y-115097333D01*
X49877764Y-115222236D01*
X50002667Y-115305694D01*
X50150000Y-115335000D01*
X64150000Y-115335000D01*
X64297333Y-115305694D01*
X64422236Y-115222236D01*
X64505694Y-115097333D01*
X64535000Y-114950000D01*
X64535000Y-100950000D01*
X68815000Y-100950000D01*
X68815000Y-114950000D01*
X68844306Y-115097333D01*
X68927764Y-115222236D01*
X69052667Y-115305694D01*
X69200000Y-115335000D01*
X83200000Y-115335000D01*
X83347333Y-115305694D01*
X83472236Y-115222236D01*
X83555694Y-115097333D01*
X83585000Y-114950000D01*
X83585000Y-112380000D01*
X87865000Y-112380000D01*
X87865000Y-126380000D01*
X87894306Y-126527333D01*
X87977764Y-126652236D01*
X88102667Y-126735694D01*
X88250000Y-126765000D01*
X102250000Y-126765000D01*
X102397333Y-126735694D01*
X102522236Y-126652236D01*
X102605694Y-126527333D01*
X102635000Y-126380000D01*
X102635000Y-112380000D01*
X102605694Y-112232667D01*
X102522236Y-112107764D01*
X102397333Y-112024306D01*
X102250000Y-111995000D01*
X88250000Y-111995000D01*
X88102667Y-112024306D01*
X87977764Y-112107764D01*
X87894306Y-112232667D01*
X87865000Y-112380000D01*
X83585000Y-112380000D01*
X83585000Y-110134236D01*
X102729755Y-110134236D01*
X102943963Y-110652658D01*
X103340256Y-111049643D01*
X103858303Y-111264755D01*
X104419236Y-111265245D01*
X104937658Y-111051037D01*
X105334643Y-110654744D01*
X105549755Y-110136697D01*
X105550245Y-109575764D01*
X105336037Y-109057342D01*
X104939744Y-108660357D01*
X104421697Y-108445245D01*
X103860764Y-108444755D01*
X103342342Y-108658963D01*
X102945357Y-109055256D01*
X102730245Y-109573303D01*
X102729755Y-110134236D01*
X83585000Y-110134236D01*
X83585000Y-100950000D01*
X83555694Y-100802667D01*
X83472236Y-100677764D01*
X83347333Y-100594306D01*
X83200000Y-100565000D01*
X69200000Y-100565000D01*
X69052667Y-100594306D01*
X68927764Y-100677764D01*
X68844306Y-100802667D01*
X68815000Y-100950000D01*
X64535000Y-100950000D01*
X64505694Y-100802667D01*
X64422236Y-100677764D01*
X64297333Y-100594306D01*
X64150000Y-100565000D01*
X50150000Y-100565000D01*
X50002667Y-100594306D01*
X49877764Y-100677764D01*
X49794306Y-100802667D01*
X49765000Y-100950000D01*
X48010000Y-100950000D01*
X48010000Y-98704236D01*
X65264755Y-98704236D01*
X65478963Y-99222658D01*
X65875256Y-99619643D01*
X66393303Y-99834755D01*
X66954236Y-99835245D01*
X67472658Y-99621037D01*
X67869643Y-99224744D01*
X68084755Y-98706697D01*
X68085245Y-98145764D01*
X67871037Y-97627342D01*
X67474744Y-97230357D01*
X66956697Y-97015245D01*
X66395764Y-97014755D01*
X65877342Y-97228963D01*
X65480357Y-97625256D01*
X65265245Y-98143303D01*
X65264755Y-98704236D01*
X48010000Y-98704236D01*
X48010000Y-81900000D01*
X49765000Y-81900000D01*
X49765000Y-95900000D01*
X49794306Y-96047333D01*
X49877764Y-96172236D01*
X50002667Y-96255694D01*
X50150000Y-96285000D01*
X64150000Y-96285000D01*
X64297333Y-96255694D01*
X64422236Y-96172236D01*
X64505694Y-96047333D01*
X64535000Y-95900000D01*
X64535000Y-81900000D01*
X68815000Y-81900000D01*
X68815000Y-95900000D01*
X68844306Y-96047333D01*
X68927764Y-96172236D01*
X69052667Y-96255694D01*
X69200000Y-96285000D01*
X83200000Y-96285000D01*
X83347333Y-96255694D01*
X83472236Y-96172236D01*
X83555694Y-96047333D01*
X83585000Y-95900000D01*
X83585000Y-93330000D01*
X87865000Y-93330000D01*
X87865000Y-107330000D01*
X87894306Y-107477333D01*
X87977764Y-107602236D01*
X88102667Y-107685694D01*
X88250000Y-107715000D01*
X102250000Y-107715000D01*
X102397333Y-107685694D01*
X102522236Y-107602236D01*
X102605694Y-107477333D01*
X102635000Y-107330000D01*
X102635000Y-107300000D01*
X106915000Y-107300000D01*
X106915000Y-121300000D01*
X106944306Y-121447333D01*
X107027764Y-121572236D01*
X107152667Y-121655694D01*
X107300000Y-121685000D01*
X121300000Y-121685000D01*
X121447333Y-121655694D01*
X121572236Y-121572236D01*
X121655694Y-121447333D01*
X121685000Y-121300000D01*
X121685000Y-112380000D01*
X125965000Y-112380000D01*
X125965000Y-126380000D01*
X125994306Y-126527333D01*
X126077764Y-126652236D01*
X126202667Y-126735694D01*
X126350000Y-126765000D01*
X140350000Y-126765000D01*
X140497333Y-126735694D01*
X140622236Y-126652236D01*
X140705694Y-126527333D01*
X140735000Y-126380000D01*
X140735000Y-112380000D01*
X140705694Y-112232667D01*
X140622236Y-112107764D01*
X140497333Y-112024306D01*
X140350000Y-111995000D01*
X126350000Y-111995000D01*
X126202667Y-112024306D01*
X126077764Y-112107764D01*
X125994306Y-112232667D01*
X125965000Y-112380000D01*
X121685000Y-112380000D01*
X121685000Y-107300000D01*
X121655694Y-107152667D01*
X121572236Y-107027764D01*
X121447333Y-106944306D01*
X121300000Y-106915000D01*
X107300000Y-106915000D01*
X107152667Y-106944306D01*
X107027764Y-107027764D01*
X106944306Y-107152667D01*
X106915000Y-107300000D01*
X102635000Y-107300000D01*
X102635000Y-93330000D01*
X102605694Y-93182667D01*
X102522236Y-93057764D01*
X102397333Y-92974306D01*
X102250000Y-92945000D01*
X88250000Y-92945000D01*
X88102667Y-92974306D01*
X87977764Y-93057764D01*
X87894306Y-93182667D01*
X87865000Y-93330000D01*
X83585000Y-93330000D01*
X83585000Y-81900000D01*
X83555694Y-81752667D01*
X83472236Y-81627764D01*
X83347333Y-81544306D01*
X83200000Y-81515000D01*
X69200000Y-81515000D01*
X69052667Y-81544306D01*
X68927764Y-81627764D01*
X68844306Y-81752667D01*
X68815000Y-81900000D01*
X64535000Y-81900000D01*
X64505694Y-81752667D01*
X64422236Y-81627764D01*
X64297333Y-81544306D01*
X64150000Y-81515000D01*
X50150000Y-81515000D01*
X50002667Y-81544306D01*
X49877764Y-81627764D01*
X49794306Y-81752667D01*
X49765000Y-81900000D01*
X48010000Y-81900000D01*
X48010000Y-62850000D01*
X49765000Y-62850000D01*
X49765000Y-76850000D01*
X49794306Y-76997333D01*
X49877764Y-77122236D01*
X50002667Y-77205694D01*
X50150000Y-77235000D01*
X64150000Y-77235000D01*
X64297333Y-77205694D01*
X64422236Y-77122236D01*
X64505694Y-76997333D01*
X64535000Y-76850000D01*
X64535000Y-62850000D01*
X68815000Y-62850000D01*
X68815000Y-76850000D01*
X68844306Y-76997333D01*
X68927764Y-77122236D01*
X69052667Y-77205694D01*
X69200000Y-77235000D01*
X83200000Y-77235000D01*
X83347333Y-77205694D01*
X83472236Y-77122236D01*
X83555694Y-76997333D01*
X83585000Y-76850000D01*
X83585000Y-74280000D01*
X87865000Y-74280000D01*
X87865000Y-88280000D01*
X87894306Y-88427333D01*
X87977764Y-88552236D01*
X88102667Y-88635694D01*
X88250000Y-88665000D01*
X102250000Y-88665000D01*
X102397333Y-88635694D01*
X102522236Y-88552236D01*
X102605694Y-88427333D01*
X102635000Y-88280000D01*
X102635000Y-88250000D01*
X106915000Y-88250000D01*
X106915000Y-102250000D01*
X106944306Y-102397333D01*
X107027764Y-102522236D01*
X107152667Y-102605694D01*
X107300000Y-102635000D01*
X121300000Y-102635000D01*
X121447333Y-102605694D01*
X121572236Y-102522236D01*
X121655694Y-102397333D01*
X121685000Y-102250000D01*
X121685000Y-93330000D01*
X125965000Y-93330000D01*
X125965000Y-107330000D01*
X125994306Y-107477333D01*
X126077764Y-107602236D01*
X126202667Y-107685694D01*
X126350000Y-107715000D01*
X140350000Y-107715000D01*
X140497333Y-107685694D01*
X140622236Y-107602236D01*
X140705694Y-107477333D01*
X140735000Y-107330000D01*
X140735000Y-107300000D01*
X145015000Y-107300000D01*
X145015000Y-121300000D01*
X145044306Y-121447333D01*
X145127764Y-121572236D01*
X145252667Y-121655694D01*
X145400000Y-121685000D01*
X159400000Y-121685000D01*
X159547333Y-121655694D01*
X159672236Y-121572236D01*
X159755694Y-121447333D01*
X159785000Y-121300000D01*
X159785000Y-107300000D01*
X164065000Y-107300000D01*
X164065000Y-121300000D01*
X164094306Y-121447333D01*
X164177764Y-121572236D01*
X164302667Y-121655694D01*
X164450000Y-121685000D01*
X178450000Y-121685000D01*
X178597333Y-121655694D01*
X178722236Y-121572236D01*
X178805694Y-121447333D01*
X178835000Y-121300000D01*
X178835000Y-107300000D01*
X178805694Y-107152667D01*
X178722236Y-107027764D01*
X178597333Y-106944306D01*
X178450000Y-106915000D01*
X164450000Y-106915000D01*
X164302667Y-106944306D01*
X164177764Y-107027764D01*
X164094306Y-107152667D01*
X164065000Y-107300000D01*
X159785000Y-107300000D01*
X159755694Y-107152667D01*
X159672236Y-107027764D01*
X159547333Y-106944306D01*
X159400000Y-106915000D01*
X145400000Y-106915000D01*
X145252667Y-106944306D01*
X145127764Y-107027764D01*
X145044306Y-107152667D01*
X145015000Y-107300000D01*
X140735000Y-107300000D01*
X140735000Y-105054236D01*
X160514755Y-105054236D01*
X160728963Y-105572658D01*
X161125256Y-105969643D01*
X161643303Y-106184755D01*
X162204236Y-106185245D01*
X162722658Y-105971037D01*
X163119643Y-105574744D01*
X163334755Y-105056697D01*
X163335245Y-104495764D01*
X163121037Y-103977342D01*
X162724744Y-103580357D01*
X162206697Y-103365245D01*
X161645764Y-103364755D01*
X161127342Y-103578963D01*
X160730357Y-103975256D01*
X160515245Y-104493303D01*
X160514755Y-105054236D01*
X140735000Y-105054236D01*
X140735000Y-93330000D01*
X140705694Y-93182667D01*
X140622236Y-93057764D01*
X140497333Y-92974306D01*
X140350000Y-92945000D01*
X126350000Y-92945000D01*
X126202667Y-92974306D01*
X126077764Y-93057764D01*
X125994306Y-93182667D01*
X125965000Y-93330000D01*
X121685000Y-93330000D01*
X121685000Y-88250000D01*
X121655694Y-88102667D01*
X121572236Y-87977764D01*
X121447333Y-87894306D01*
X121300000Y-87865000D01*
X107300000Y-87865000D01*
X107152667Y-87894306D01*
X107027764Y-87977764D01*
X106944306Y-88102667D01*
X106915000Y-88250000D01*
X102635000Y-88250000D01*
X102635000Y-74280000D01*
X102605694Y-74132667D01*
X102522236Y-74007764D01*
X102397333Y-73924306D01*
X102250000Y-73895000D01*
X88250000Y-73895000D01*
X88102667Y-73924306D01*
X87977764Y-74007764D01*
X87894306Y-74132667D01*
X87865000Y-74280000D01*
X83585000Y-74280000D01*
X83585000Y-72034236D01*
X102729755Y-72034236D01*
X102943963Y-72552658D01*
X103340256Y-72949643D01*
X103858303Y-73164755D01*
X104419236Y-73165245D01*
X104937658Y-72951037D01*
X105334643Y-72554744D01*
X105549755Y-72036697D01*
X105550245Y-71475764D01*
X105336037Y-70957342D01*
X104939744Y-70560357D01*
X104421697Y-70345245D01*
X103860764Y-70344755D01*
X103342342Y-70558963D01*
X102945357Y-70955256D01*
X102730245Y-71473303D01*
X102729755Y-72034236D01*
X83585000Y-72034236D01*
X83585000Y-62850000D01*
X83555694Y-62702667D01*
X83472236Y-62577764D01*
X83347333Y-62494306D01*
X83200000Y-62465000D01*
X69200000Y-62465000D01*
X69052667Y-62494306D01*
X68927764Y-62577764D01*
X68844306Y-62702667D01*
X68815000Y-62850000D01*
X64535000Y-62850000D01*
X64505694Y-62702667D01*
X64422236Y-62577764D01*
X64297333Y-62494306D01*
X64150000Y-62465000D01*
X50150000Y-62465000D01*
X50002667Y-62494306D01*
X49877764Y-62577764D01*
X49794306Y-62702667D01*
X49765000Y-62850000D01*
X48010000Y-62850000D01*
X48010000Y-60604236D01*
X65264755Y-60604236D01*
X65478963Y-61122658D01*
X65875256Y-61519643D01*
X66393303Y-61734755D01*
X66954236Y-61735245D01*
X67472658Y-61521037D01*
X67869643Y-61124744D01*
X68084755Y-60606697D01*
X68085245Y-60045764D01*
X67871037Y-59527342D01*
X67474744Y-59130357D01*
X66956697Y-58915245D01*
X66395764Y-58914755D01*
X65877342Y-59128963D01*
X65480357Y-59525256D01*
X65265245Y-60043303D01*
X65264755Y-60604236D01*
X48010000Y-60604236D01*
X48010000Y-43800000D01*
X49765000Y-43800000D01*
X49765000Y-57800000D01*
X49794306Y-57947333D01*
X49877764Y-58072236D01*
X50002667Y-58155694D01*
X50150000Y-58185000D01*
X64150000Y-58185000D01*
X64297333Y-58155694D01*
X64422236Y-58072236D01*
X64505694Y-57947333D01*
X64535000Y-57800000D01*
X64535000Y-43800000D01*
X68815000Y-43800000D01*
X68815000Y-57800000D01*
X68844306Y-57947333D01*
X68927764Y-58072236D01*
X69052667Y-58155694D01*
X69200000Y-58185000D01*
X83200000Y-58185000D01*
X83347333Y-58155694D01*
X83472236Y-58072236D01*
X83555694Y-57947333D01*
X83585000Y-57800000D01*
X83585000Y-55230000D01*
X87865000Y-55230000D01*
X87865000Y-69230000D01*
X87894306Y-69377333D01*
X87977764Y-69502236D01*
X88102667Y-69585694D01*
X88250000Y-69615000D01*
X102250000Y-69615000D01*
X102397333Y-69585694D01*
X102522236Y-69502236D01*
X102605694Y-69377333D01*
X102635000Y-69230000D01*
X102635000Y-69200000D01*
X106915000Y-69200000D01*
X106915000Y-83200000D01*
X106944306Y-83347333D01*
X107027764Y-83472236D01*
X107152667Y-83555694D01*
X107300000Y-83585000D01*
X121300000Y-83585000D01*
X121447333Y-83555694D01*
X121572236Y-83472236D01*
X121655694Y-83347333D01*
X121685000Y-83200000D01*
X121685000Y-74280000D01*
X125965000Y-74280000D01*
X125965000Y-88280000D01*
X125994306Y-88427333D01*
X126077764Y-88552236D01*
X126202667Y-88635694D01*
X126350000Y-88665000D01*
X140350000Y-88665000D01*
X140497333Y-88635694D01*
X140622236Y-88552236D01*
X140705694Y-88427333D01*
X140735000Y-88280000D01*
X140735000Y-88250000D01*
X145015000Y-88250000D01*
X145015000Y-102250000D01*
X145044306Y-102397333D01*
X145127764Y-102522236D01*
X145252667Y-102605694D01*
X145400000Y-102635000D01*
X159400000Y-102635000D01*
X159547333Y-102605694D01*
X159672236Y-102522236D01*
X159755694Y-102397333D01*
X159785000Y-102250000D01*
X159785000Y-88250000D01*
X159755694Y-88102667D01*
X159672236Y-87977764D01*
X159547333Y-87894306D01*
X159400000Y-87865000D01*
X145400000Y-87865000D01*
X145252667Y-87894306D01*
X145127764Y-87977764D01*
X145044306Y-88102667D01*
X145015000Y-88250000D01*
X140735000Y-88250000D01*
X140735000Y-86004236D01*
X142099755Y-86004236D01*
X142313963Y-86522658D01*
X142710256Y-86919643D01*
X143228303Y-87134755D01*
X143789236Y-87135245D01*
X144307658Y-86921037D01*
X144704643Y-86524744D01*
X144919755Y-86006697D01*
X144920245Y-85445764D01*
X144706037Y-84927342D01*
X144309744Y-84530357D01*
X143791697Y-84315245D01*
X143230764Y-84314755D01*
X142712342Y-84528963D01*
X142315357Y-84925256D01*
X142100245Y-85443303D01*
X142099755Y-86004236D01*
X140735000Y-86004236D01*
X140735000Y-74280000D01*
X140705694Y-74132667D01*
X140622236Y-74007764D01*
X140497333Y-73924306D01*
X140350000Y-73895000D01*
X126350000Y-73895000D01*
X126202667Y-73924306D01*
X126077764Y-74007764D01*
X125994306Y-74132667D01*
X125965000Y-74280000D01*
X121685000Y-74280000D01*
X121685000Y-70245000D01*
X129575714Y-70245000D01*
X129575714Y-73415000D01*
X137124286Y-73415000D01*
X137124286Y-70245000D01*
X129575714Y-70245000D01*
X121685000Y-70245000D01*
X121685000Y-69200000D01*
X121655694Y-69052667D01*
X121572236Y-68927764D01*
X121447333Y-68844306D01*
X121300000Y-68815000D01*
X107300000Y-68815000D01*
X107152667Y-68844306D01*
X107027764Y-68927764D01*
X106944306Y-69052667D01*
X106915000Y-69200000D01*
X102635000Y-69200000D01*
X102635000Y-55230000D01*
X102605694Y-55082667D01*
X102522236Y-54957764D01*
X102397333Y-54874306D01*
X102250000Y-54845000D01*
X88250000Y-54845000D01*
X88102667Y-54874306D01*
X87977764Y-54957764D01*
X87894306Y-55082667D01*
X87865000Y-55230000D01*
X83585000Y-55230000D01*
X83585000Y-43800000D01*
X83555694Y-43652667D01*
X83472236Y-43527764D01*
X83347333Y-43444306D01*
X83200000Y-43415000D01*
X69200000Y-43415000D01*
X69052667Y-43444306D01*
X68927764Y-43527764D01*
X68844306Y-43652667D01*
X68815000Y-43800000D01*
X64535000Y-43800000D01*
X64505694Y-43652667D01*
X64422236Y-43527764D01*
X64297333Y-43444306D01*
X64150000Y-43415000D01*
X50150000Y-43415000D01*
X50002667Y-43444306D01*
X49877764Y-43527764D01*
X49794306Y-43652667D01*
X49765000Y-43800000D01*
X48010000Y-43800000D01*
X48010000Y-42582918D01*
X48084335Y-42209212D01*
X48274545Y-41924543D01*
X48559212Y-41734335D01*
X48970109Y-41652602D01*
X48975015Y-41650570D01*
X48980324Y-41650426D01*
X73050198Y-36180000D01*
X87865000Y-36180000D01*
X87865000Y-50180000D01*
X87894306Y-50327333D01*
X87977764Y-50452236D01*
X88102667Y-50535694D01*
X88250000Y-50565000D01*
X102250000Y-50565000D01*
X102397333Y-50535694D01*
X102522236Y-50452236D01*
X102605694Y-50327333D01*
X102635000Y-50180000D01*
X102635000Y-50150000D01*
X106915000Y-50150000D01*
X106915000Y-64150000D01*
X106944306Y-64297333D01*
X107027764Y-64422236D01*
X107152667Y-64505694D01*
X107300000Y-64535000D01*
X121300000Y-64535000D01*
X121447333Y-64505694D01*
X121572236Y-64422236D01*
X121655694Y-64297333D01*
X121685000Y-64150000D01*
X121685000Y-55230000D01*
X125965000Y-55230000D01*
X125965000Y-69230000D01*
X125994306Y-69377333D01*
X126077764Y-69502236D01*
X126202667Y-69585694D01*
X126350000Y-69615000D01*
X140350000Y-69615000D01*
X140497333Y-69585694D01*
X140622236Y-69502236D01*
X140705694Y-69377333D01*
X140735000Y-69230000D01*
X140735000Y-69200000D01*
X145015000Y-69200000D01*
X145015000Y-83200000D01*
X145044306Y-83347333D01*
X145127764Y-83472236D01*
X145252667Y-83555694D01*
X145400000Y-83585000D01*
X159400000Y-83585000D01*
X159547333Y-83555694D01*
X159649391Y-83487500D01*
X164065000Y-83487500D01*
X164065000Y-97487500D01*
X164094306Y-97634833D01*
X164177764Y-97759736D01*
X164302667Y-97843194D01*
X164450000Y-97872500D01*
X178450000Y-97872500D01*
X178597333Y-97843194D01*
X178722236Y-97759736D01*
X178805694Y-97634833D01*
X178835000Y-97487500D01*
X178835000Y-83487500D01*
X178805694Y-83340167D01*
X178722236Y-83215264D01*
X178597333Y-83131806D01*
X178450000Y-83102500D01*
X164450000Y-83102500D01*
X164302667Y-83131806D01*
X164177764Y-83215264D01*
X164094306Y-83340167D01*
X164065000Y-83487500D01*
X159649391Y-83487500D01*
X159672236Y-83472236D01*
X159755694Y-83347333D01*
X159785000Y-83200000D01*
X159785000Y-69200000D01*
X159755694Y-69052667D01*
X159672236Y-68927764D01*
X159547333Y-68844306D01*
X159400000Y-68815000D01*
X145400000Y-68815000D01*
X145252667Y-68844306D01*
X145127764Y-68927764D01*
X145044306Y-69052667D01*
X145015000Y-69200000D01*
X140735000Y-69200000D01*
X140735000Y-55230000D01*
X140705694Y-55082667D01*
X140622236Y-54957764D01*
X140497333Y-54874306D01*
X140350000Y-54845000D01*
X126350000Y-54845000D01*
X126202667Y-54874306D01*
X126077764Y-54957764D01*
X125994306Y-55082667D01*
X125965000Y-55230000D01*
X121685000Y-55230000D01*
X121685000Y-50150000D01*
X121655694Y-50002667D01*
X121572236Y-49877764D01*
X121447333Y-49794306D01*
X121300000Y-49765000D01*
X107300000Y-49765000D01*
X107152667Y-49794306D01*
X107027764Y-49877764D01*
X106944306Y-50002667D01*
X106915000Y-50150000D01*
X102635000Y-50150000D01*
X102635000Y-47904236D01*
X121779755Y-47904236D01*
X121993963Y-48422658D01*
X122390256Y-48819643D01*
X122908303Y-49034755D01*
X123469236Y-49035245D01*
X123987658Y-48821037D01*
X124384643Y-48424744D01*
X124599755Y-47906697D01*
X124600245Y-47345764D01*
X124386037Y-46827342D01*
X123989744Y-46430357D01*
X123471697Y-46215245D01*
X122910764Y-46214755D01*
X122392342Y-46428963D01*
X121995357Y-46825256D01*
X121780245Y-47343303D01*
X121779755Y-47904236D01*
X102635000Y-47904236D01*
X102635000Y-36180000D01*
X102605694Y-36032667D01*
X102522236Y-35907764D01*
X102397333Y-35824306D01*
X102250000Y-35795000D01*
X88250000Y-35795000D01*
X88102667Y-35824306D01*
X87977764Y-35907764D01*
X87894306Y-36032667D01*
X87865000Y-36180000D01*
X73050198Y-36180000D01*
X95402198Y-31100000D01*
X106915000Y-31100000D01*
X106915000Y-45100000D01*
X106944306Y-45247333D01*
X107027764Y-45372236D01*
X107152667Y-45455694D01*
X107300000Y-45485000D01*
X121300000Y-45485000D01*
X121447333Y-45455694D01*
X121572236Y-45372236D01*
X121655694Y-45247333D01*
X121685000Y-45100000D01*
X121685000Y-36180000D01*
X125965000Y-36180000D01*
X125965000Y-50180000D01*
X125994306Y-50327333D01*
X126077764Y-50452236D01*
X126202667Y-50535694D01*
X126350000Y-50565000D01*
X140350000Y-50565000D01*
X140497333Y-50535694D01*
X140622236Y-50452236D01*
X140705694Y-50327333D01*
X140735000Y-50180000D01*
X140735000Y-50150000D01*
X145015000Y-50150000D01*
X145015000Y-64150000D01*
X145044306Y-64297333D01*
X145127764Y-64422236D01*
X145252667Y-64505694D01*
X145400000Y-64535000D01*
X159400000Y-64535000D01*
X159547333Y-64505694D01*
X159672236Y-64422236D01*
X159755694Y-64297333D01*
X159785000Y-64150000D01*
X159785000Y-54912500D01*
X164065000Y-54912500D01*
X164065000Y-68912500D01*
X164094306Y-69059833D01*
X164177764Y-69184736D01*
X164302667Y-69268194D01*
X164450000Y-69297500D01*
X178450000Y-69297500D01*
X178597333Y-69268194D01*
X178722236Y-69184736D01*
X178805694Y-69059833D01*
X178835000Y-68912500D01*
X178835000Y-54912500D01*
X178805694Y-54765167D01*
X178722236Y-54640264D01*
X178597333Y-54556806D01*
X178450000Y-54527500D01*
X164450000Y-54527500D01*
X164302667Y-54556806D01*
X164177764Y-54640264D01*
X164094306Y-54765167D01*
X164065000Y-54912500D01*
X159785000Y-54912500D01*
X159785000Y-50150000D01*
X159755694Y-50002667D01*
X159672236Y-49877764D01*
X159547333Y-49794306D01*
X159400000Y-49765000D01*
X145400000Y-49765000D01*
X145252667Y-49794306D01*
X145127764Y-49877764D01*
X145044306Y-50002667D01*
X145015000Y-50150000D01*
X140735000Y-50150000D01*
X140735000Y-47904236D01*
X160514755Y-47904236D01*
X160728963Y-48422658D01*
X161125256Y-48819643D01*
X161643303Y-49034755D01*
X162204236Y-49035245D01*
X162722658Y-48821037D01*
X163119643Y-48424744D01*
X163334755Y-47906697D01*
X163335245Y-47345764D01*
X163121037Y-46827342D01*
X162724744Y-46430357D01*
X162206697Y-46215245D01*
X161645764Y-46214755D01*
X161127342Y-46428963D01*
X160730357Y-46825256D01*
X160515245Y-47343303D01*
X160514755Y-47904236D01*
X140735000Y-47904236D01*
X140735000Y-36180000D01*
X140705694Y-36032667D01*
X140622236Y-35907764D01*
X140497333Y-35824306D01*
X140350000Y-35795000D01*
X126350000Y-35795000D01*
X126202667Y-35824306D01*
X126077764Y-35907764D01*
X125994306Y-36032667D01*
X125965000Y-36180000D01*
X121685000Y-36180000D01*
X121685000Y-31100000D01*
X145015000Y-31100000D01*
X145015000Y-45100000D01*
X145044306Y-45247333D01*
X145127764Y-45372236D01*
X145252667Y-45455694D01*
X145400000Y-45485000D01*
X159400000Y-45485000D01*
X159547333Y-45455694D01*
X159672236Y-45372236D01*
X159755694Y-45247333D01*
X159785000Y-45100000D01*
X159785000Y-31100000D01*
X164065000Y-31100000D01*
X164065000Y-45100000D01*
X164094306Y-45247333D01*
X164177764Y-45372236D01*
X164302667Y-45455694D01*
X164450000Y-45485000D01*
X178450000Y-45485000D01*
X178597333Y-45455694D01*
X178722236Y-45372236D01*
X178805694Y-45247333D01*
X178835000Y-45100000D01*
X178835000Y-31100000D01*
X178805694Y-30952667D01*
X178722236Y-30827764D01*
X178597333Y-30744306D01*
X178450000Y-30715000D01*
X164450000Y-30715000D01*
X164302667Y-30744306D01*
X164177764Y-30827764D01*
X164094306Y-30952667D01*
X164065000Y-31100000D01*
X159785000Y-31100000D01*
X159755694Y-30952667D01*
X159672236Y-30827764D01*
X159547333Y-30744306D01*
X159400000Y-30715000D01*
X145400000Y-30715000D01*
X145252667Y-30744306D01*
X145127764Y-30827764D01*
X145044306Y-30952667D01*
X145015000Y-31100000D01*
X121685000Y-31100000D01*
X121655694Y-30952667D01*
X121572236Y-30827764D01*
X121447333Y-30744306D01*
X121300000Y-30715000D01*
X107300000Y-30715000D01*
X107152667Y-30744306D01*
X107027764Y-30827764D01*
X106944306Y-30952667D01*
X106915000Y-31100000D01*
X95402198Y-31100000D01*
X104818198Y-28960000D01*
X179667082Y-28960000D01*
X180040788Y-29034335D01*
X180040788Y-29034335D01*
G37*
X180040788Y-29034335D02*
X180325457Y-29224545D01*
X180515665Y-29509212D01*
X180590000Y-29882917D01*
X180590000Y-122517083D01*
X180515665Y-122890788D01*
X180325457Y-123175455D01*
X180040788Y-123365665D01*
X179641090Y-123445170D01*
X142848575Y-128520000D01*
X85783370Y-128520000D01*
X49009114Y-117107300D01*
X48988890Y-117105177D01*
X48970109Y-117097398D01*
X48559212Y-117015665D01*
X48274545Y-116825457D01*
X48084335Y-116540788D01*
X48010000Y-116167082D01*
X48010000Y-100950000D01*
X49765000Y-100950000D01*
X49765000Y-114950000D01*
X49794306Y-115097333D01*
X49877764Y-115222236D01*
X50002667Y-115305694D01*
X50150000Y-115335000D01*
X64150000Y-115335000D01*
X64297333Y-115305694D01*
X64422236Y-115222236D01*
X64505694Y-115097333D01*
X64535000Y-114950000D01*
X64535000Y-100950000D01*
X68815000Y-100950000D01*
X68815000Y-114950000D01*
X68844306Y-115097333D01*
X68927764Y-115222236D01*
X69052667Y-115305694D01*
X69200000Y-115335000D01*
X83200000Y-115335000D01*
X83347333Y-115305694D01*
X83472236Y-115222236D01*
X83555694Y-115097333D01*
X83585000Y-114950000D01*
X83585000Y-112380000D01*
X87865000Y-112380000D01*
X87865000Y-126380000D01*
X87894306Y-126527333D01*
X87977764Y-126652236D01*
X88102667Y-126735694D01*
X88250000Y-126765000D01*
X102250000Y-126765000D01*
X102397333Y-126735694D01*
X102522236Y-126652236D01*
X102605694Y-126527333D01*
X102635000Y-126380000D01*
X102635000Y-112380000D01*
X102605694Y-112232667D01*
X102522236Y-112107764D01*
X102397333Y-112024306D01*
X102250000Y-111995000D01*
X88250000Y-111995000D01*
X88102667Y-112024306D01*
X87977764Y-112107764D01*
X87894306Y-112232667D01*
X87865000Y-112380000D01*
X83585000Y-112380000D01*
X83585000Y-110134236D01*
X102729755Y-110134236D01*
X102943963Y-110652658D01*
X103340256Y-111049643D01*
X103858303Y-111264755D01*
X104419236Y-111265245D01*
X104937658Y-111051037D01*
X105334643Y-110654744D01*
X105549755Y-110136697D01*
X105550245Y-109575764D01*
X105336037Y-109057342D01*
X104939744Y-108660357D01*
X104421697Y-108445245D01*
X103860764Y-108444755D01*
X103342342Y-108658963D01*
X102945357Y-109055256D01*
X102730245Y-109573303D01*
X102729755Y-110134236D01*
X83585000Y-110134236D01*
X83585000Y-100950000D01*
X83555694Y-100802667D01*
X83472236Y-100677764D01*
X83347333Y-100594306D01*
X83200000Y-100565000D01*
X69200000Y-100565000D01*
X69052667Y-100594306D01*
X68927764Y-100677764D01*
X68844306Y-100802667D01*
X68815000Y-100950000D01*
X64535000Y-100950000D01*
X64505694Y-100802667D01*
X64422236Y-100677764D01*
X64297333Y-100594306D01*
X64150000Y-100565000D01*
X50150000Y-100565000D01*
X50002667Y-100594306D01*
X49877764Y-100677764D01*
X49794306Y-100802667D01*
X49765000Y-100950000D01*
X48010000Y-100950000D01*
X48010000Y-98704236D01*
X65264755Y-98704236D01*
X65478963Y-99222658D01*
X65875256Y-99619643D01*
X66393303Y-99834755D01*
X66954236Y-99835245D01*
X67472658Y-99621037D01*
X67869643Y-99224744D01*
X68084755Y-98706697D01*
X68085245Y-98145764D01*
X67871037Y-97627342D01*
X67474744Y-97230357D01*
X66956697Y-97015245D01*
X66395764Y-97014755D01*
X65877342Y-97228963D01*
X65480357Y-97625256D01*
X65265245Y-98143303D01*
X65264755Y-98704236D01*
X48010000Y-98704236D01*
X48010000Y-81900000D01*
X49765000Y-81900000D01*
X49765000Y-95900000D01*
X49794306Y-96047333D01*
X49877764Y-96172236D01*
X50002667Y-96255694D01*
X50150000Y-96285000D01*
X64150000Y-96285000D01*
X64297333Y-96255694D01*
X64422236Y-96172236D01*
X64505694Y-96047333D01*
X64535000Y-95900000D01*
X64535000Y-81900000D01*
X68815000Y-81900000D01*
X68815000Y-95900000D01*
X68844306Y-96047333D01*
X68927764Y-96172236D01*
X69052667Y-96255694D01*
X69200000Y-96285000D01*
X83200000Y-96285000D01*
X83347333Y-96255694D01*
X83472236Y-96172236D01*
X83555694Y-96047333D01*
X83585000Y-95900000D01*
X83585000Y-93330000D01*
X87865000Y-93330000D01*
X87865000Y-107330000D01*
X87894306Y-107477333D01*
X87977764Y-107602236D01*
X88102667Y-107685694D01*
X88250000Y-107715000D01*
X102250000Y-107715000D01*
X102397333Y-107685694D01*
X102522236Y-107602236D01*
X102605694Y-107477333D01*
X102635000Y-107330000D01*
X102635000Y-107300000D01*
X106915000Y-107300000D01*
X106915000Y-121300000D01*
X106944306Y-121447333D01*
X107027764Y-121572236D01*
X107152667Y-121655694D01*
X107300000Y-121685000D01*
X121300000Y-121685000D01*
X121447333Y-121655694D01*
X121572236Y-121572236D01*
X121655694Y-121447333D01*
X121685000Y-121300000D01*
X121685000Y-112380000D01*
X125965000Y-112380000D01*
X125965000Y-126380000D01*
X125994306Y-126527333D01*
X126077764Y-126652236D01*
X126202667Y-126735694D01*
X126350000Y-126765000D01*
X140350000Y-126765000D01*
X140497333Y-126735694D01*
X140622236Y-126652236D01*
X140705694Y-126527333D01*
X140735000Y-126380000D01*
X140735000Y-112380000D01*
X140705694Y-112232667D01*
X140622236Y-112107764D01*
X140497333Y-112024306D01*
X140350000Y-111995000D01*
X126350000Y-111995000D01*
X126202667Y-112024306D01*
X126077764Y-112107764D01*
X125994306Y-112232667D01*
X125965000Y-112380000D01*
X121685000Y-112380000D01*
X121685000Y-107300000D01*
X121655694Y-107152667D01*
X121572236Y-107027764D01*
X121447333Y-106944306D01*
X121300000Y-106915000D01*
X107300000Y-106915000D01*
X107152667Y-106944306D01*
X107027764Y-107027764D01*
X106944306Y-107152667D01*
X106915000Y-107300000D01*
X102635000Y-107300000D01*
X102635000Y-93330000D01*
X102605694Y-93182667D01*
X102522236Y-93057764D01*
X102397333Y-92974306D01*
X102250000Y-92945000D01*
X88250000Y-92945000D01*
X88102667Y-92974306D01*
X87977764Y-93057764D01*
X87894306Y-93182667D01*
X87865000Y-93330000D01*
X83585000Y-93330000D01*
X83585000Y-81900000D01*
X83555694Y-81752667D01*
X83472236Y-81627764D01*
X83347333Y-81544306D01*
X83200000Y-81515000D01*
X69200000Y-81515000D01*
X69052667Y-81544306D01*
X68927764Y-81627764D01*
X68844306Y-81752667D01*
X68815000Y-81900000D01*
X64535000Y-81900000D01*
X64505694Y-81752667D01*
X64422236Y-81627764D01*
X64297333Y-81544306D01*
X64150000Y-81515000D01*
X50150000Y-81515000D01*
X50002667Y-81544306D01*
X49877764Y-81627764D01*
X49794306Y-81752667D01*
X49765000Y-81900000D01*
X48010000Y-81900000D01*
X48010000Y-62850000D01*
X49765000Y-62850000D01*
X49765000Y-76850000D01*
X49794306Y-76997333D01*
X49877764Y-77122236D01*
X50002667Y-77205694D01*
X50150000Y-77235000D01*
X64150000Y-77235000D01*
X64297333Y-77205694D01*
X64422236Y-77122236D01*
X64505694Y-76997333D01*
X64535000Y-76850000D01*
X64535000Y-62850000D01*
X68815000Y-62850000D01*
X68815000Y-76850000D01*
X68844306Y-76997333D01*
X68927764Y-77122236D01*
X69052667Y-77205694D01*
X69200000Y-77235000D01*
X83200000Y-77235000D01*
X83347333Y-77205694D01*
X83472236Y-77122236D01*
X83555694Y-76997333D01*
X83585000Y-76850000D01*
X83585000Y-74280000D01*
X87865000Y-74280000D01*
X87865000Y-88280000D01*
X87894306Y-88427333D01*
X87977764Y-88552236D01*
X88102667Y-88635694D01*
X88250000Y-88665000D01*
X102250000Y-88665000D01*
X102397333Y-88635694D01*
X102522236Y-88552236D01*
X102605694Y-88427333D01*
X102635000Y-88280000D01*
X102635000Y-88250000D01*
X106915000Y-88250000D01*
X106915000Y-102250000D01*
X106944306Y-102397333D01*
X107027764Y-102522236D01*
X107152667Y-102605694D01*
X107300000Y-102635000D01*
X121300000Y-102635000D01*
X121447333Y-102605694D01*
X121572236Y-102522236D01*
X121655694Y-102397333D01*
X121685000Y-102250000D01*
X121685000Y-93330000D01*
X125965000Y-93330000D01*
X125965000Y-107330000D01*
X125994306Y-107477333D01*
X126077764Y-107602236D01*
X126202667Y-107685694D01*
X126350000Y-107715000D01*
X140350000Y-107715000D01*
X140497333Y-107685694D01*
X140622236Y-107602236D01*
X140705694Y-107477333D01*
X140735000Y-107330000D01*
X140735000Y-107300000D01*
X145015000Y-107300000D01*
X145015000Y-121300000D01*
X145044306Y-121447333D01*
X145127764Y-121572236D01*
X145252667Y-121655694D01*
X145400000Y-121685000D01*
X159400000Y-121685000D01*
X159547333Y-121655694D01*
X159672236Y-121572236D01*
X159755694Y-121447333D01*
X159785000Y-121300000D01*
X159785000Y-107300000D01*
X164065000Y-107300000D01*
X164065000Y-121300000D01*
X164094306Y-121447333D01*
X164177764Y-121572236D01*
X164302667Y-121655694D01*
X164450000Y-121685000D01*
X178450000Y-121685000D01*
X178597333Y-121655694D01*
X178722236Y-121572236D01*
X178805694Y-121447333D01*
X178835000Y-121300000D01*
X178835000Y-107300000D01*
X178805694Y-107152667D01*
X178722236Y-107027764D01*
X178597333Y-106944306D01*
X178450000Y-106915000D01*
X164450000Y-106915000D01*
X164302667Y-106944306D01*
X164177764Y-107027764D01*
X164094306Y-107152667D01*
X164065000Y-107300000D01*
X159785000Y-107300000D01*
X159755694Y-107152667D01*
X159672236Y-107027764D01*
X159547333Y-106944306D01*
X159400000Y-106915000D01*
X145400000Y-106915000D01*
X145252667Y-106944306D01*
X145127764Y-107027764D01*
X145044306Y-107152667D01*
X145015000Y-107300000D01*
X140735000Y-107300000D01*
X140735000Y-105054236D01*
X160514755Y-105054236D01*
X160728963Y-105572658D01*
X161125256Y-105969643D01*
X161643303Y-106184755D01*
X162204236Y-106185245D01*
X162722658Y-105971037D01*
X163119643Y-105574744D01*
X163334755Y-105056697D01*
X163335245Y-104495764D01*
X163121037Y-103977342D01*
X162724744Y-103580357D01*
X162206697Y-103365245D01*
X161645764Y-103364755D01*
X161127342Y-103578963D01*
X160730357Y-103975256D01*
X160515245Y-104493303D01*
X160514755Y-105054236D01*
X140735000Y-105054236D01*
X140735000Y-93330000D01*
X140705694Y-93182667D01*
X140622236Y-93057764D01*
X140497333Y-92974306D01*
X140350000Y-92945000D01*
X126350000Y-92945000D01*
X126202667Y-92974306D01*
X126077764Y-93057764D01*
X125994306Y-93182667D01*
X125965000Y-93330000D01*
X121685000Y-93330000D01*
X121685000Y-88250000D01*
X121655694Y-88102667D01*
X121572236Y-87977764D01*
X121447333Y-87894306D01*
X121300000Y-87865000D01*
X107300000Y-87865000D01*
X107152667Y-87894306D01*
X107027764Y-87977764D01*
X106944306Y-88102667D01*
X106915000Y-88250000D01*
X102635000Y-88250000D01*
X102635000Y-74280000D01*
X102605694Y-74132667D01*
X102522236Y-74007764D01*
X102397333Y-73924306D01*
X102250000Y-73895000D01*
X88250000Y-73895000D01*
X88102667Y-73924306D01*
X87977764Y-74007764D01*
X87894306Y-74132667D01*
X87865000Y-74280000D01*
X83585000Y-74280000D01*
X83585000Y-72034236D01*
X102729755Y-72034236D01*
X102943963Y-72552658D01*
X103340256Y-72949643D01*
X103858303Y-73164755D01*
X104419236Y-73165245D01*
X104937658Y-72951037D01*
X105334643Y-72554744D01*
X105549755Y-72036697D01*
X105550245Y-71475764D01*
X105336037Y-70957342D01*
X104939744Y-70560357D01*
X104421697Y-70345245D01*
X103860764Y-70344755D01*
X103342342Y-70558963D01*
X102945357Y-70955256D01*
X102730245Y-71473303D01*
X102729755Y-72034236D01*
X83585000Y-72034236D01*
X83585000Y-62850000D01*
X83555694Y-62702667D01*
X83472236Y-62577764D01*
X83347333Y-62494306D01*
X83200000Y-62465000D01*
X69200000Y-62465000D01*
X69052667Y-62494306D01*
X68927764Y-62577764D01*
X68844306Y-62702667D01*
X68815000Y-62850000D01*
X64535000Y-62850000D01*
X64505694Y-62702667D01*
X64422236Y-62577764D01*
X64297333Y-62494306D01*
X64150000Y-62465000D01*
X50150000Y-62465000D01*
X50002667Y-62494306D01*
X49877764Y-62577764D01*
X49794306Y-62702667D01*
X49765000Y-62850000D01*
X48010000Y-62850000D01*
X48010000Y-60604236D01*
X65264755Y-60604236D01*
X65478963Y-61122658D01*
X65875256Y-61519643D01*
X66393303Y-61734755D01*
X66954236Y-61735245D01*
X67472658Y-61521037D01*
X67869643Y-61124744D01*
X68084755Y-60606697D01*
X68085245Y-60045764D01*
X67871037Y-59527342D01*
X67474744Y-59130357D01*
X66956697Y-58915245D01*
X66395764Y-58914755D01*
X65877342Y-59128963D01*
X65480357Y-59525256D01*
X65265245Y-60043303D01*
X65264755Y-60604236D01*
X48010000Y-60604236D01*
X48010000Y-43800000D01*
X49765000Y-43800000D01*
X49765000Y-57800000D01*
X49794306Y-57947333D01*
X49877764Y-58072236D01*
X50002667Y-58155694D01*
X50150000Y-58185000D01*
X64150000Y-58185000D01*
X64297333Y-58155694D01*
X64422236Y-58072236D01*
X64505694Y-57947333D01*
X64535000Y-57800000D01*
X64535000Y-43800000D01*
X68815000Y-43800000D01*
X68815000Y-57800000D01*
X68844306Y-57947333D01*
X68927764Y-58072236D01*
X69052667Y-58155694D01*
X69200000Y-58185000D01*
X83200000Y-58185000D01*
X83347333Y-58155694D01*
X83472236Y-58072236D01*
X83555694Y-57947333D01*
X83585000Y-57800000D01*
X83585000Y-55230000D01*
X87865000Y-55230000D01*
X87865000Y-69230000D01*
X87894306Y-69377333D01*
X87977764Y-69502236D01*
X88102667Y-69585694D01*
X88250000Y-69615000D01*
X102250000Y-69615000D01*
X102397333Y-69585694D01*
X102522236Y-69502236D01*
X102605694Y-69377333D01*
X102635000Y-69230000D01*
X102635000Y-69200000D01*
X106915000Y-69200000D01*
X106915000Y-83200000D01*
X106944306Y-83347333D01*
X107027764Y-83472236D01*
X107152667Y-83555694D01*
X107300000Y-83585000D01*
X121300000Y-83585000D01*
X121447333Y-83555694D01*
X121572236Y-83472236D01*
X121655694Y-83347333D01*
X121685000Y-83200000D01*
X121685000Y-74280000D01*
X125965000Y-74280000D01*
X125965000Y-88280000D01*
X125994306Y-88427333D01*
X126077764Y-88552236D01*
X126202667Y-88635694D01*
X126350000Y-88665000D01*
X140350000Y-88665000D01*
X140497333Y-88635694D01*
X140622236Y-88552236D01*
X140705694Y-88427333D01*
X140735000Y-88280000D01*
X140735000Y-88250000D01*
X145015000Y-88250000D01*
X145015000Y-102250000D01*
X145044306Y-102397333D01*
X145127764Y-102522236D01*
X145252667Y-102605694D01*
X145400000Y-102635000D01*
X159400000Y-102635000D01*
X159547333Y-102605694D01*
X159672236Y-102522236D01*
X159755694Y-102397333D01*
X159785000Y-102250000D01*
X159785000Y-88250000D01*
X159755694Y-88102667D01*
X159672236Y-87977764D01*
X159547333Y-87894306D01*
X159400000Y-87865000D01*
X145400000Y-87865000D01*
X145252667Y-87894306D01*
X145127764Y-87977764D01*
X145044306Y-88102667D01*
X145015000Y-88250000D01*
X140735000Y-88250000D01*
X140735000Y-86004236D01*
X142099755Y-86004236D01*
X142313963Y-86522658D01*
X142710256Y-86919643D01*
X143228303Y-87134755D01*
X143789236Y-87135245D01*
X144307658Y-86921037D01*
X144704643Y-86524744D01*
X144919755Y-86006697D01*
X144920245Y-85445764D01*
X144706037Y-84927342D01*
X144309744Y-84530357D01*
X143791697Y-84315245D01*
X143230764Y-84314755D01*
X142712342Y-84528963D01*
X142315357Y-84925256D01*
X142100245Y-85443303D01*
X142099755Y-86004236D01*
X140735000Y-86004236D01*
X140735000Y-74280000D01*
X140705694Y-74132667D01*
X140622236Y-74007764D01*
X140497333Y-73924306D01*
X140350000Y-73895000D01*
X126350000Y-73895000D01*
X126202667Y-73924306D01*
X126077764Y-74007764D01*
X125994306Y-74132667D01*
X125965000Y-74280000D01*
X121685000Y-74280000D01*
X121685000Y-70245000D01*
X129575714Y-70245000D01*
X129575714Y-73415000D01*
X137124286Y-73415000D01*
X137124286Y-70245000D01*
X129575714Y-70245000D01*
X121685000Y-70245000D01*
X121685000Y-69200000D01*
X121655694Y-69052667D01*
X121572236Y-68927764D01*
X121447333Y-68844306D01*
X121300000Y-68815000D01*
X107300000Y-68815000D01*
X107152667Y-68844306D01*
X107027764Y-68927764D01*
X106944306Y-69052667D01*
X106915000Y-69200000D01*
X102635000Y-69200000D01*
X102635000Y-55230000D01*
X102605694Y-55082667D01*
X102522236Y-54957764D01*
X102397333Y-54874306D01*
X102250000Y-54845000D01*
X88250000Y-54845000D01*
X88102667Y-54874306D01*
X87977764Y-54957764D01*
X87894306Y-55082667D01*
X87865000Y-55230000D01*
X83585000Y-55230000D01*
X83585000Y-43800000D01*
X83555694Y-43652667D01*
X83472236Y-43527764D01*
X83347333Y-43444306D01*
X83200000Y-43415000D01*
X69200000Y-43415000D01*
X69052667Y-43444306D01*
X68927764Y-43527764D01*
X68844306Y-43652667D01*
X68815000Y-43800000D01*
X64535000Y-43800000D01*
X64505694Y-43652667D01*
X64422236Y-43527764D01*
X64297333Y-43444306D01*
X64150000Y-43415000D01*
X50150000Y-43415000D01*
X50002667Y-43444306D01*
X49877764Y-43527764D01*
X49794306Y-43652667D01*
X49765000Y-43800000D01*
X48010000Y-43800000D01*
X48010000Y-42582918D01*
X48084335Y-42209212D01*
X48274545Y-41924543D01*
X48559212Y-41734335D01*
X48970109Y-41652602D01*
X48975015Y-41650570D01*
X48980324Y-41650426D01*
X73050198Y-36180000D01*
X87865000Y-36180000D01*
X87865000Y-50180000D01*
X87894306Y-50327333D01*
X87977764Y-50452236D01*
X88102667Y-50535694D01*
X88250000Y-50565000D01*
X102250000Y-50565000D01*
X102397333Y-50535694D01*
X102522236Y-50452236D01*
X102605694Y-50327333D01*
X102635000Y-50180000D01*
X102635000Y-50150000D01*
X106915000Y-50150000D01*
X106915000Y-64150000D01*
X106944306Y-64297333D01*
X107027764Y-64422236D01*
X107152667Y-64505694D01*
X107300000Y-64535000D01*
X121300000Y-64535000D01*
X121447333Y-64505694D01*
X121572236Y-64422236D01*
X121655694Y-64297333D01*
X121685000Y-64150000D01*
X121685000Y-55230000D01*
X125965000Y-55230000D01*
X125965000Y-69230000D01*
X125994306Y-69377333D01*
X126077764Y-69502236D01*
X126202667Y-69585694D01*
X126350000Y-69615000D01*
X140350000Y-69615000D01*
X140497333Y-69585694D01*
X140622236Y-69502236D01*
X140705694Y-69377333D01*
X140735000Y-69230000D01*
X140735000Y-69200000D01*
X145015000Y-69200000D01*
X145015000Y-83200000D01*
X145044306Y-83347333D01*
X145127764Y-83472236D01*
X145252667Y-83555694D01*
X145400000Y-83585000D01*
X159400000Y-83585000D01*
X159547333Y-83555694D01*
X159649391Y-83487500D01*
X164065000Y-83487500D01*
X164065000Y-97487500D01*
X164094306Y-97634833D01*
X164177764Y-97759736D01*
X164302667Y-97843194D01*
X164450000Y-97872500D01*
X178450000Y-97872500D01*
X178597333Y-97843194D01*
X178722236Y-97759736D01*
X178805694Y-97634833D01*
X178835000Y-97487500D01*
X178835000Y-83487500D01*
X178805694Y-83340167D01*
X178722236Y-83215264D01*
X178597333Y-83131806D01*
X178450000Y-83102500D01*
X164450000Y-83102500D01*
X164302667Y-83131806D01*
X164177764Y-83215264D01*
X164094306Y-83340167D01*
X164065000Y-83487500D01*
X159649391Y-83487500D01*
X159672236Y-83472236D01*
X159755694Y-83347333D01*
X159785000Y-83200000D01*
X159785000Y-69200000D01*
X159755694Y-69052667D01*
X159672236Y-68927764D01*
X159547333Y-68844306D01*
X159400000Y-68815000D01*
X145400000Y-68815000D01*
X145252667Y-68844306D01*
X145127764Y-68927764D01*
X145044306Y-69052667D01*
X145015000Y-69200000D01*
X140735000Y-69200000D01*
X140735000Y-55230000D01*
X140705694Y-55082667D01*
X140622236Y-54957764D01*
X140497333Y-54874306D01*
X140350000Y-54845000D01*
X126350000Y-54845000D01*
X126202667Y-54874306D01*
X126077764Y-54957764D01*
X125994306Y-55082667D01*
X125965000Y-55230000D01*
X121685000Y-55230000D01*
X121685000Y-50150000D01*
X121655694Y-50002667D01*
X121572236Y-49877764D01*
X121447333Y-49794306D01*
X121300000Y-49765000D01*
X107300000Y-49765000D01*
X107152667Y-49794306D01*
X107027764Y-49877764D01*
X106944306Y-50002667D01*
X106915000Y-50150000D01*
X102635000Y-50150000D01*
X102635000Y-47904236D01*
X121779755Y-47904236D01*
X121993963Y-48422658D01*
X122390256Y-48819643D01*
X122908303Y-49034755D01*
X123469236Y-49035245D01*
X123987658Y-48821037D01*
X124384643Y-48424744D01*
X124599755Y-47906697D01*
X124600245Y-47345764D01*
X124386037Y-46827342D01*
X123989744Y-46430357D01*
X123471697Y-46215245D01*
X122910764Y-46214755D01*
X122392342Y-46428963D01*
X121995357Y-46825256D01*
X121780245Y-47343303D01*
X121779755Y-47904236D01*
X102635000Y-47904236D01*
X102635000Y-36180000D01*
X102605694Y-36032667D01*
X102522236Y-35907764D01*
X102397333Y-35824306D01*
X102250000Y-35795000D01*
X88250000Y-35795000D01*
X88102667Y-35824306D01*
X87977764Y-35907764D01*
X87894306Y-36032667D01*
X87865000Y-36180000D01*
X73050198Y-36180000D01*
X95402198Y-31100000D01*
X106915000Y-31100000D01*
X106915000Y-45100000D01*
X106944306Y-45247333D01*
X107027764Y-45372236D01*
X107152667Y-45455694D01*
X107300000Y-45485000D01*
X121300000Y-45485000D01*
X121447333Y-45455694D01*
X121572236Y-45372236D01*
X121655694Y-45247333D01*
X121685000Y-45100000D01*
X121685000Y-36180000D01*
X125965000Y-36180000D01*
X125965000Y-50180000D01*
X125994306Y-50327333D01*
X126077764Y-50452236D01*
X126202667Y-50535694D01*
X126350000Y-50565000D01*
X140350000Y-50565000D01*
X140497333Y-50535694D01*
X140622236Y-50452236D01*
X140705694Y-50327333D01*
X140735000Y-50180000D01*
X140735000Y-50150000D01*
X145015000Y-50150000D01*
X145015000Y-64150000D01*
X145044306Y-64297333D01*
X145127764Y-64422236D01*
X145252667Y-64505694D01*
X145400000Y-64535000D01*
X159400000Y-64535000D01*
X159547333Y-64505694D01*
X159672236Y-64422236D01*
X159755694Y-64297333D01*
X159785000Y-64150000D01*
X159785000Y-54912500D01*
X164065000Y-54912500D01*
X164065000Y-68912500D01*
X164094306Y-69059833D01*
X164177764Y-69184736D01*
X164302667Y-69268194D01*
X164450000Y-69297500D01*
X178450000Y-69297500D01*
X178597333Y-69268194D01*
X178722236Y-69184736D01*
X178805694Y-69059833D01*
X178835000Y-68912500D01*
X178835000Y-54912500D01*
X178805694Y-54765167D01*
X178722236Y-54640264D01*
X178597333Y-54556806D01*
X178450000Y-54527500D01*
X164450000Y-54527500D01*
X164302667Y-54556806D01*
X164177764Y-54640264D01*
X164094306Y-54765167D01*
X164065000Y-54912500D01*
X159785000Y-54912500D01*
X159785000Y-50150000D01*
X159755694Y-50002667D01*
X159672236Y-49877764D01*
X159547333Y-49794306D01*
X159400000Y-49765000D01*
X145400000Y-49765000D01*
X145252667Y-49794306D01*
X145127764Y-49877764D01*
X145044306Y-50002667D01*
X145015000Y-50150000D01*
X140735000Y-50150000D01*
X140735000Y-47904236D01*
X160514755Y-47904236D01*
X160728963Y-48422658D01*
X161125256Y-48819643D01*
X161643303Y-49034755D01*
X162204236Y-49035245D01*
X162722658Y-48821037D01*
X163119643Y-48424744D01*
X163334755Y-47906697D01*
X163335245Y-47345764D01*
X163121037Y-46827342D01*
X162724744Y-46430357D01*
X162206697Y-46215245D01*
X161645764Y-46214755D01*
X161127342Y-46428963D01*
X160730357Y-46825256D01*
X160515245Y-47343303D01*
X160514755Y-47904236D01*
X140735000Y-47904236D01*
X140735000Y-36180000D01*
X140705694Y-36032667D01*
X140622236Y-35907764D01*
X140497333Y-35824306D01*
X140350000Y-35795000D01*
X126350000Y-35795000D01*
X126202667Y-35824306D01*
X126077764Y-35907764D01*
X125994306Y-36032667D01*
X125965000Y-36180000D01*
X121685000Y-36180000D01*
X121685000Y-31100000D01*
X145015000Y-31100000D01*
X145015000Y-45100000D01*
X145044306Y-45247333D01*
X145127764Y-45372236D01*
X145252667Y-45455694D01*
X145400000Y-45485000D01*
X159400000Y-45485000D01*
X159547333Y-45455694D01*
X159672236Y-45372236D01*
X159755694Y-45247333D01*
X159785000Y-45100000D01*
X159785000Y-31100000D01*
X164065000Y-31100000D01*
X164065000Y-45100000D01*
X164094306Y-45247333D01*
X164177764Y-45372236D01*
X164302667Y-45455694D01*
X164450000Y-45485000D01*
X178450000Y-45485000D01*
X178597333Y-45455694D01*
X178722236Y-45372236D01*
X178805694Y-45247333D01*
X178835000Y-45100000D01*
X178835000Y-31100000D01*
X178805694Y-30952667D01*
X178722236Y-30827764D01*
X178597333Y-30744306D01*
X178450000Y-30715000D01*
X164450000Y-30715000D01*
X164302667Y-30744306D01*
X164177764Y-30827764D01*
X164094306Y-30952667D01*
X164065000Y-31100000D01*
X159785000Y-31100000D01*
X159755694Y-30952667D01*
X159672236Y-30827764D01*
X159547333Y-30744306D01*
X159400000Y-30715000D01*
X145400000Y-30715000D01*
X145252667Y-30744306D01*
X145127764Y-30827764D01*
X145044306Y-30952667D01*
X145015000Y-31100000D01*
X121685000Y-31100000D01*
X121655694Y-30952667D01*
X121572236Y-30827764D01*
X121447333Y-30744306D01*
X121300000Y-30715000D01*
X107300000Y-30715000D01*
X107152667Y-30744306D01*
X107027764Y-30827764D01*
X106944306Y-30952667D01*
X106915000Y-31100000D01*
X95402198Y-31100000D01*
X104818198Y-28960000D01*
X179667082Y-28960000D01*
X180040788Y-29034335D01*
M02*
