G04 #@! TF.FileFunction,Profile,NP*
%FSLAX46Y46*%
G04 Gerber Fmt 4.6, Leading zero omitted, Abs format (unit mm)*
G04 Created by KiCad (PCBNEW 4.0.7+dfsg1-1~bpo9+1) date Sat May 26 14:25:42 2018*
%MOMM*%
%LPD*%
G01*
G04 APERTURE LIST*
%ADD10C,0.100000*%
%ADD11C,0.150000*%
G04 APERTURE END LIST*
D10*
D11*
X48895000Y-117475000D02*
X85725000Y-128905000D01*
X47625000Y-116205000D02*
G75*
G03X48895000Y-117475000I1270000J0D01*
G01*
X47625000Y-42545000D02*
X47625000Y-116205000D01*
X48895000Y-41275000D02*
X104775000Y-28575000D01*
X48895000Y-41275000D02*
G75*
G03X47625000Y-42545000I0J-1270000D01*
G01*
X142875000Y-128905000D02*
X85725000Y-128905000D01*
X179705000Y-123825000D02*
X142875000Y-128905000D01*
X179705000Y-123825000D02*
G75*
G03X180975000Y-122555000I0J1270000D01*
G01*
X180975000Y-29845000D02*
X180975000Y-122555000D01*
X104775000Y-28575000D02*
X179705000Y-28575000D01*
X180975000Y-29845000D02*
G75*
G03X179705000Y-28575000I-1270000J0D01*
G01*
X83200000Y-57800000D02*
X83200000Y-43800000D01*
X69200000Y-57800000D02*
X83200000Y-57800000D01*
X69200000Y-43800000D02*
X69200000Y-57800000D01*
X83200000Y-43800000D02*
X69200000Y-43800000D01*
X64150000Y-76850000D02*
X64150000Y-62850000D01*
X50150000Y-76850000D02*
X64150000Y-76850000D01*
X50150000Y-62850000D02*
X50150000Y-76850000D01*
X64150000Y-62850000D02*
X50150000Y-62850000D01*
X83200000Y-95900000D02*
X83200000Y-81900000D01*
X69200000Y-95900000D02*
X83200000Y-95900000D01*
X69200000Y-81900000D02*
X69200000Y-95900000D01*
X83200000Y-81900000D02*
X69200000Y-81900000D01*
X64150000Y-114950000D02*
X64150000Y-100950000D01*
X50150000Y-114950000D02*
X64150000Y-114950000D01*
X50150000Y-100950000D02*
X50150000Y-114950000D01*
X64150000Y-100950000D02*
X50150000Y-100950000D01*
X102250000Y-50180000D02*
X102250000Y-36180000D01*
X88250000Y-50180000D02*
X102250000Y-50180000D01*
X88250000Y-36180000D02*
X88250000Y-50180000D01*
X102250000Y-36180000D02*
X88250000Y-36180000D01*
X140350000Y-69230000D02*
X140350000Y-55230000D01*
X126350000Y-69230000D02*
X140350000Y-69230000D01*
X126350000Y-55230000D02*
X126350000Y-69230000D01*
X140350000Y-55230000D02*
X126350000Y-55230000D01*
X102250000Y-88280000D02*
X102250000Y-74280000D01*
X88250000Y-88280000D02*
X102250000Y-88280000D01*
X88250000Y-74280000D02*
X88250000Y-88280000D01*
X102250000Y-74280000D02*
X88250000Y-74280000D01*
X140350000Y-107330000D02*
X140350000Y-93330000D01*
X126350000Y-107330000D02*
X140350000Y-107330000D01*
X126350000Y-93330000D02*
X126350000Y-107330000D01*
X140350000Y-93330000D02*
X126350000Y-93330000D01*
X102250000Y-126380000D02*
X102250000Y-112380000D01*
X88250000Y-126380000D02*
X102250000Y-126380000D01*
X88250000Y-112380000D02*
X88250000Y-126380000D01*
X102250000Y-112380000D02*
X88250000Y-112380000D01*
X83200000Y-114950000D02*
X83200000Y-100950000D01*
X69200000Y-114950000D02*
X83200000Y-114950000D01*
X69200000Y-100950000D02*
X69200000Y-114950000D01*
X83200000Y-100950000D02*
X69200000Y-100950000D01*
X64150000Y-95900000D02*
X64150000Y-81900000D01*
X50150000Y-95900000D02*
X64150000Y-95900000D01*
X50150000Y-81900000D02*
X50150000Y-95900000D01*
X64150000Y-81900000D02*
X50150000Y-81900000D01*
X83200000Y-76850000D02*
X83200000Y-62850000D01*
X69200000Y-76850000D02*
X83200000Y-76850000D01*
X69200000Y-62850000D02*
X69200000Y-76850000D01*
X83200000Y-62850000D02*
X69200000Y-62850000D01*
X64150000Y-57800000D02*
X64150000Y-43800000D01*
X50150000Y-57800000D02*
X64150000Y-57800000D01*
X50150000Y-43800000D02*
X50150000Y-57800000D01*
X64150000Y-43800000D02*
X50150000Y-43800000D01*
X140350000Y-50180000D02*
X140350000Y-36180000D01*
X126350000Y-50180000D02*
X140350000Y-50180000D01*
X126350000Y-36180000D02*
X126350000Y-50180000D01*
X140350000Y-36180000D02*
X126350000Y-36180000D01*
X121300000Y-64150000D02*
X121300000Y-50150000D01*
X107300000Y-64150000D02*
X121300000Y-64150000D01*
X107300000Y-50150000D02*
X107300000Y-64150000D01*
X121300000Y-50150000D02*
X107300000Y-50150000D01*
X102250000Y-69230000D02*
X102250000Y-55230000D01*
X88250000Y-69230000D02*
X102250000Y-69230000D01*
X88250000Y-55230000D02*
X88250000Y-69230000D01*
X102250000Y-55230000D02*
X88250000Y-55230000D01*
X140350000Y-88280000D02*
X140350000Y-74280000D01*
X126350000Y-88280000D02*
X140350000Y-88280000D01*
X126350000Y-74280000D02*
X126350000Y-88280000D01*
X140350000Y-74280000D02*
X126350000Y-74280000D01*
X121300000Y-102250000D02*
X121300000Y-88250000D01*
X107300000Y-102250000D02*
X121300000Y-102250000D01*
X107300000Y-88250000D02*
X107300000Y-102250000D01*
X121300000Y-88250000D02*
X107300000Y-88250000D01*
X102250000Y-107330000D02*
X102250000Y-93330000D01*
X88250000Y-107330000D02*
X102250000Y-107330000D01*
X88250000Y-93330000D02*
X88250000Y-107330000D01*
X102250000Y-93330000D02*
X88250000Y-93330000D01*
X140350000Y-126380000D02*
X140350000Y-112380000D01*
X126350000Y-126380000D02*
X140350000Y-126380000D01*
X126350000Y-112380000D02*
X126350000Y-126380000D01*
X140350000Y-112380000D02*
X126350000Y-112380000D01*
X121300000Y-45100000D02*
X121300000Y-31100000D01*
X107300000Y-45100000D02*
X121300000Y-45100000D01*
X107300000Y-31100000D02*
X107300000Y-45100000D01*
X121300000Y-31100000D02*
X107300000Y-31100000D01*
X121300000Y-83200000D02*
X121300000Y-69200000D01*
X107300000Y-83200000D02*
X121300000Y-83200000D01*
X107300000Y-69200000D02*
X107300000Y-83200000D01*
X121300000Y-69200000D02*
X107300000Y-69200000D01*
X121300000Y-121300000D02*
X121300000Y-107300000D01*
X107300000Y-121300000D02*
X121300000Y-121300000D01*
X107300000Y-107300000D02*
X107300000Y-121300000D01*
X121300000Y-107300000D02*
X107300000Y-107300000D01*
X159400000Y-64150000D02*
X159400000Y-50150000D01*
X145400000Y-64150000D02*
X159400000Y-64150000D01*
X145400000Y-50150000D02*
X145400000Y-64150000D01*
X159400000Y-50150000D02*
X145400000Y-50150000D01*
X159400000Y-45100000D02*
X159400000Y-31100000D01*
X145400000Y-45100000D02*
X159400000Y-45100000D01*
X145400000Y-31100000D02*
X145400000Y-45100000D01*
X159400000Y-31100000D02*
X145400000Y-31100000D01*
X159400000Y-83200000D02*
X159400000Y-69200000D01*
X145400000Y-83200000D02*
X159400000Y-83200000D01*
X145400000Y-69200000D02*
X145400000Y-83200000D01*
X159400000Y-69200000D02*
X145400000Y-69200000D01*
X159400000Y-102250000D02*
X159400000Y-88250000D01*
X145400000Y-102250000D02*
X159400000Y-102250000D01*
X145400000Y-88250000D02*
X145400000Y-102250000D01*
X159400000Y-88250000D02*
X145400000Y-88250000D01*
X159400000Y-121300000D02*
X159400000Y-107300000D01*
X145400000Y-121300000D02*
X159400000Y-121300000D01*
X145400000Y-107300000D02*
X145400000Y-121300000D01*
X159400000Y-107300000D02*
X145400000Y-107300000D01*
X178450000Y-121300000D02*
X178450000Y-107300000D01*
X164450000Y-121300000D02*
X178450000Y-121300000D01*
X164450000Y-107300000D02*
X164450000Y-121300000D01*
X178450000Y-107300000D02*
X164450000Y-107300000D01*
X178450000Y-97487500D02*
X178450000Y-83487500D01*
X164450000Y-97487500D02*
X178450000Y-97487500D01*
X164450000Y-83487500D02*
X164450000Y-97487500D01*
X178450000Y-83487500D02*
X164450000Y-83487500D01*
X178450000Y-68912500D02*
X178450000Y-54912500D01*
X164450000Y-68912500D02*
X178450000Y-68912500D01*
X164450000Y-54912500D02*
X164450000Y-68912500D01*
X178450000Y-54912500D02*
X164450000Y-54912500D01*
X178450000Y-45100000D02*
X178450000Y-31100000D01*
X164450000Y-45100000D02*
X178450000Y-45100000D01*
X164450000Y-31100000D02*
X164450000Y-45100000D01*
X178450000Y-31100000D02*
X164450000Y-31100000D01*
M02*
